<svg width="288" height="259" viewBox="0 0 288 259" fill="none" xmlns="http://www.w3.org/2000/svg">
<mask id="mask0_37_2" style="mask-type:alpha" maskUnits="userSpaceOnUse" x="71" y="33" width="152" height="152">
<circle cx="146.749" cy="108.603" r="71.4795" stroke="white" stroke-width="8.24764"/>
</mask>
<g mask="url(#mask0_37_2)">
<circle cx="146.749" cy="100.356" r="206.191" fill="url(#paint0_angular_37_2)"/>
<circle cx="146.749" cy="108.603" r="71.4795" stroke="white" stroke-width="8.24764"/>
<g style="mix-blend-mode:overlay">
<circle cx="148.124" cy="108.603" r="101.741" fill="url(#paint1_angular_37_2)"/>
</g>
</g>
<mask id="mask1_37_2" style="mask-type:alpha" maskUnits="userSpaceOnUse" x="129" y="81" width="50" height="55">
<path d="M138.57 134.912L175.685 113.484C179.442 111.315 179.442 105.892 175.685 103.722L138.57 82.2945C134.813 80.1253 130.116 82.8368 130.116 87.1753L130.116 130.031C130.116 134.37 134.813 137.081 138.57 134.912Z" fill="white" stroke="black" stroke-width="0.274921"/>
</mask>
<g mask="url(#mask1_37_2)">
<path d="M217.119 108.603C217.119 147.994 185.187 179.926 145.796 179.926C106.406 179.926 74.4735 147.994 74.4735 108.603C74.4735 69.2129 106.406 37.2806 145.796 37.2806C185.187 37.2806 217.119 69.2129 217.119 108.603Z" fill="url(#paint2_angular_37_2)"/>
<path d="M175.616 103.842C179.282 105.958 179.282 111.249 175.616 113.365L138.502 134.793C134.836 136.909 130.254 134.264 130.254 130.031L130.254 87.1753C130.254 82.9426 134.836 80.2972 138.502 82.4136L175.616 103.842Z" fill="white"/>
<g style="mix-blend-mode:overlay">
<path d="M217.119 108.603C217.119 147.994 185.187 179.926 145.796 179.926C106.406 179.926 74.4735 147.994 74.4735 108.603C74.4735 69.2129 106.406 37.2806 145.796 37.2806C185.187 37.2806 217.119 69.2129 217.119 108.603Z" fill="url(#paint3_angular_37_2)"/>
</g>
</g>
<mask id="mask2_37_2" style="mask-type:alpha" maskUnits="userSpaceOnUse" x="26" y="208" width="235" height="25">
<path d="M54.3749 208.966C54.8751 208.966 55.3535 209.161 55.8102 209.553C56.2669 209.922 56.4952 210.433 56.4952 211.086C56.4952 211.282 56.4626 211.499 56.3974 211.738L49.9711 230.658C49.8406 231.05 49.6014 231.354 49.2534 231.572C48.9272 231.767 48.5793 231.876 48.2096 231.898C47.8399 231.898 47.4702 231.789 47.1005 231.572C46.7525 231.354 46.4807 231.039 46.285 230.626L41.4571 219.665L41.7507 219.861L36.9881 230.626C36.7923 231.039 36.5096 231.354 36.1399 231.572C35.792 231.789 35.4331 231.898 35.0634 231.898C34.7155 231.876 34.3675 231.767 34.0196 231.572C33.6716 231.354 33.4324 231.05 33.3019 230.658L26.8757 211.738C26.8104 211.499 26.7778 211.282 26.7778 211.086C26.7778 210.433 27.0061 209.922 27.4628 209.553C27.9413 209.161 28.4306 208.966 28.9308 208.966C29.344 208.966 29.7245 209.074 30.0725 209.292C30.4422 209.509 30.6923 209.825 30.8228 210.238L36.0094 225.961L35.2918 225.928L39.9239 214.805C40.0979 214.413 40.348 214.109 40.6742 213.891C41.0004 213.652 41.3701 213.543 41.7833 213.565C42.1965 213.543 42.5662 213.652 42.8924 213.891C43.2186 214.109 43.4578 214.413 43.6101 214.805L47.8508 225.439L47.3288 225.765L52.4503 210.238C52.5808 209.825 52.8308 209.509 53.2005 209.292C53.5703 209.074 53.9617 208.966 54.3749 208.966ZM71.6932 214.185L64.6471 230.756C64.4949 231.169 64.2556 231.496 63.9294 231.735C63.625 231.952 63.2879 232.061 62.9182 232.061C62.331 232.061 61.8961 231.898 61.6134 231.572C61.3307 231.245 61.1893 230.843 61.1893 230.365C61.1893 230.169 61.2219 229.962 61.2872 229.745L69.4097 210.238C69.5837 209.803 69.8447 209.466 70.1926 209.227C70.5623 208.987 70.9538 208.889 71.367 208.933C71.7584 208.933 72.1172 209.053 72.4434 209.292C72.7914 209.509 73.0415 209.825 73.1937 210.238L81.2184 229.353C81.3271 229.636 81.3815 229.897 81.3815 230.136C81.3815 230.724 81.1858 231.191 80.7943 231.539C80.4246 231.887 80.0114 232.061 79.5548 232.061C79.1633 232.061 78.8045 231.941 78.4783 231.702C78.1738 231.463 77.9346 231.137 77.7606 230.724L70.7472 214.381L71.6932 214.185ZM65.6583 226.776L67.4525 223.025H76.2601L76.8799 226.776H65.6583ZM94.8169 231.898C94.208 231.898 93.7078 231.713 93.3164 231.343C92.9249 230.952 92.7292 230.473 92.7292 229.908V210.988H96.9699V229.908C96.9699 230.473 96.7633 230.952 96.3501 231.343C95.9586 231.713 95.4476 231.898 94.8169 231.898ZM87.6077 212.815C87.0423 212.815 86.5639 212.641 86.1724 212.293C85.8027 211.945 85.6179 211.488 85.6179 210.923C85.6179 210.357 85.8027 209.912 86.1724 209.585C86.5639 209.237 87.0423 209.063 87.6077 209.063H102.091C102.657 209.063 103.124 209.237 103.494 209.585C103.885 209.933 104.081 210.39 104.081 210.955C104.081 211.521 103.885 211.978 103.494 212.325C103.124 212.652 102.657 212.815 102.091 212.815H87.6077ZM127.419 210.173C127.985 210.455 128.311 210.901 128.398 211.51C128.507 212.119 128.355 212.673 127.941 213.174C127.659 213.565 127.289 213.783 126.832 213.826C126.397 213.87 125.952 213.783 125.495 213.565C124.973 213.326 124.418 213.141 123.831 213.011C123.266 212.88 122.668 212.815 122.037 212.815C120.863 212.815 119.808 213 118.873 213.369C117.959 213.739 117.177 214.272 116.524 214.968C115.872 215.642 115.372 216.447 115.024 217.382C114.697 218.317 114.534 219.35 114.534 220.481C114.534 221.807 114.719 222.96 115.089 223.938C115.48 224.917 116.013 225.733 116.687 226.385C117.361 227.037 118.155 227.527 119.069 227.853C119.982 228.157 120.971 228.31 122.037 228.31C122.624 228.31 123.211 228.255 123.799 228.147C124.386 228.038 124.951 227.842 125.495 227.559C125.952 227.342 126.397 227.266 126.832 227.331C127.289 227.396 127.67 227.625 127.974 228.016C128.409 228.56 128.561 229.125 128.431 229.712C128.322 230.278 127.996 230.691 127.452 230.952C126.887 231.235 126.3 231.474 125.691 231.67C125.103 231.844 124.505 231.974 123.896 232.061C123.288 232.17 122.668 232.224 122.037 232.224C120.471 232.224 118.982 231.974 117.568 231.474C116.176 230.974 114.926 230.234 113.817 229.256C112.729 228.277 111.87 227.059 111.24 225.602C110.609 224.123 110.294 222.416 110.294 220.481C110.294 218.806 110.576 217.262 111.142 215.849C111.729 214.435 112.544 213.217 113.588 212.195C114.654 211.151 115.904 210.346 117.34 209.781C118.775 209.194 120.341 208.9 122.037 208.9C122.994 208.9 123.929 209.009 124.842 209.227C125.756 209.444 126.615 209.759 127.419 210.173ZM138.542 209.063C139.064 209.063 139.52 209.259 139.912 209.651C140.325 210.02 140.531 210.488 140.531 211.053V229.908C140.531 230.473 140.325 230.952 139.912 231.343C139.498 231.713 139.02 231.898 138.476 231.898C137.867 231.898 137.378 231.713 137.008 231.343C136.639 230.952 136.454 230.473 136.454 229.908V211.053C136.454 210.488 136.65 210.02 137.041 209.651C137.433 209.259 137.933 209.063 138.542 209.063ZM152.993 209.063C153.602 209.063 154.091 209.259 154.461 209.651C154.83 210.02 155.015 210.488 155.015 211.053V229.908C155.015 230.473 154.819 230.952 154.428 231.343C154.058 231.713 153.558 231.898 152.927 231.898C152.405 231.898 151.938 231.713 151.525 231.343C151.133 230.952 150.937 230.473 150.937 229.908V211.053C150.937 210.488 151.144 210.02 151.557 209.651C151.97 209.259 152.449 209.063 152.993 209.063ZM138.444 218.556H152.993V222.307H138.444V218.556ZM185.908 231.898C185.299 231.898 184.799 231.713 184.407 231.343C184.016 230.952 183.82 230.473 183.82 229.908V210.988H188.061V229.908C188.061 230.473 187.854 230.952 187.441 231.343C187.049 231.713 186.538 231.898 185.908 231.898ZM178.698 212.815C178.133 212.815 177.655 212.641 177.263 212.293C176.893 211.945 176.709 211.488 176.709 210.923C176.709 210.357 176.893 209.912 177.263 209.585C177.655 209.237 178.133 209.063 178.698 209.063H193.182C193.747 209.063 194.215 209.237 194.585 209.585C194.976 209.933 195.172 210.39 195.172 210.955C195.172 211.521 194.976 211.978 194.585 212.325C194.215 212.652 193.747 212.815 193.182 212.815H178.698ZM205.251 209.063C205.773 209.063 206.23 209.259 206.621 209.651C207.034 210.02 207.241 210.488 207.241 211.053V229.908C207.241 230.473 207.034 230.952 206.621 231.343C206.208 231.713 205.729 231.898 205.186 231.898C204.577 231.898 204.087 231.713 203.718 231.343C203.348 230.952 203.163 230.473 203.163 229.908V211.053C203.163 210.488 203.359 210.02 203.75 209.651C204.142 209.259 204.642 209.063 205.251 209.063ZM219.702 209.063C220.311 209.063 220.8 209.259 221.17 209.651C221.54 210.02 221.724 210.488 221.724 211.053V229.908C221.724 230.473 221.529 230.952 221.137 231.343C220.768 231.713 220.267 231.898 219.637 231.898C219.115 231.898 218.647 231.713 218.234 231.343C217.843 230.952 217.647 230.473 217.647 229.908V211.053C217.647 210.488 217.853 210.02 218.267 209.651C218.68 209.259 219.158 209.063 219.702 209.063ZM205.153 218.556H219.702V222.307H205.153V218.556ZM235.254 229.908C235.254 230.473 235.047 230.952 234.634 231.343C234.221 231.713 233.742 231.898 233.199 231.898C232.59 231.898 232.1 231.713 231.731 231.343C231.361 230.952 231.176 230.473 231.176 229.908V211.053C231.176 210.488 231.372 210.02 231.763 209.651C232.155 209.259 232.655 209.063 233.264 209.063C233.786 209.063 234.243 209.259 234.634 209.651C235.047 210.02 235.254 210.488 235.254 211.053V229.908ZM252.066 232.224C250.544 232.224 249.174 232.039 247.956 231.67C246.738 231.278 245.575 230.604 244.466 229.647C244.183 229.408 243.965 229.136 243.813 228.832C243.661 228.527 243.585 228.223 243.585 227.918C243.585 227.418 243.759 226.983 244.107 226.613C244.476 226.222 244.933 226.026 245.477 226.026C245.89 226.026 246.26 226.157 246.586 226.418C247.412 227.092 248.228 227.603 249.032 227.951C249.859 228.299 250.87 228.473 252.066 228.473C252.871 228.473 253.61 228.353 254.284 228.114C254.959 227.853 255.502 227.516 255.915 227.103C256.329 226.668 256.535 226.178 256.535 225.635C256.535 224.982 256.34 224.428 255.948 223.971C255.557 223.514 254.959 223.134 254.154 222.829C253.349 222.503 252.327 222.253 251.088 222.079C249.913 221.905 248.88 221.644 247.989 221.296C247.097 220.926 246.347 220.47 245.738 219.926C245.151 219.361 244.705 218.708 244.4 217.969C244.096 217.208 243.944 216.36 243.944 215.424C243.944 214.011 244.302 212.804 245.02 211.804C245.76 210.803 246.749 210.042 247.989 209.52C249.228 208.998 250.598 208.737 252.099 208.737C253.512 208.737 254.817 208.955 256.013 209.39C257.231 209.803 258.221 210.336 258.982 210.988C259.612 211.488 259.928 212.065 259.928 212.717C259.928 213.195 259.743 213.63 259.373 214.022C259.004 214.413 258.569 214.609 258.068 214.609C257.742 214.609 257.449 214.511 257.188 214.315C256.84 214.011 256.372 213.728 255.785 213.467C255.198 213.184 254.578 212.956 253.926 212.782C253.273 212.586 252.664 212.489 252.099 212.489C251.164 212.489 250.37 212.608 249.718 212.847C249.087 213.087 248.608 213.413 248.282 213.826C247.956 214.239 247.793 214.718 247.793 215.261C247.793 215.914 247.978 216.457 248.347 216.892C248.739 217.306 249.293 217.643 250.011 217.904C250.729 218.143 251.588 218.36 252.588 218.556C253.893 218.795 255.035 219.078 256.013 219.404C257.014 219.73 257.84 220.154 258.492 220.676C259.145 221.177 259.634 221.818 259.96 222.601C260.287 223.362 260.45 224.297 260.45 225.406C260.45 226.82 260.058 228.038 259.275 229.06C258.492 230.082 257.459 230.865 256.176 231.409C254.915 231.952 253.545 232.224 252.066 232.224Z" fill="white"/>
<path d="M55.8102 209.553L55.0499 210.44L55.0624 210.45L55.0752 210.461L55.8102 209.553ZM56.3974 211.738L57.5035 212.114L57.515 212.08L57.5244 212.046L56.3974 211.738ZM49.9711 230.658L48.8649 230.283L48.8628 230.289L49.9711 230.658ZM49.2534 231.572L49.8545 232.573L49.8636 232.568L49.8726 232.562L49.2534 231.572ZM48.2096 231.898V233.066H48.2439L48.2782 233.064L48.2096 231.898ZM47.1005 231.572L46.4813 232.562L46.4946 232.571L46.5082 232.579L47.1005 231.572ZM46.285 230.626L45.2158 231.097L45.2223 231.111L45.2292 231.126L46.285 230.626ZM41.4571 219.665L42.1051 218.693L38.7743 216.473L40.388 220.136L41.4571 219.665ZM41.7507 219.861L42.819 220.334L43.2169 219.434L42.3987 218.889L41.7507 219.861ZM36.9881 230.626L38.0438 231.126L38.0503 231.112L38.0564 231.098L36.9881 230.626ZM36.1399 231.572L35.5476 230.565L35.5341 230.573L35.5208 230.581L36.1399 231.572ZM35.0634 231.898L34.9906 233.064L35.027 233.066H35.0634V231.898ZM34.0196 231.572L33.4004 232.562L33.4233 232.577L33.4468 232.59L34.0196 231.572ZM33.3019 230.658L34.4102 230.289L34.4081 230.283L33.3019 230.658ZM26.8757 211.738L25.7486 212.046L25.758 212.08L25.7695 212.114L26.8757 211.738ZM27.4628 209.553L28.1979 210.461L28.2026 210.457L27.4628 209.553ZM30.0725 209.292L29.4533 210.282L29.4666 210.291L29.4802 210.299L30.0725 209.292ZM30.8228 210.238L29.7087 210.59L29.711 210.597L29.7133 210.604L30.8228 210.238ZM36.0094 225.961L35.9564 227.128L37.65 227.205L37.1189 225.595L36.0094 225.961ZM35.2918 225.928L34.2133 225.479L33.5719 227.02L35.2387 227.095L35.2918 225.928ZM39.9239 214.805L38.8564 214.33L38.8508 214.343L38.8455 214.356L39.9239 214.805ZM40.6742 213.891L41.3222 214.863L41.344 214.849L41.3651 214.833L40.6742 213.891ZM41.7833 213.565L41.7219 214.732L41.7833 214.735L41.8447 214.732L41.7833 213.565ZM42.8924 213.891L42.2016 214.833L42.2226 214.849L42.2444 214.863L42.8924 213.891ZM43.6101 214.805L42.5212 215.228L42.5249 215.237L43.6101 214.805ZM47.8508 225.439L48.4699 226.43L49.2973 225.913L48.9359 225.006L47.8508 225.439ZM47.3288 225.765L46.2194 225.399L45.2069 228.469L47.948 226.756L47.3288 225.765ZM52.4503 210.238L53.5597 210.604L53.562 210.597L53.5643 210.59L52.4503 210.238ZM54.3749 210.134C54.5423 210.134 54.7601 210.191 55.0499 210.44L56.5705 208.666C55.9469 208.131 55.2078 207.797 54.3749 207.797V210.134ZM55.0752 210.461C55.2253 210.582 55.327 210.742 55.327 211.086H57.6635C57.6635 210.125 57.3085 209.263 56.5453 208.645L55.0752 210.461ZM55.327 211.086C55.327 211.154 55.3151 211.267 55.2703 211.431L57.5244 212.046C57.6101 211.732 57.6635 211.409 57.6635 211.086H55.327ZM55.2912 211.363L48.8649 230.283L51.0773 231.034L57.5035 212.114L55.2912 211.363ZM48.8628 230.289C48.8177 230.424 48.7505 230.508 48.6343 230.581L49.8726 232.562C50.4523 232.2 50.8636 231.675 51.0794 231.028L48.8628 230.289ZM48.6524 230.57C48.4832 230.671 48.3173 230.721 48.141 230.732L48.2782 233.064C48.8413 233.031 49.3712 232.863 49.8545 232.573L48.6524 230.57ZM48.2096 230.73C48.0796 230.73 47.9121 230.694 47.6928 230.565L46.5082 232.579C47.0283 232.885 47.6002 233.066 48.2096 233.066V230.73ZM47.7196 230.581C47.5823 230.495 47.4521 230.361 47.3407 230.126L45.2292 231.126C45.5093 231.717 45.9227 232.213 46.4813 232.562L47.7196 230.581ZM47.3541 230.155L42.5262 219.194L40.388 220.136L45.2158 231.097L47.3541 230.155ZM40.8091 220.637L41.1027 220.833L42.3987 218.889L42.1051 218.693L40.8091 220.637ZM40.6823 219.388L35.9197 230.153L38.0564 231.098L42.819 220.334L40.6823 219.388ZM35.9323 230.126C35.8298 230.342 35.702 230.474 35.5476 230.565L36.7322 232.579C37.3173 232.234 37.7549 231.736 38.0438 231.126L35.9323 230.126ZM35.5208 230.581C35.3374 230.696 35.1906 230.73 35.0634 230.73V233.066C35.6757 233.066 36.2465 232.883 36.7591 232.562L35.5208 230.581ZM35.1363 230.732C34.9878 230.723 34.8092 230.675 34.5923 230.553L33.4468 232.59C33.9259 232.859 34.4431 233.03 34.9906 233.064L35.1363 230.732ZM34.6387 230.581C34.5225 230.508 34.4553 230.424 34.4102 230.289L32.1936 231.028C32.4095 231.675 32.8208 232.2 33.4004 232.562L34.6387 230.581ZM34.4081 230.283L27.9818 211.363L25.7695 212.114L32.1958 231.034L34.4081 230.283ZM28.0027 211.431C27.9579 211.267 27.946 211.154 27.946 211.086H25.6096C25.6096 211.409 25.6629 211.732 25.7486 212.046L28.0027 211.431ZM27.946 211.086C27.946 210.742 28.0478 210.582 28.1979 210.461L26.7278 208.645C25.9645 209.263 25.6096 210.125 25.6096 211.086H27.946ZM28.2026 210.457C28.523 210.195 28.7592 210.134 28.9308 210.134V207.797C28.1019 207.797 27.3595 208.128 26.7231 208.649L28.2026 210.457ZM28.9308 210.134C29.1266 210.134 29.2924 210.182 29.4533 210.282L30.6916 208.301C30.1566 207.967 29.5613 207.797 28.9308 207.797V210.134ZM29.4802 210.299C29.5982 210.368 29.6642 210.449 29.7087 210.59L31.9368 209.886C31.7203 209.201 31.2862 208.65 30.6648 208.285L29.4802 210.299ZM29.7133 210.604L34.9 226.327L37.1189 225.595L31.9322 209.872L29.7133 210.604ZM36.0625 224.794L35.3448 224.761L35.2387 227.095L35.9564 227.128L36.0625 224.794ZM36.3703 226.377L41.0024 215.254L38.8455 214.356L34.2133 225.479L36.3703 226.377ZM40.9915 215.279C41.0842 215.07 41.1971 214.947 41.3222 214.863L40.0262 212.919C39.4989 213.271 39.1116 213.756 38.8564 214.33L40.9915 215.279ZM41.3651 214.833C41.4686 214.757 41.5712 214.724 41.7219 214.732L41.8447 212.398C41.1691 212.363 40.5322 212.547 39.9834 212.949L41.3651 214.833ZM41.8447 214.732C41.9955 214.724 42.098 214.757 42.2016 214.833L43.5833 212.949C43.0344 212.547 42.3976 212.363 41.7219 212.398L41.8447 214.732ZM42.2444 214.863C42.3563 214.938 42.4495 215.044 42.5213 215.228L44.6989 214.381C44.4661 213.783 44.081 213.28 43.5404 212.919L42.2444 214.863ZM42.5249 215.237L46.7656 225.872L48.9359 225.006L44.6952 214.372L42.5249 215.237ZM47.2316 224.448L46.7097 224.775L47.948 226.756L48.4699 226.43L47.2316 224.448ZM48.4383 226.131L53.5597 210.604L51.3408 209.872L46.2194 225.399L48.4383 226.131ZM53.5643 210.59C53.6088 210.449 53.6749 210.368 53.7929 210.299L52.6082 208.285C51.9868 208.65 51.5527 209.201 51.3363 209.886L53.5643 210.59ZM53.7929 210.299C53.9902 210.183 54.1781 210.134 54.3749 210.134V207.797C53.7453 207.797 53.1503 207.966 52.6082 208.285L53.7929 210.299ZM71.6932 214.185L72.7683 214.642L73.6412 212.589L71.4565 213.041L71.6932 214.185ZM64.6471 230.756L63.572 230.299L63.5608 230.325L63.5509 230.352L64.6471 230.756ZM63.9294 231.735L64.6085 232.685L64.6144 232.681L64.6203 232.677L63.9294 231.735ZM61.6134 231.572L62.4962 230.807L62.4962 230.807L61.6134 231.572ZM61.2872 229.745L60.2087 229.296L60.1855 229.352L60.1682 229.409L61.2872 229.745ZM69.4097 210.238L70.4882 210.687L70.4914 210.679L70.4944 210.672L69.4097 210.238ZM70.1926 209.227L69.558 208.246L69.5442 208.255L69.5308 208.264L70.1926 209.227ZM71.367 208.933L71.2447 210.095L71.3056 210.101H71.367V208.933ZM72.4434 209.292L71.7526 210.234L71.7875 210.259L71.8243 210.282L72.4434 209.292ZM73.1937 210.238L72.0975 210.642L72.1065 210.666L72.1165 210.69L73.1937 210.238ZM81.2184 229.353L82.3088 228.934L82.3024 228.918L82.2956 228.901L81.2184 229.353ZM80.7943 231.539L80.0182 230.666L80.0058 230.677L79.9937 230.688L80.7943 231.539ZM78.4783 231.702L77.7565 232.621L77.7718 232.633L77.7874 232.644L78.4783 231.702ZM77.7606 230.724L78.8373 230.27L78.8342 230.263L77.7606 230.724ZM70.7472 214.381L70.5105 213.237L69.1094 213.526L69.6736 214.841L70.7472 214.381ZM65.6583 226.776L64.6044 226.272L63.8047 227.945H65.6583V226.776ZM67.4525 223.025V221.857H66.7162L66.3986 222.521L67.4525 223.025ZM76.2601 223.025L77.4127 222.835L77.2511 221.857H76.2601V223.025ZM76.8799 226.776V227.945H78.2569L78.0325 226.586L76.8799 226.776ZM70.6181 213.728L63.572 230.299L65.7222 231.213L72.7683 214.642L70.6181 213.728ZM63.5509 230.352C63.4707 230.57 63.3634 230.701 63.2386 230.793L64.6203 232.677C65.1479 232.29 65.5191 231.769 65.7433 231.16L63.5509 230.352ZM63.2504 230.784C63.1415 230.862 63.0413 230.893 62.9182 230.893V233.229C63.5345 233.229 64.1084 233.043 64.6085 232.685L63.2504 230.784ZM62.9182 230.893C62.7293 230.893 62.6186 230.866 62.5618 230.845C62.5126 230.826 62.5003 230.811 62.4962 230.807L60.7306 232.337C61.3072 233.002 62.1203 233.229 62.9182 233.229V230.893ZM62.4962 230.807C62.4179 230.716 62.3575 230.595 62.3575 230.365H60.0211C60.0211 231.092 60.2434 231.775 60.7306 232.337L62.4962 230.807ZM62.3575 230.365C62.3575 230.299 62.3685 230.206 62.4061 230.081L60.1682 229.409C60.0754 229.719 60.0211 230.039 60.0211 230.365H62.3575ZM62.3656 230.194L70.4882 210.687L68.3312 209.789L60.2087 229.296L62.3656 230.194ZM70.4944 210.672C70.5925 210.426 70.7171 210.284 70.8545 210.189L69.5308 208.264C68.9723 208.648 68.5749 209.179 68.325 209.804L70.4944 210.672ZM70.8273 210.207C70.9872 210.104 71.1137 210.081 71.2447 210.095L71.4893 207.771C70.7939 207.698 70.1374 207.871 69.558 208.246L70.8273 210.207ZM71.367 210.101C71.5012 210.101 71.6196 210.136 71.7526 210.234L73.1343 208.35C72.6149 207.969 72.0156 207.765 71.367 207.765V210.101ZM71.8243 210.282C71.936 210.352 72.0278 210.453 72.0975 210.642L74.2899 209.834C74.0551 209.197 73.6468 208.666 73.0626 208.301L71.8243 210.282ZM72.1165 210.69L80.1412 229.806L82.2956 228.901L74.2709 209.786L72.1165 210.69ZM80.128 229.773C80.1984 229.956 80.2133 230.073 80.2133 230.136H82.5497C82.5497 229.721 82.4559 229.317 82.3088 228.934L80.128 229.773ZM80.2133 230.136C80.2133 230.435 80.1285 230.568 80.0182 230.666L81.5705 232.412C82.2431 231.814 82.5497 231.012 82.5497 230.136H80.2133ZM79.9937 230.688C79.8144 230.857 79.6796 230.893 79.5548 230.893V233.229C80.3432 233.229 81.0349 232.917 81.595 232.39L79.9937 230.688ZM79.5548 230.893C79.4205 230.893 79.3021 230.858 79.1691 230.76L77.7874 232.644C78.3068 233.025 78.9061 233.229 79.5548 233.229V230.893ZM79.2 230.784C79.0745 230.685 78.9466 230.53 78.8373 230.27L76.6839 231.177C76.9226 231.744 77.2731 232.241 77.7565 232.621L79.2 230.784ZM78.8342 230.263L71.8207 213.92L69.6736 214.841L76.6871 231.184L78.8342 230.263ZM70.9839 215.525L71.9299 215.329L71.4565 213.041L70.5105 213.237L70.9839 215.525ZM66.7122 227.28L68.5064 223.529L66.3986 222.521L64.6044 226.272L66.7122 227.28ZM67.4525 224.193H76.2601V221.857H67.4525V224.193ZM75.1075 223.215L75.7272 226.967L78.0325 226.586L77.4127 222.835L75.1075 223.215ZM76.8799 225.608H65.6583V227.945H76.8799V225.608ZM93.3164 231.343L92.4903 232.169L92.5021 232.181L92.5142 232.193L93.3164 231.343ZM92.7292 210.988V209.82H91.5609V210.988H92.7292ZM96.9699 210.988H98.1381V209.82H96.9699V210.988ZM96.3501 231.343L97.1522 232.193L97.1535 232.191L96.3501 231.343ZM86.1724 212.293L85.3718 213.144L85.3839 213.155L85.3963 213.166L86.1724 212.293ZM86.1724 209.585L86.9454 210.461L86.9486 210.458L86.1724 209.585ZM103.494 209.585L102.693 210.436L102.705 210.447L102.718 210.458L103.494 209.585ZM103.494 212.325L104.267 213.201L104.27 213.199L103.494 212.325ZM94.8169 230.73C94.4641 230.73 94.2642 230.632 94.1185 230.494L92.5142 232.193C93.1514 232.794 93.9519 233.066 94.8169 233.066V230.73ZM94.1424 230.517C93.9753 230.35 93.8974 230.171 93.8974 229.908H91.5609C91.5609 230.776 91.8746 231.554 92.4903 232.169L94.1424 230.517ZM93.8974 229.908V210.988H91.5609V229.908H93.8974ZM92.7292 212.156H96.9699V209.82H92.7292V212.156ZM95.8016 210.988V229.908H98.1381V210.988H95.8016ZM95.8016 229.908C95.8016 230.15 95.7287 230.323 95.5466 230.495L97.1535 232.191C97.7978 231.581 98.1381 230.797 98.1381 229.908H95.8016ZM95.5479 230.494C95.41 230.624 95.2039 230.73 94.8169 230.73V233.066C95.6912 233.066 96.5072 232.802 97.1522 232.193L95.5479 230.494ZM87.6077 211.647C87.3037 211.647 87.1084 211.562 86.9486 211.42L85.3963 213.166C86.0194 213.72 86.7809 213.983 87.6077 213.983V211.647ZM86.9731 211.442C86.8659 211.341 86.7861 211.207 86.7861 210.923H84.4496C84.4496 211.77 84.7395 212.549 85.3718 213.144L86.9731 211.442ZM86.7861 210.923C86.7861 210.638 86.8652 210.532 86.9453 210.461L85.3995 208.709C84.7403 209.291 84.4496 210.077 84.4496 210.923H86.7861ZM86.9486 210.458C87.1084 210.316 87.3037 210.232 87.6077 210.232V207.895C86.7809 207.895 86.0194 208.158 85.3963 208.712L86.9486 210.458ZM87.6077 210.232H102.091V207.895H87.6077V210.232ZM102.091 210.232C102.396 210.232 102.566 210.316 102.693 210.436L104.295 208.735C103.683 208.159 102.918 207.895 102.091 207.895V210.232ZM102.718 210.458C102.838 210.566 102.913 210.694 102.913 210.955H105.249C105.249 210.086 104.933 209.301 104.27 208.712L102.718 210.458ZM102.913 210.955C102.913 211.217 102.838 211.345 102.718 211.452L104.27 213.199C104.933 212.61 105.249 211.825 105.249 210.955H102.913ZM102.721 211.449C102.596 211.56 102.417 211.647 102.091 211.647V213.983C102.897 213.983 103.653 213.743 104.267 213.201L102.721 211.449ZM102.091 211.647H87.6077V213.983H102.091V211.647ZM127.419 210.173L126.886 211.212L126.897 211.217L127.419 210.173ZM128.398 211.51L127.242 211.675L127.245 211.695L127.248 211.715L128.398 211.51ZM127.941 213.174L127.041 212.43L127.017 212.459L126.994 212.49L127.941 213.174ZM126.832 213.826L126.722 212.663L126.716 212.664L126.832 213.826ZM125.495 213.565L125.997 212.51L125.989 212.507L125.982 212.503L125.495 213.565ZM123.831 213.011L123.569 214.149L123.578 214.151L123.831 213.011ZM118.873 213.369L118.443 212.283L118.435 212.286L118.873 213.369ZM116.524 214.968L117.364 215.78L117.37 215.774L117.376 215.767L116.524 214.968ZM115.024 217.382L113.929 216.974L113.925 216.986L113.921 216.997L115.024 217.382ZM115.089 223.938L113.996 224.351L114 224.362L114.004 224.372L115.089 223.938ZM116.687 226.385L115.875 227.224L116.687 226.385ZM119.069 227.853L118.676 228.953L118.687 228.957L118.699 228.961L119.069 227.853ZM123.799 228.147L124.011 229.295L124.011 229.295L123.799 228.147ZM125.495 227.559L124.993 226.505L124.974 226.513L124.956 226.523L125.495 227.559ZM126.832 227.331L126.659 228.486L126.667 228.487L126.832 227.331ZM127.974 228.016L127.052 228.733L127.057 228.74L127.062 228.746L127.974 228.016ZM128.431 229.712L127.29 229.459L127.287 229.475L127.284 229.492L128.431 229.712ZM127.452 230.952L126.947 229.899L126.938 229.903L126.93 229.907L127.452 230.952ZM125.691 231.67L126.022 232.79L126.035 232.786L126.048 232.782L125.691 231.67ZM123.896 232.061L123.731 230.904L123.711 230.907L123.691 230.911L123.896 232.061ZM117.568 231.474L117.173 232.573L117.178 232.575L117.568 231.474ZM113.817 229.256L113.035 230.124L113.044 230.132L113.817 229.256ZM111.24 225.602L110.165 226.06L110.168 226.066L111.24 225.602ZM111.142 215.849L110.063 215.4L110.06 215.407L110.057 215.415L111.142 215.849ZM113.588 212.195L114.406 213.03L114.406 213.03L113.588 212.195ZM117.34 209.781L117.768 210.868L117.775 210.865L117.782 210.862L117.34 209.781ZM124.842 209.227L125.113 208.09L125.113 208.09L124.842 209.227ZM126.897 211.217C127.131 211.334 127.211 211.458 127.242 211.675L129.555 211.345C129.412 210.344 128.839 209.576 127.942 209.128L126.897 211.217ZM127.248 211.715C127.293 211.968 127.248 212.179 127.041 212.43L128.842 213.918C129.462 213.168 129.72 212.27 129.548 211.305L127.248 211.715ZM126.994 212.49C126.897 212.625 126.824 212.653 126.722 212.663L126.943 214.989C127.754 214.912 128.421 214.505 128.888 213.858L126.994 212.49ZM126.716 212.664C126.525 212.683 126.292 212.651 125.997 212.51L124.993 214.62C125.611 214.914 126.27 215.056 126.949 214.988L126.716 212.664ZM125.982 212.503C125.381 212.228 124.748 212.018 124.085 211.87L123.578 214.151C124.088 214.264 124.564 214.424 125.008 214.627L125.982 212.503ZM124.094 211.872C123.435 211.72 122.749 211.647 122.037 211.647V213.983C122.587 213.983 123.096 214.04 123.569 214.149L124.094 211.872ZM122.037 211.647C120.74 211.647 119.536 211.851 118.443 212.283L119.302 214.456C120.08 214.148 120.985 213.983 122.037 213.983V211.647ZM118.435 212.286C117.37 212.718 116.444 213.345 115.672 214.169L117.376 215.767C117.909 215.198 118.549 214.761 119.311 214.452L118.435 212.286ZM115.685 214.155C114.913 214.953 114.329 215.898 113.929 216.974L116.119 217.789C116.414 216.995 116.83 216.331 117.364 215.78L115.685 214.155ZM113.921 216.997C113.546 218.072 113.366 219.237 113.366 220.481H115.703C115.703 219.462 115.849 218.562 116.127 217.766L113.921 216.997ZM113.366 220.481C113.366 221.912 113.565 223.211 113.996 224.351L116.182 223.526C115.873 222.709 115.703 221.702 115.703 220.481H113.366ZM114.004 224.372C114.449 225.485 115.069 226.444 115.875 227.224L117.5 225.545C116.958 225.021 116.511 224.349 116.174 223.505L114.004 224.372ZM115.875 227.224C116.673 227.997 117.611 228.573 118.676 228.953L119.462 226.753C118.7 226.481 118.05 226.078 117.5 225.545L115.875 227.224ZM118.699 228.961C119.744 229.309 120.859 229.478 122.037 229.478V227.141C121.084 227.141 120.22 227.005 119.438 226.745L118.699 228.961ZM122.037 229.478C122.697 229.478 123.355 229.417 124.011 229.295L123.586 226.998C123.068 227.094 122.552 227.141 122.037 227.141V229.478ZM124.011 229.295C124.715 229.165 125.39 228.93 126.034 228.596L124.956 226.523C124.512 226.754 124.056 226.911 123.586 226.998L124.011 229.295ZM125.997 228.614C126.276 228.481 126.487 228.461 126.659 228.486L127.006 226.176C126.307 226.071 125.627 226.203 124.993 226.505L125.997 228.614ZM126.667 228.487C126.8 228.507 126.918 228.561 127.052 228.733L128.896 227.299C128.421 226.688 127.778 226.286 126.998 226.174L126.667 228.487ZM127.062 228.746C127.315 229.062 127.331 229.274 127.29 229.459L129.571 229.966C129.791 228.976 129.503 228.057 128.886 227.286L127.062 228.746ZM127.284 229.492C127.248 229.674 127.175 229.789 126.947 229.899L127.958 232.005C128.817 231.593 129.396 230.882 129.578 229.933L127.284 229.492ZM126.93 229.907C126.418 230.163 125.886 230.38 125.333 230.557L126.048 232.782C126.713 232.568 127.355 232.306 127.975 231.997L126.93 229.907ZM125.359 230.549C124.826 230.707 124.284 230.826 123.731 230.904L124.062 233.217C124.727 233.122 125.38 232.98 126.022 232.79L125.359 230.549ZM123.691 230.911C123.151 231.007 122.6 231.056 122.037 231.056V233.392C122.735 233.392 123.424 233.332 124.102 233.211L123.691 230.911ZM122.037 231.056C120.598 231.056 119.241 230.826 117.958 230.372L117.178 232.575C118.723 233.122 120.344 233.392 122.037 233.392V231.056ZM117.963 230.374C116.71 229.924 115.588 229.261 114.59 228.38L113.044 230.132C114.264 231.208 115.642 232.023 117.173 232.573L117.963 230.374ZM114.598 228.387C113.646 227.53 112.881 226.454 112.312 225.138L110.168 226.066C110.859 227.664 111.813 229.024 113.035 230.124L114.598 228.387ZM112.314 225.144C111.757 223.836 111.462 222.29 111.462 220.481H109.125C109.125 222.542 109.461 224.41 110.165 226.06L112.314 225.144ZM111.462 220.481C111.462 218.94 111.721 217.545 112.226 216.282L110.057 215.415C109.431 216.979 109.125 218.672 109.125 220.481H111.462ZM112.221 216.297C112.75 215.021 113.479 213.937 114.406 213.03L112.771 211.36C111.61 212.498 110.707 213.849 110.063 215.4L112.221 216.297ZM114.406 213.03C115.356 212.099 116.473 211.378 117.768 210.868L116.912 208.694C115.336 209.315 113.952 210.204 112.771 211.36L114.406 213.03ZM117.782 210.862C119.064 210.338 120.478 210.069 122.037 210.069V207.732C120.203 207.732 118.486 208.05 116.897 208.7L117.782 210.862ZM122.037 210.069C122.905 210.069 123.749 210.167 124.572 210.363L125.113 208.09C124.109 207.851 123.083 207.732 122.037 207.732V210.069ZM124.572 210.363C125.397 210.56 126.168 210.843 126.886 211.212L127.953 209.133C127.062 208.676 126.114 208.328 125.113 208.09L124.572 210.363ZM139.912 209.651L139.086 210.477L139.109 210.5L139.133 210.521L139.912 209.651ZM139.912 231.343L140.691 232.214L140.703 232.203L140.715 232.191L139.912 231.343ZM137.008 231.343L136.159 232.145L136.171 232.158L136.182 232.169L137.008 231.343ZM137.041 209.651L137.843 210.5L137.855 210.488L137.867 210.477L137.041 209.651ZM154.461 209.651L153.611 210.453L153.623 210.465L153.634 210.477L154.461 209.651ZM154.428 231.343L155.254 232.169L155.254 232.169L154.428 231.343ZM151.525 231.343L150.699 232.169L150.722 232.192L150.746 232.214L151.525 231.343ZM151.557 209.651L152.336 210.521L152.349 210.51L152.361 210.499L151.557 209.651ZM138.444 218.556V217.388H137.276V218.556H138.444ZM152.993 218.556H154.161V217.388H152.993V218.556ZM152.993 222.307V223.476H154.161V222.307H152.993ZM138.444 222.307H137.276V223.476H138.444V222.307ZM138.542 210.232C138.733 210.232 138.899 210.29 139.086 210.477L140.738 208.825C140.142 208.229 139.394 207.895 138.542 207.895V210.232ZM139.133 210.521C139.293 210.664 139.363 210.813 139.363 211.053H141.7C141.7 210.163 141.357 209.376 140.691 208.78L139.133 210.521ZM139.363 211.053V229.908H141.7V211.053H139.363ZM139.363 229.908C139.363 230.15 139.29 230.323 139.108 230.495L140.715 232.191C141.359 231.581 141.7 230.797 141.7 229.908H139.363ZM139.133 230.473C138.929 230.655 138.726 230.73 138.476 230.73V233.066C139.314 233.066 140.068 232.771 140.691 232.214L139.133 230.473ZM138.476 230.73C138.122 230.73 137.949 230.632 137.835 230.517L136.182 232.169C136.807 232.794 137.613 233.066 138.476 233.066V230.73ZM137.858 230.541C137.704 230.378 137.622 230.192 137.622 229.908H135.286C135.286 230.755 135.574 231.525 136.159 232.145L137.858 230.541ZM137.622 229.908V211.053H135.286V229.908H137.622ZM137.622 211.053C137.622 210.791 137.698 210.637 137.843 210.5L136.239 208.801C135.601 209.404 135.286 210.185 135.286 211.053H137.622ZM137.867 210.477C138.017 210.327 138.209 210.232 138.542 210.232V207.895C137.657 207.895 136.848 208.191 136.215 208.825L137.867 210.477ZM152.993 210.232C153.326 210.232 153.492 210.327 153.611 210.453L155.31 208.848C154.69 208.192 153.877 207.895 152.993 207.895V210.232ZM153.634 210.477C153.766 210.608 153.847 210.77 153.847 211.053H156.183C156.183 210.206 155.894 209.432 155.287 208.825L153.634 210.477ZM153.847 211.053V229.908H156.183V211.053H153.847ZM153.847 229.908C153.847 230.171 153.769 230.35 153.602 230.517L155.254 232.169C155.87 231.554 156.183 230.776 156.183 229.908H153.847ZM153.602 230.517C153.495 230.624 153.316 230.73 152.927 230.73V233.066C153.8 233.066 154.621 232.802 155.254 232.169L153.602 230.517ZM152.927 230.73C152.712 230.73 152.517 230.664 152.304 230.473L150.746 232.214C151.359 232.762 152.099 233.066 152.927 233.066V230.73ZM152.351 230.517C152.184 230.35 152.106 230.171 152.106 229.908H149.769C149.769 230.776 150.083 231.554 150.699 232.169L152.351 230.517ZM152.106 229.908V211.053H149.769V229.908H152.106ZM152.106 211.053C152.106 210.813 152.176 210.664 152.336 210.521L150.778 208.78C150.112 209.376 149.769 210.163 149.769 211.053H152.106ZM152.361 210.499C152.568 210.302 152.763 210.232 152.993 210.232V207.895C152.135 207.895 151.373 208.216 150.754 208.802L152.361 210.499ZM138.444 219.724H152.993V217.388H138.444V219.724ZM151.824 218.556V222.307H154.161V218.556H151.824ZM152.993 221.139H138.444V223.476H152.993V221.139ZM139.612 222.307V218.556H137.276V222.307H139.612ZM184.407 231.343L183.581 232.169L183.593 232.181L183.605 232.193L184.407 231.343ZM183.82 210.988V209.82H182.652V210.988H183.82ZM188.061 210.988H189.229V209.82H188.061V210.988ZM187.441 231.343L188.243 232.193L188.244 232.191L187.441 231.343ZM177.263 212.293L176.462 213.144L176.475 213.155L176.487 213.166L177.263 212.293ZM177.263 209.585L178.036 210.461L178.039 210.458L177.263 209.585ZM194.585 209.585L193.784 210.436L193.796 210.447L193.809 210.458L194.585 209.585ZM194.585 212.325L195.358 213.201L195.361 213.199L194.585 212.325ZM185.908 230.73C185.555 230.73 185.355 230.632 185.209 230.494L183.605 232.193C184.242 232.794 185.043 233.066 185.908 233.066V230.73ZM185.233 230.517C185.066 230.35 184.988 230.171 184.988 229.908H182.652C182.652 230.776 182.965 231.554 183.581 232.169L185.233 230.517ZM184.988 229.908V210.988H182.652V229.908H184.988ZM183.82 212.156H188.061V209.82H183.82V212.156ZM186.892 210.988V229.908H189.229V210.988H186.892ZM186.892 229.908C186.892 230.15 186.819 230.323 186.637 230.495L188.244 232.191C188.889 231.581 189.229 230.797 189.229 229.908H186.892ZM186.639 230.494C186.501 230.624 186.295 230.73 185.908 230.73V233.066C186.782 233.066 187.598 232.802 188.243 232.193L186.639 230.494ZM178.698 211.647C178.394 211.647 178.199 211.562 178.039 211.42L176.487 213.166C177.11 213.72 177.872 213.983 178.698 213.983V211.647ZM178.064 211.442C177.957 211.341 177.877 211.207 177.877 210.923H175.54C175.54 211.77 175.83 212.549 176.462 213.144L178.064 211.442ZM177.877 210.923C177.877 210.638 177.956 210.532 178.036 210.461L176.49 208.709C175.831 209.291 175.54 210.077 175.54 210.923H177.877ZM178.039 210.458C178.199 210.316 178.394 210.232 178.698 210.232V207.895C177.872 207.895 177.11 208.158 176.487 208.712L178.039 210.458ZM178.698 210.232H193.182V207.895H178.698V210.232ZM193.182 210.232C193.487 210.232 193.656 210.316 193.784 210.436L195.385 208.735C194.774 208.159 194.008 207.895 193.182 207.895V210.232ZM193.809 210.458C193.929 210.566 194.004 210.694 194.004 210.955H196.34C196.34 210.086 196.023 209.301 195.361 208.712L193.809 210.458ZM194.004 210.955C194.004 211.217 193.929 211.345 193.809 211.452L195.361 213.199C196.023 212.61 196.34 211.825 196.34 210.955H194.004ZM193.812 211.449C193.687 211.56 193.507 211.647 193.182 211.647V213.983C193.988 213.983 194.743 213.743 195.358 213.201L193.812 211.449ZM193.182 211.647H178.698V213.983H193.182V211.647ZM206.621 209.651L205.795 210.477L205.818 210.5L205.842 210.521L206.621 209.651ZM206.621 231.343L207.4 232.214L207.412 232.203L207.424 232.191L206.621 231.343ZM203.718 231.343L202.868 232.145L202.88 232.158L202.892 232.169L203.718 231.343ZM203.75 209.651L204.553 210.5L204.565 210.488L204.576 210.477L203.75 209.651ZM221.17 209.651L220.321 210.453L220.332 210.465L220.344 210.477L221.17 209.651ZM221.137 231.343L221.963 232.169L221.963 232.169L221.137 231.343ZM218.234 231.343L217.408 232.169L217.431 232.192L217.455 232.214L218.234 231.343ZM218.267 209.651L219.046 210.521L219.058 210.51L219.07 210.499L218.267 209.651ZM205.153 218.556V217.388H203.985V218.556H205.153ZM219.702 218.556H220.87V217.388H219.702V218.556ZM219.702 222.307V223.476H220.87V222.307H219.702ZM205.153 222.307H203.985V223.476H205.153V222.307ZM205.251 210.232C205.443 210.232 205.608 210.29 205.795 210.477L207.447 208.825C206.851 208.229 206.103 207.895 205.251 207.895V210.232ZM205.842 210.521C206.002 210.664 206.073 210.813 206.073 211.053H208.409C208.409 210.163 208.066 209.376 207.4 208.78L205.842 210.521ZM206.073 211.053V229.908H208.409V211.053H206.073ZM206.073 229.908C206.073 230.15 206 230.323 205.818 230.495L207.424 232.191C208.069 231.581 208.409 230.797 208.409 229.908H206.073ZM205.842 230.473C205.638 230.655 205.436 230.73 205.186 230.73V233.066C206.023 233.066 206.777 232.771 207.4 232.214L205.842 230.473ZM205.186 230.73C204.831 230.73 204.658 230.632 204.544 230.517L202.892 232.169C203.517 232.794 204.322 233.066 205.186 233.066V230.73ZM204.567 230.541C204.413 230.378 204.331 230.192 204.331 229.908H201.995C201.995 230.755 202.283 231.525 202.868 232.145L204.567 230.541ZM204.331 229.908V211.053H201.995V229.908H204.331ZM204.331 211.053C204.331 210.791 204.408 210.637 204.553 210.5L202.948 208.801C202.31 209.404 201.995 210.185 201.995 211.053H204.331ZM204.576 210.477C204.726 210.327 204.918 210.232 205.251 210.232V207.895C204.366 207.895 203.558 208.191 202.924 208.825L204.576 210.477ZM219.702 210.232C220.036 210.232 220.201 210.327 220.321 210.453L222.019 208.848C221.399 208.192 220.586 207.895 219.702 207.895V210.232ZM220.344 210.477C220.475 210.608 220.556 210.77 220.556 211.053H222.893C222.893 210.206 222.604 209.432 221.996 208.825L220.344 210.477ZM220.556 211.053V229.908H222.893V211.053H220.556ZM220.556 229.908C220.556 230.171 220.478 230.35 220.311 230.517L221.963 232.169C222.579 231.554 222.893 230.776 222.893 229.908H220.556ZM220.311 230.517C220.205 230.624 220.026 230.73 219.637 230.73V233.066C220.509 233.066 221.331 232.802 221.963 232.169L220.311 230.517ZM219.637 230.73C219.421 230.73 219.226 230.664 219.013 230.473L217.455 232.214C218.068 232.762 218.808 233.066 219.637 233.066V230.73ZM219.06 230.517C218.893 230.35 218.815 230.171 218.815 229.908H216.479C216.479 230.776 216.792 231.554 217.408 232.169L219.06 230.517ZM218.815 229.908V211.053H216.479V229.908H218.815ZM218.815 211.053C218.815 210.813 218.886 210.664 219.046 210.521L217.488 208.78C216.821 209.376 216.479 210.163 216.479 211.053H218.815ZM219.07 210.499C219.277 210.302 219.472 210.232 219.702 210.232V207.895C218.844 207.895 218.082 208.216 217.463 208.802L219.07 210.499ZM205.153 219.724H219.702V217.388H205.153V219.724ZM218.534 218.556V222.307H220.87V218.556H218.534ZM219.702 221.139H205.153V223.476H219.702V221.139ZM206.321 222.307V218.556H203.985V222.307H206.321ZM234.634 231.343L235.413 232.214L235.425 232.203L235.437 232.191L234.634 231.343ZM231.731 231.343L230.881 232.145L230.893 232.158L230.905 232.169L231.731 231.343ZM231.763 209.651L232.566 210.5L232.578 210.488L232.589 210.477L231.763 209.651ZM234.634 209.651L233.808 210.477L233.831 210.5L233.855 210.521L234.634 209.651ZM234.086 229.908C234.086 230.15 234.013 230.323 233.831 230.495L235.437 232.191C236.082 231.581 236.422 230.797 236.422 229.908H234.086ZM233.855 230.473C233.651 230.655 233.449 230.73 233.199 230.73V233.066C234.036 233.066 234.79 232.771 235.413 232.214L233.855 230.473ZM233.199 230.73C232.845 230.73 232.671 230.632 232.557 230.517L230.905 232.169C231.53 232.794 232.335 233.066 233.199 233.066V230.73ZM232.58 230.541C232.426 230.378 232.344 230.192 232.344 229.908H230.008C230.008 230.755 230.296 231.525 230.881 232.145L232.58 230.541ZM232.344 229.908V211.053H230.008V229.908H232.344ZM232.344 211.053C232.344 210.791 232.421 210.637 232.566 210.5L230.961 208.801C230.323 209.404 230.008 210.185 230.008 211.053H232.344ZM232.589 210.477C232.739 210.327 232.931 210.232 233.264 210.232V207.895C232.379 207.895 231.571 208.191 230.937 208.825L232.589 210.477ZM233.264 210.232C233.456 210.232 233.621 210.29 233.808 210.477L235.46 208.825C234.864 208.229 234.116 207.895 233.264 207.895V210.232ZM233.855 210.521C234.015 210.664 234.086 210.813 234.086 211.053H236.422C236.422 210.163 236.079 209.376 235.413 208.78L233.855 210.521ZM234.086 211.053V229.908H236.422V211.053H234.086ZM247.956 231.67L247.599 232.782L247.608 232.785L247.617 232.787L247.956 231.67ZM244.466 229.647L245.229 228.762L245.22 228.755L244.466 229.647ZM244.107 226.613L243.257 225.811L243.256 225.813L244.107 226.613ZM246.586 226.418L247.324 225.512L247.316 225.505L246.586 226.418ZM249.032 227.951L248.569 229.023L248.579 229.027L249.032 227.951ZM254.284 228.114L254.675 229.215L254.691 229.209L254.706 229.203L254.284 228.114ZM255.915 227.103L256.742 227.929L256.752 227.918L256.762 227.907L255.915 227.103ZM255.948 223.971L256.835 223.211L256.835 223.211L255.948 223.971ZM254.154 222.829L253.715 223.912L253.728 223.917L253.741 223.922L254.154 222.829ZM251.088 222.079L250.916 223.235L250.925 223.236L251.088 222.079ZM247.989 221.296L247.541 222.375L247.552 222.38L247.564 222.384L247.989 221.296ZM245.738 219.926L244.927 220.768L244.943 220.783L244.96 220.798L245.738 219.926ZM244.4 217.969L243.316 218.403L243.32 218.414L244.4 217.969ZM245.02 211.804L244.081 211.109L244.076 211.116L244.071 211.123L245.02 211.804ZM247.989 209.52L248.442 210.597L248.442 210.597L247.989 209.52ZM256.013 209.39L255.614 210.488L255.626 210.492L255.638 210.496L256.013 209.39ZM258.982 210.988L258.222 211.875L258.238 211.89L258.256 211.903L258.982 210.988ZM259.373 214.022L260.223 214.824L260.223 214.824L259.373 214.022ZM257.188 214.315L256.418 215.195L256.451 215.224L256.487 215.25L257.188 214.315ZM255.785 213.467L255.278 214.52L255.294 214.528L255.311 214.535L255.785 213.467ZM253.926 212.782L253.59 213.901L253.607 213.906L253.625 213.911L253.926 212.782ZM249.718 212.847L249.315 211.751L249.303 211.755L249.718 212.847ZM248.347 216.892L247.457 217.649L247.478 217.673L247.499 217.696L248.347 216.892ZM250.011 217.904L249.612 219.002L249.627 219.007L249.642 219.012L250.011 217.904ZM252.588 218.556L252.364 219.703L252.377 219.705L252.588 218.556ZM256.013 219.404L255.644 220.512L255.651 220.515L256.013 219.404ZM258.492 220.676L257.763 221.589L257.772 221.596L257.782 221.603L258.492 220.676ZM259.96 222.601L258.882 223.05L258.887 223.061L259.96 222.601ZM259.275 229.06L258.348 228.35L258.348 228.35L259.275 229.06ZM256.176 231.409L255.721 230.333L255.714 230.336L256.176 231.409ZM252.066 231.056C250.637 231.056 249.384 230.882 248.295 230.552L247.617 232.787C248.964 233.196 250.451 233.392 252.066 233.392V231.056ZM248.313 230.557C247.265 230.22 246.236 229.632 245.229 228.763L243.702 230.532C244.913 231.576 246.211 232.336 247.599 232.782L248.313 230.557ZM245.22 228.755C245.048 228.609 244.934 228.46 244.858 228.309L242.768 229.354C242.997 229.812 243.318 230.207 243.711 230.539L245.22 228.755ZM244.858 228.309C244.777 228.147 244.753 228.021 244.753 227.918H242.417C242.417 228.424 242.545 228.907 242.768 229.354L244.858 228.309ZM244.753 227.918C244.753 227.721 244.81 227.571 244.957 227.414L243.256 225.813C242.708 226.395 242.417 227.115 242.417 227.918H244.753ZM244.956 227.415C245.103 227.26 245.251 227.194 245.477 227.194V224.858C244.615 224.858 243.85 225.184 243.257 225.811L244.956 227.415ZM245.477 227.194C245.622 227.194 245.735 227.233 245.856 227.33L247.316 225.505C246.785 225.081 246.158 224.858 245.477 224.858V227.194ZM245.847 227.323C246.74 228.051 247.647 228.624 248.569 229.023L249.496 226.879C248.809 226.581 248.085 226.133 247.324 225.512L245.847 227.323ZM248.579 229.027C249.588 229.452 250.764 229.641 252.066 229.641V227.304C250.977 227.304 250.129 227.145 249.486 226.874L248.579 229.027ZM252.066 229.641C252.987 229.641 253.861 229.504 254.675 229.215L253.894 227.013C253.36 227.202 252.754 227.304 252.066 227.304V229.641ZM254.706 229.203C255.497 228.897 256.189 228.481 256.742 227.929L255.089 226.277C254.815 226.551 254.42 226.809 253.863 227.024L254.706 229.203ZM256.762 227.907C257.359 227.28 257.703 226.51 257.703 225.635H255.367C255.367 225.847 255.299 226.056 255.068 226.298L256.762 227.907ZM257.703 225.635C257.703 224.729 257.424 223.898 256.835 223.211L255.061 224.731C255.255 224.958 255.367 225.236 255.367 225.635H257.703ZM256.835 223.211C256.273 222.555 255.481 222.082 254.567 221.737L253.741 223.922C254.436 224.185 254.84 224.474 255.061 224.731L256.835 223.211ZM254.593 221.747C253.67 221.373 252.547 221.104 251.25 220.922L250.925 223.236C252.108 223.402 253.029 223.634 253.715 223.912L254.593 221.747ZM251.259 220.923C250.151 220.759 249.207 220.517 248.413 220.208L247.564 222.384C248.554 222.771 249.675 223.051 250.916 223.235L251.259 220.923ZM248.436 220.217C247.644 219.889 247.011 219.497 246.516 219.055L244.96 220.798C245.682 221.443 246.55 221.964 247.541 222.375L248.436 220.217ZM246.548 219.085C246.075 218.629 245.722 218.111 245.481 217.524L243.32 218.414C243.687 219.305 244.226 220.092 244.927 220.768L246.548 219.085ZM245.485 217.535C245.243 216.93 245.112 216.232 245.112 215.424H242.775C242.775 216.487 242.949 217.486 243.316 218.403L245.485 217.535ZM245.112 215.424C245.112 214.218 245.415 213.258 245.969 212.485L244.071 211.123C243.19 212.35 242.775 213.804 242.775 215.424H245.112ZM245.96 212.498C246.564 211.68 247.38 211.044 248.442 210.597L247.535 208.443C246.119 209.04 244.955 209.926 244.081 211.109L245.96 212.498ZM248.442 210.597C249.522 210.142 250.736 209.905 252.099 209.905V207.569C250.461 207.569 248.934 207.854 247.535 208.443L248.442 210.597ZM252.099 209.905C253.391 209.905 254.559 210.104 255.614 210.488L256.413 208.292C255.075 207.805 253.634 207.569 252.099 207.569V209.905ZM255.638 210.496C256.753 210.874 257.601 211.343 258.222 211.875L259.742 210.101C258.841 209.328 257.709 208.731 256.389 208.283L255.638 210.496ZM258.256 211.903C258.679 212.239 258.76 212.504 258.76 212.717H261.096C261.096 211.625 260.546 210.737 259.708 210.073L258.256 211.903ZM258.76 212.717C258.76 212.859 258.717 213.016 258.524 213.22L260.223 214.824C260.769 214.245 261.096 213.532 261.096 212.717H258.76ZM258.524 213.22C258.356 213.397 258.221 213.441 258.068 213.441V215.777C258.916 215.777 259.651 215.429 260.223 214.824L258.524 213.22ZM258.068 213.441C257.995 213.441 257.947 213.425 257.889 213.381L256.487 215.25C256.95 215.597 257.489 215.777 258.068 215.777V213.441ZM257.957 213.436C257.494 213.031 256.915 212.691 256.259 212.4L255.311 214.535C255.829 214.765 256.186 214.991 256.418 215.195L257.957 213.436ZM256.292 212.415C255.636 212.099 254.947 211.846 254.227 211.653L253.625 213.911C254.209 214.067 254.759 214.27 255.278 214.52L256.292 212.415ZM254.261 211.663C253.521 211.441 252.798 211.32 252.099 211.32V213.657C252.53 213.657 253.025 213.732 253.59 213.901L254.261 211.663ZM252.099 211.32C251.071 211.32 250.133 211.451 249.315 211.751L250.12 213.944C250.607 213.765 251.256 213.657 252.099 213.657V211.32ZM249.303 211.755C248.529 212.049 247.855 212.482 247.365 213.102L249.199 214.55C249.362 214.343 249.644 214.125 250.132 213.94L249.303 211.755ZM247.365 213.102C246.871 213.729 246.625 214.464 246.625 215.261H248.961C248.961 214.971 249.041 214.75 249.199 214.55L247.365 213.102ZM246.625 215.261C246.625 216.149 246.883 216.973 247.457 217.649L249.238 216.136C249.073 215.942 248.961 215.679 248.961 215.261H246.625ZM247.499 217.696C248.051 218.278 248.779 218.699 249.612 219.002L250.41 216.806C249.808 216.587 249.427 216.333 249.196 216.089L247.499 217.696ZM249.642 219.012C250.42 219.271 251.33 219.5 252.364 219.703L252.812 217.41C251.846 217.22 251.038 217.014 250.381 216.795L249.642 219.012ZM252.377 219.705C253.643 219.937 254.729 220.208 255.644 220.512L256.383 218.296C255.34 217.948 254.143 217.653 252.799 217.407L252.377 219.705ZM255.651 220.515C256.551 220.808 257.244 221.174 257.763 221.589L259.222 219.764C258.436 219.135 257.476 218.652 256.375 218.293L255.651 220.515ZM257.782 221.603C258.267 221.975 258.632 222.45 258.882 223.05L261.039 222.152C260.637 221.186 260.023 220.378 259.203 219.749L257.782 221.603ZM258.887 223.061C259.133 223.637 259.281 224.405 259.281 225.406H261.618C261.618 224.19 261.44 223.088 261.034 222.141L258.887 223.061ZM259.281 225.406C259.281 226.59 258.959 227.551 258.348 228.35L260.203 229.77C261.157 228.524 261.618 227.05 261.618 225.406H259.281ZM258.348 228.35C257.698 229.198 256.833 229.861 255.721 230.333L256.632 232.484C258.086 231.868 259.287 230.966 260.203 229.77L258.348 228.35ZM255.714 230.336C254.61 230.812 253.398 231.056 252.066 231.056V233.392C253.692 233.392 255.221 233.093 256.639 232.481L255.714 230.336Z" fill="black"/>
</mask>
<g mask="url(#mask2_37_2)">
<path d="M310.891 213.756C310.891 304.722 237.148 378.466 146.181 378.466C55.214 378.466 -18.5292 304.722 -18.5292 213.756C-18.5292 122.789 55.214 49.0456 146.181 49.0456C237.148 49.0456 310.891 122.789 310.891 213.756Z" fill="url(#paint4_angular_37_2)"/>
<path d="M54.3749 208.923C54.8751 208.923 55.3535 209.119 55.8102 209.51C56.2669 209.88 56.4952 210.391 56.4952 211.044C56.4952 211.239 56.4626 211.457 56.3974 211.696L49.9711 230.616C49.8406 231.008 49.6014 231.312 49.2534 231.529C48.9272 231.725 48.5793 231.834 48.2096 231.856C47.8399 231.856 47.4702 231.747 47.1005 231.529C46.7525 231.312 46.4807 230.997 46.285 230.583L41.4571 219.623L41.7507 219.819L36.9881 230.583C36.7923 230.997 36.5096 231.312 36.1399 231.529C35.792 231.747 35.4331 231.856 35.0634 231.856C34.7155 231.834 34.3675 231.725 34.0196 231.529C33.6716 231.312 33.4324 231.008 33.3019 230.616L26.8757 211.696C26.8104 211.457 26.7778 211.239 26.7778 211.044C26.7778 210.391 27.0061 209.88 27.4628 209.51C27.9413 209.119 28.4306 208.923 28.9308 208.923C29.344 208.923 29.7245 209.032 30.0725 209.25C30.4422 209.467 30.6923 209.782 30.8228 210.196L36.0094 225.919L35.2918 225.886L39.9239 214.762C40.0979 214.371 40.348 214.067 40.6742 213.849C41.0004 213.61 41.3701 213.501 41.7833 213.523C42.1965 213.501 42.5662 213.61 42.8924 213.849C43.2186 214.067 43.4578 214.371 43.6101 214.762L47.8508 225.397L47.3288 225.723L52.4503 210.196C52.5808 209.782 52.8308 209.467 53.2005 209.25C53.5703 209.032 53.9617 208.923 54.3749 208.923ZM71.6932 214.143L64.6471 230.714C64.4949 231.127 64.2556 231.453 63.9294 231.693C63.625 231.91 63.2879 232.019 62.9182 232.019C62.331 232.019 61.8961 231.856 61.6134 231.529C61.3307 231.203 61.1893 230.801 61.1893 230.322C61.1893 230.127 61.2219 229.92 61.2872 229.703L69.4097 210.196C69.5837 209.761 69.8447 209.424 70.1926 209.184C70.5623 208.945 70.9538 208.847 71.367 208.891C71.7584 208.891 72.1172 209.01 72.4434 209.25C72.7914 209.467 73.0415 209.782 73.1937 210.196L81.2184 229.311C81.3271 229.594 81.3815 229.855 81.3815 230.094C81.3815 230.681 81.1858 231.149 80.7943 231.497C80.4246 231.845 80.0114 232.019 79.5548 232.019C79.1633 232.019 78.8045 231.899 78.4783 231.66C78.1738 231.421 77.9346 231.095 77.7606 230.681L70.7472 214.338L71.6932 214.143ZM65.6583 226.734L67.4525 222.983H76.2601L76.8799 226.734H65.6583ZM94.8169 231.856C94.208 231.856 93.7078 231.671 93.3164 231.301C92.9249 230.91 92.7292 230.431 92.7292 229.866V210.946H96.9699V229.866C96.9699 230.431 96.7633 230.91 96.3501 231.301C95.9586 231.671 95.4476 231.856 94.8169 231.856ZM87.6077 212.773C87.0423 212.773 86.5639 212.599 86.1724 212.251C85.8027 211.903 85.6179 211.446 85.6179 210.881C85.6179 210.315 85.8027 209.869 86.1724 209.543C86.5639 209.195 87.0423 209.021 87.6077 209.021H102.091C102.657 209.021 103.124 209.195 103.494 209.543C103.885 209.891 104.081 210.348 104.081 210.913C104.081 211.479 103.885 211.935 103.494 212.283C103.124 212.609 102.657 212.773 102.091 212.773H87.6077ZM127.419 210.13C127.985 210.413 128.311 210.859 128.398 211.468C128.507 212.077 128.355 212.631 127.941 213.131C127.659 213.523 127.289 213.74 126.832 213.784C126.397 213.827 125.952 213.74 125.495 213.523C124.973 213.284 124.418 213.099 123.831 212.968C123.266 212.838 122.668 212.773 122.037 212.773C120.863 212.773 119.808 212.957 118.873 213.327C117.959 213.697 117.177 214.23 116.524 214.926C115.872 215.6 115.372 216.404 115.024 217.339C114.697 218.275 114.534 219.308 114.534 220.438C114.534 221.765 114.719 222.918 115.089 223.896C115.48 224.875 116.013 225.69 116.687 226.343C117.361 226.995 118.155 227.484 119.069 227.811C119.982 228.115 120.971 228.267 122.037 228.267C122.624 228.267 123.211 228.213 123.799 228.104C124.386 227.996 124.951 227.8 125.495 227.517C125.952 227.3 126.397 227.224 126.832 227.289C127.289 227.354 127.67 227.582 127.974 227.974C128.409 228.517 128.561 229.083 128.431 229.67C128.322 230.236 127.996 230.649 127.452 230.91C126.887 231.192 126.3 231.432 125.691 231.627C125.103 231.801 124.505 231.932 123.896 232.019C123.288 232.128 122.668 232.182 122.037 232.182C120.471 232.182 118.982 231.932 117.568 231.432C116.176 230.931 114.926 230.192 113.817 229.213C112.729 228.235 111.87 227.017 111.24 225.56C110.609 224.081 110.294 222.374 110.294 220.438C110.294 218.764 110.576 217.22 111.142 215.806C111.729 214.393 112.544 213.175 113.588 212.153C114.654 211.109 115.904 210.304 117.34 209.739C118.775 209.152 120.341 208.858 122.037 208.858C122.994 208.858 123.929 208.967 124.842 209.184C125.756 209.402 126.615 209.717 127.419 210.13ZM138.542 209.021C139.064 209.021 139.52 209.217 139.912 209.608C140.325 209.978 140.531 210.446 140.531 211.011V229.866C140.531 230.431 140.325 230.91 139.912 231.301C139.498 231.671 139.02 231.856 138.476 231.856C137.867 231.856 137.378 231.671 137.008 231.301C136.639 230.91 136.454 230.431 136.454 229.866V211.011C136.454 210.446 136.65 209.978 137.041 209.608C137.433 209.217 137.933 209.021 138.542 209.021ZM152.993 209.021C153.602 209.021 154.091 209.217 154.461 209.608C154.83 209.978 155.015 210.446 155.015 211.011V229.866C155.015 230.431 154.819 230.91 154.428 231.301C154.058 231.671 153.558 231.856 152.927 231.856C152.405 231.856 151.938 231.671 151.525 231.301C151.133 230.91 150.937 230.431 150.937 229.866V211.011C150.937 210.446 151.144 209.978 151.557 209.608C151.97 209.217 152.449 209.021 152.993 209.021ZM138.444 218.514H152.993V222.265H138.444V218.514ZM185.908 231.856C185.299 231.856 184.799 231.671 184.407 231.301C184.016 230.91 183.82 230.431 183.82 229.866V210.946H188.061V229.866C188.061 230.431 187.854 230.91 187.441 231.301C187.049 231.671 186.538 231.856 185.908 231.856ZM178.698 212.773C178.133 212.773 177.655 212.599 177.263 212.251C176.893 211.903 176.709 211.446 176.709 210.881C176.709 210.315 176.893 209.869 177.263 209.543C177.655 209.195 178.133 209.021 178.698 209.021H193.182C193.747 209.021 194.215 209.195 194.585 209.543C194.976 209.891 195.172 210.348 195.172 210.913C195.172 211.479 194.976 211.935 194.585 212.283C194.215 212.609 193.747 212.773 193.182 212.773H178.698ZM205.251 209.021C205.773 209.021 206.23 209.217 206.621 209.608C207.034 209.978 207.241 210.446 207.241 211.011V229.866C207.241 230.431 207.034 230.91 206.621 231.301C206.208 231.671 205.729 231.856 205.186 231.856C204.577 231.856 204.087 231.671 203.718 231.301C203.348 230.91 203.163 230.431 203.163 229.866V211.011C203.163 210.446 203.359 209.978 203.75 209.608C204.142 209.217 204.642 209.021 205.251 209.021ZM219.702 209.021C220.311 209.021 220.8 209.217 221.17 209.608C221.54 209.978 221.724 210.446 221.724 211.011V229.866C221.724 230.431 221.529 230.91 221.137 231.301C220.768 231.671 220.267 231.856 219.637 231.856C219.115 231.856 218.647 231.671 218.234 231.301C217.843 230.91 217.647 230.431 217.647 229.866V211.011C217.647 210.446 217.853 209.978 218.267 209.608C218.68 209.217 219.158 209.021 219.702 209.021ZM205.153 218.514H219.702V222.265H205.153V218.514ZM235.254 229.866C235.254 230.431 235.047 230.91 234.634 231.301C234.221 231.671 233.742 231.856 233.199 231.856C232.59 231.856 232.1 231.671 231.731 231.301C231.361 230.91 231.176 230.431 231.176 229.866V211.011C231.176 210.446 231.372 209.978 231.763 209.608C232.155 209.217 232.655 209.021 233.264 209.021C233.786 209.021 234.243 209.217 234.634 209.608C235.047 209.978 235.254 210.446 235.254 211.011V229.866ZM252.066 232.182C250.544 232.182 249.174 231.997 247.956 231.627C246.738 231.236 245.575 230.562 244.466 229.605C244.183 229.366 243.965 229.094 243.813 228.789C243.661 228.485 243.585 228.18 243.585 227.876C243.585 227.376 243.759 226.941 244.107 226.571C244.476 226.18 244.933 225.984 245.477 225.984C245.89 225.984 246.26 226.114 246.586 226.375C247.412 227.05 248.228 227.561 249.032 227.909C249.859 228.257 250.87 228.43 252.066 228.43C252.871 228.43 253.61 228.311 254.284 228.072C254.959 227.811 255.502 227.474 255.915 227.06C256.329 226.625 256.535 226.136 256.535 225.592C256.535 224.94 256.34 224.386 255.948 223.929C255.557 223.472 254.959 223.092 254.154 222.787C253.349 222.461 252.327 222.211 251.088 222.037C249.913 221.863 248.88 221.602 247.989 221.254C247.097 220.884 246.347 220.428 245.738 219.884C245.151 219.318 244.705 218.666 244.4 217.927C244.096 217.165 243.944 216.317 243.944 215.382C243.944 213.969 244.302 212.762 245.02 211.761C245.76 210.761 246.749 210 247.989 209.478C249.228 208.956 250.598 208.695 252.099 208.695C253.512 208.695 254.817 208.912 256.013 209.347C257.231 209.761 258.221 210.293 258.982 210.946C259.612 211.446 259.928 212.022 259.928 212.675C259.928 213.153 259.743 213.588 259.373 213.98C259.004 214.371 258.569 214.567 258.068 214.567C257.742 214.567 257.449 214.469 257.188 214.273C256.84 213.969 256.372 213.686 255.785 213.425C255.198 213.142 254.578 212.914 253.926 212.74C253.273 212.544 252.664 212.446 252.099 212.446C251.164 212.446 250.37 212.566 249.718 212.805C249.087 213.044 248.608 213.371 248.282 213.784C247.956 214.197 247.793 214.675 247.793 215.219C247.793 215.872 247.978 216.415 248.347 216.85C248.739 217.263 249.293 217.6 250.011 217.861C250.729 218.101 251.588 218.318 252.588 218.514C253.893 218.753 255.035 219.036 256.013 219.362C257.014 219.688 257.84 220.112 258.492 220.634C259.145 221.134 259.634 221.776 259.96 222.559C260.287 223.32 260.45 224.255 260.45 225.364C260.45 226.778 260.058 227.996 259.275 229.018C258.492 230.04 257.459 230.823 256.176 231.366C254.915 231.91 253.545 232.182 252.066 232.182Z" fill="white"/>
<path d="M55.8102 209.51L55.2672 210.144L55.2761 210.152L55.2852 210.159L55.8102 209.51ZM56.3974 211.696L57.1875 211.964L57.1957 211.94L57.2024 211.916L56.3974 211.696ZM49.9711 230.616L49.181 230.348L49.1795 230.352L49.9711 230.616ZM49.2534 231.529L49.6828 232.245L49.6893 232.241L49.6957 232.237L49.2534 231.529ZM48.2096 231.856V232.69H48.2341L48.2586 232.689L48.2096 231.856ZM47.1005 231.529L46.6582 232.237L46.6677 232.243L46.6774 232.249L47.1005 231.529ZM46.285 230.583L45.5213 230.92L45.5259 230.93L45.5308 230.941L46.285 230.583ZM41.4571 219.623L41.92 218.929L39.5408 217.342L40.6934 219.959L41.4571 219.623ZM41.7507 219.819L42.5138 220.156L42.798 219.514L42.2136 219.124L41.7507 219.819ZM36.9881 230.583L37.7422 230.941L37.7468 230.931L37.7512 230.921L36.9881 230.583ZM36.1399 231.529L35.7168 230.81L35.7072 230.816L35.6977 230.822L36.1399 231.529ZM35.0634 231.856L35.0114 232.688L35.0374 232.69H35.0634V231.856ZM34.0196 231.529L33.5773 232.237L33.5937 232.247L33.6105 232.257L34.0196 231.529ZM33.3019 230.616L34.0936 230.352L34.092 230.348L33.3019 230.616ZM26.8757 211.696L26.0706 211.916L26.0773 211.94L26.0855 211.964L26.8757 211.696ZM27.4628 209.51L27.9879 210.159L27.9912 210.156L27.4628 209.51ZM30.0725 209.25L29.6302 209.957L29.6397 209.963L29.6494 209.969L30.0725 209.25ZM30.8228 210.196L30.027 210.447L30.0303 210.457L30.8228 210.196ZM36.0094 225.919L35.9716 226.752L37.1812 226.807L36.8019 225.657L36.0094 225.919ZM35.2918 225.886L34.5215 225.565L34.0633 226.666L35.2539 226.72L35.2918 225.886ZM39.9239 214.762L39.1614 214.424L39.1574 214.433L39.1536 214.442L39.9239 214.762ZM40.6742 213.849L41.1371 214.543L41.1526 214.533L41.1677 214.522L40.6742 213.849ZM41.7833 213.523L41.7395 214.356L41.7833 214.358L41.8272 214.356L41.7833 213.523ZM42.8924 213.849L42.3989 214.522L42.414 214.533L42.4295 214.543L42.8924 213.849ZM43.6101 214.762L42.8323 215.065L42.835 215.072L43.6101 214.762ZM47.8508 225.397L48.293 226.104L48.884 225.735L48.6259 225.088L47.8508 225.397ZM47.3288 225.723L46.5364 225.462L45.8131 227.654L47.7711 226.431L47.3288 225.723ZM52.4503 210.196L53.2428 210.457L53.246 210.447L52.4503 210.196ZM54.3749 209.758C54.6374 209.758 54.9297 209.855 55.2672 210.144L56.3533 208.877C55.7774 208.383 55.1128 208.089 54.3749 208.089V209.758ZM55.2852 210.159C55.5229 210.351 55.6608 210.612 55.6608 211.044H57.3297C57.3297 210.171 57.0109 209.409 56.3352 208.862L55.2852 210.159ZM55.6608 211.044C55.6608 211.149 55.643 211.291 55.5923 211.477L57.2024 211.916C57.2823 211.623 57.3297 211.33 57.3297 211.044H55.6608ZM55.6073 211.428L49.181 230.348L50.7612 230.884L57.1875 211.964L55.6073 211.428ZM49.1795 230.352C49.11 230.561 48.9936 230.708 48.8112 230.822L49.6957 232.237C50.2092 231.916 50.5713 231.454 50.7627 230.88L49.1795 230.352ZM48.8241 230.814C48.6101 230.942 48.3921 231.009 48.1606 231.023L48.2586 232.689C48.7664 232.659 49.2444 232.508 49.6828 232.245L48.8241 230.814ZM48.2096 231.021C48.0111 231.021 47.7858 230.964 47.5236 230.81L46.6774 232.249C47.1545 232.529 47.6687 232.69 48.2096 232.69V231.021ZM47.5427 230.822C47.3452 230.698 47.1746 230.512 47.0391 230.226L45.5308 230.941C45.7868 231.481 46.1598 231.926 46.6582 232.237L47.5427 230.822ZM47.0486 230.247L42.2208 219.287L40.6934 219.959L45.5213 230.92L47.0486 230.247ZM40.9942 220.317L41.2878 220.513L42.2136 219.124L41.92 218.929L40.9942 220.317ZM40.9876 219.481L36.225 230.246L37.7512 230.921L42.5138 220.156L40.9876 219.481ZM36.2339 230.226C36.1048 230.499 35.9327 230.683 35.7168 230.81L36.563 232.249C37.0865 231.941 37.4799 231.495 37.7422 230.941L36.2339 230.226ZM35.6977 230.822C35.4673 230.966 35.2599 231.021 35.0634 231.021V232.69C35.6064 232.69 36.1167 232.528 36.5822 232.237L35.6977 230.822ZM35.1155 231.023C34.91 231.01 34.683 230.945 34.4287 230.802L33.6105 232.257C34.0521 232.505 34.521 232.658 35.0114 232.688L35.1155 231.023ZM34.4618 230.822C34.2794 230.708 34.1631 230.561 34.0936 230.352L32.5103 230.88C32.7017 231.454 33.0639 231.916 33.5773 232.237L34.4618 230.822ZM34.092 230.348L27.6658 211.428L26.0855 211.964L32.5118 230.884L34.092 230.348ZM27.6807 211.477C27.63 211.291 27.6122 211.149 27.6122 211.044H25.9433C25.9433 211.33 25.9908 211.623 26.0706 211.916L27.6807 211.477ZM27.6122 211.044C27.6122 210.612 27.7502 210.351 27.9879 210.159L26.9378 208.862C26.2621 209.409 25.9433 210.171 25.9433 211.044H27.6122ZM27.9912 210.156C28.3568 209.857 28.6653 209.758 28.9308 209.758V208.089C28.1958 208.089 27.5257 208.381 26.9344 208.865L27.9912 210.156ZM28.9308 209.758C29.1887 209.758 29.4159 209.823 29.6302 209.957L30.5147 208.542C30.0332 208.241 29.4992 208.089 28.9308 208.089V209.758ZM29.6494 209.969C29.8393 210.08 29.958 210.228 30.027 210.447L31.6185 209.944C31.4266 209.337 31.045 208.854 30.4956 208.53L29.6494 209.969ZM30.0303 210.457L35.217 226.18L36.8019 225.657L31.6152 209.934L30.0303 210.457ZM36.0473 225.085L35.3297 225.052L35.2539 226.72L35.9716 226.752L36.0473 225.085ZM36.0621 226.207L40.6943 215.083L39.1536 214.442L34.5215 225.565L36.0621 226.207ZM40.6865 215.101C40.8024 214.84 40.9545 214.665 41.1371 214.543L40.2113 213.155C39.7415 213.468 39.3934 213.902 39.1614 214.424L40.6865 215.101ZM41.1677 214.522C41.3348 214.399 41.5137 214.344 41.7395 214.356L41.8272 212.69C41.2265 212.658 40.666 212.82 40.1807 213.176L41.1677 214.522ZM41.8272 214.356C42.0529 214.344 42.2318 214.399 42.3989 214.522L43.3859 213.176C42.9006 212.82 42.3401 212.658 41.7395 212.69L41.8272 214.356ZM42.4295 214.543C42.6026 214.659 42.7376 214.821 42.8324 215.065L44.3878 214.46C44.1781 213.921 43.8346 213.474 43.3553 213.155L42.4295 214.543ZM42.835 215.072L47.0757 225.706L48.6259 225.088L44.3852 214.453L42.835 215.072ZM47.4085 224.689L46.8866 225.015L47.7711 226.431L48.293 226.104L47.4085 224.689ZM48.1213 225.984L53.2427 210.457L51.6578 209.934L46.5364 225.462L48.1213 225.984ZM53.246 210.447C53.3151 210.228 53.4337 210.08 53.6236 209.969L52.7775 208.53C52.228 208.854 51.8464 209.337 51.6546 209.944L53.246 210.447ZM53.6236 209.969C53.8702 209.824 54.1163 209.758 54.3749 209.758V208.089C53.8071 208.089 53.2703 208.24 52.7775 208.53L53.6236 209.969ZM71.6932 214.143L72.4611 214.469L73.0847 213.003L71.5241 213.325L71.6932 214.143ZM64.6471 230.714L63.8792 230.387L63.8712 230.406L63.8641 230.425L64.6471 230.714ZM63.9294 231.693L64.4145 232.372L64.4229 232.365L63.9294 231.693ZM61.6134 231.529L62.244 230.983L62.244 230.983L61.6134 231.529ZM61.2872 229.703L60.5168 229.382L60.5003 229.422L60.4879 229.463L61.2872 229.703ZM69.4097 210.196L70.1801 210.516L70.1845 210.505L69.4097 210.196ZM70.1926 209.184L69.7393 208.484L69.7295 208.49L69.7199 208.497L70.1926 209.184ZM71.367 208.891L71.2796 209.721L71.3232 209.725H71.367V208.891ZM72.4434 209.25L71.95 209.922L71.9749 209.941L72.0012 209.957L72.4434 209.25ZM73.1937 210.196L72.4107 210.484L72.4171 210.501L72.4243 210.519L73.1937 210.196ZM81.2184 229.311L81.9972 229.012L81.9927 229L81.9878 228.988L81.2184 229.311ZM80.7943 231.497L80.24 230.873L80.2311 230.881L80.2224 230.889L80.7943 231.497ZM78.4783 231.66L77.9627 232.316L77.9736 232.325L77.9848 232.333L78.4783 231.66ZM77.7606 230.681L78.5297 230.357L78.5274 230.352L77.7606 230.681ZM70.7472 214.338L70.5781 213.521L69.5773 213.728L69.9803 214.667L70.7472 214.338ZM65.6583 226.734L64.9056 226.374L64.3343 227.569H65.6583V226.734ZM67.4525 222.983V222.148H66.9266L66.6997 222.623L67.4525 222.983ZM76.2601 222.983L77.0834 222.847L76.968 222.148H76.2601V222.983ZM76.8799 226.734V227.569H77.8635L77.7031 226.598L76.8799 226.734ZM70.9252 213.816L63.8792 230.387L65.415 231.04L72.4611 214.469L70.9252 213.816ZM63.8641 230.425C63.7633 230.699 63.6183 230.886 63.436 231.02L64.4229 232.365C64.893 232.021 65.2264 231.555 65.4301 231.002L63.8641 230.425ZM63.4444 231.014C63.2797 231.131 63.1118 231.184 62.9182 231.184V232.853C63.4641 232.853 63.9703 232.689 64.4145 232.372L63.4444 231.014ZM62.9182 231.184C62.4815 231.184 62.3167 231.067 62.244 230.983L60.9828 232.076C61.4754 232.644 62.1805 232.853 62.9182 232.853V231.184ZM62.244 230.983C62.1073 230.825 62.0238 230.624 62.0238 230.322H60.3549C60.3549 230.978 60.5541 231.581 60.9828 232.076L62.244 230.983ZM62.0238 230.322C62.0238 230.22 62.0409 230.094 62.0864 229.942L60.4879 229.463C60.403 229.746 60.3549 230.034 60.3549 230.322H62.0238ZM62.0575 230.023L70.1801 210.516L68.6394 209.875L60.5168 229.382L62.0575 230.023ZM70.1845 210.505C70.3042 210.206 70.4678 210.008 70.6654 209.872L69.7199 208.497C69.2215 208.839 68.8632 209.315 68.6349 209.886L70.1845 210.505ZM70.6459 209.885C70.8658 209.743 71.068 209.698 71.2796 209.721L71.4543 208.061C70.8395 207.996 70.2588 208.148 69.7393 208.484L70.6459 209.885ZM71.367 209.725C71.5747 209.725 71.7618 209.784 71.95 209.922L72.9369 208.577C72.4727 208.236 71.9421 208.056 71.367 208.056V209.725ZM72.0012 209.957C72.1804 210.069 72.3175 210.231 72.4107 210.484L73.9767 209.907C73.7655 209.334 73.4024 208.865 72.8857 208.542L72.0012 209.957ZM72.4243 210.519L80.449 229.634L81.9878 228.988L73.9631 209.873L72.4243 210.519ZM80.4396 229.611C80.5209 229.822 80.5471 229.981 80.5471 230.094H82.216C82.216 229.729 82.1334 229.366 81.9972 229.012L80.4396 229.611ZM80.5471 230.094C80.5471 230.475 80.4306 230.704 80.24 230.873L81.3487 232.121C81.941 231.594 82.216 230.888 82.216 230.094H80.5471ZM80.2224 230.889C79.9888 231.109 79.7744 231.184 79.5548 231.184V232.853C80.2484 232.853 80.8605 232.58 81.3662 232.104L80.2224 230.889ZM79.5548 231.184C79.347 231.184 79.1599 231.125 78.9717 230.987L77.9848 232.333C78.449 232.673 78.9796 232.853 79.5548 232.853V231.184ZM78.9938 231.004C78.8172 230.865 78.6575 230.661 78.5297 230.358L76.9916 231.005C77.2117 231.528 77.5305 231.976 77.9627 232.316L78.9938 231.004ZM78.5274 230.352L71.514 214.009L69.9803 214.667L76.9938 231.01L78.5274 230.352ZM70.9162 215.156L71.8622 214.96L71.5241 213.325L70.5781 213.521L70.9162 215.156ZM66.4111 227.094L68.2053 223.343L66.6997 222.623L64.9056 226.374L66.4111 227.094ZM67.4525 223.817H76.2601V222.148H67.4525V223.817ZM75.4368 223.119L76.0566 226.87L77.7031 226.598L77.0834 222.847L75.4368 223.119ZM76.8799 225.9H65.6583V227.569H76.8799V225.9ZM93.3164 231.301L92.7263 231.891L92.7347 231.9L92.7434 231.908L93.3164 231.301ZM92.7292 210.946V210.111H91.8947V210.946H92.7292ZM96.9699 210.946H97.8043V210.111H96.9699V210.946ZM96.3501 231.301L96.923 231.908L96.924 231.907L96.3501 231.301ZM86.1724 212.251L85.6005 212.858L85.6092 212.866L85.618 212.874L86.1724 212.251ZM86.1724 209.543L86.7245 210.169L86.7268 210.167L86.1724 209.543ZM103.494 209.543L102.922 210.151L102.931 210.159L102.94 210.167L103.494 209.543ZM103.494 212.283L104.046 212.909L104.048 212.907L103.494 212.283ZM94.8169 231.021C94.3909 231.021 94.1053 230.898 93.8893 230.694L92.7434 231.908C93.3103 232.443 94.0251 232.69 94.8169 232.69V231.021ZM93.9064 230.711C93.6752 230.48 93.5636 230.215 93.5636 229.866H91.8947C91.8947 230.647 92.1747 231.34 92.7263 231.891L93.9064 230.711ZM93.5636 229.866V210.946H91.8947V229.866H93.5636ZM92.7292 211.78H96.9699V210.111H92.7292V211.78ZM96.1354 210.946V229.866H97.8043V210.946H96.1354ZM96.1354 229.866C96.1354 230.2 96.0243 230.46 95.7762 230.695L96.924 231.907C97.5023 231.359 97.8043 230.662 97.8043 229.866H96.1354ZM95.7771 230.694C95.5668 230.893 95.2735 231.021 94.8169 231.021V232.69C95.6216 232.69 96.3505 232.449 96.923 231.908L95.7771 230.694ZM87.6077 211.938C87.229 211.938 86.9528 211.828 86.7268 211.627L85.618 212.874C86.1749 213.369 86.8556 213.607 87.6077 213.607V211.938ZM86.7443 211.643C86.5621 211.472 86.4523 211.245 86.4523 210.881H84.7834C84.7834 211.647 85.0433 212.334 85.6005 212.858L86.7443 211.643ZM86.4523 210.881C86.4523 210.516 86.5616 210.313 86.7245 210.169L85.6203 208.917C85.0438 209.426 84.7834 210.115 84.7834 210.881H86.4523ZM86.7268 210.167C86.9528 209.966 87.229 209.856 87.6077 209.856V208.187C86.8556 208.187 86.1749 208.424 85.618 208.919L86.7268 210.167ZM87.6077 209.856H102.091V208.187H87.6077V209.856ZM102.091 209.856C102.47 209.856 102.725 209.966 102.922 210.151L104.066 208.935C103.523 208.425 102.843 208.187 102.091 208.187V209.856ZM102.94 210.167C103.138 210.343 103.247 210.565 103.247 210.913H104.916C104.916 210.131 104.633 209.439 104.048 208.919L102.94 210.167ZM103.247 210.913C103.247 211.262 103.138 211.484 102.94 211.66L104.048 212.907C104.633 212.387 104.916 211.696 104.916 210.913H103.247ZM102.942 211.658C102.747 211.83 102.485 211.938 102.091 211.938V213.607C102.828 213.607 103.502 213.389 104.046 212.909L102.942 211.658ZM102.091 211.938H87.6077V213.607H102.091V211.938ZM127.419 210.13L127.038 210.873L127.046 210.877L127.419 210.13ZM128.398 211.468L127.572 211.586L127.574 211.6L127.577 211.614L128.398 211.468ZM127.941 213.131L127.298 212.6L127.281 212.621L127.265 212.643L127.941 213.131ZM126.832 213.784L126.753 212.953L126.749 212.953L126.832 213.784ZM125.495 213.523L125.854 212.769L125.843 212.764L125.495 213.523ZM123.831 212.968L123.644 213.781L123.65 213.783L123.831 212.968ZM118.873 213.327L118.566 212.551L118.56 212.554L118.873 213.327ZM116.524 214.926L117.124 215.506L117.133 215.496L116.524 214.926ZM115.024 217.339L114.242 217.048L114.239 217.057L114.236 217.065L115.024 217.339ZM115.089 223.896L114.308 224.191L114.311 224.199L114.314 224.206L115.089 223.896ZM116.687 226.343L116.107 226.942L116.687 226.343ZM119.069 227.811L118.788 228.597L118.796 228.6L118.805 228.602L119.069 227.811ZM123.799 228.104L123.951 228.925L123.951 228.925L123.799 228.104ZM125.495 227.517L125.136 226.764L125.123 226.77L125.11 226.777L125.495 227.517ZM126.832 227.289L126.709 228.114L126.714 228.115L126.832 227.289ZM127.974 227.974L127.315 228.486L127.322 228.495L127.974 227.974ZM128.431 229.67L127.616 229.489L127.614 229.501L127.611 229.512L128.431 229.67ZM127.452 230.91L127.091 230.157L127.079 230.163L127.452 230.91ZM125.691 231.627L125.928 232.427L125.937 232.425L125.946 232.422L125.691 231.627ZM123.896 232.019L123.778 231.193L123.764 231.195L123.75 231.197L123.896 232.019ZM117.568 231.432L117.286 232.217L117.29 232.218L117.568 231.432ZM113.817 229.213L113.258 229.834L113.265 229.839L113.817 229.213ZM111.24 225.56L110.472 225.887L110.474 225.891L111.24 225.56ZM111.142 215.806L110.371 215.486L110.367 215.496L111.142 215.806ZM113.588 212.153L114.172 212.749L114.172 212.749L113.588 212.153ZM117.34 209.739L117.646 210.515L117.656 210.511L117.34 209.739ZM124.842 209.184L125.036 208.373L125.036 208.373L124.842 209.184ZM127.046 210.877C127.375 211.041 127.525 211.257 127.572 211.586L129.224 211.35C129.097 210.461 128.595 209.785 127.793 209.384L127.046 210.877ZM127.577 211.614C127.64 211.969 127.564 212.278 127.298 212.6L128.585 213.663C129.145 212.984 129.374 212.184 129.22 211.321L127.577 211.614ZM127.265 212.643C127.114 212.851 126.957 212.934 126.753 212.953L126.911 214.614C127.621 214.547 128.203 214.194 128.618 213.62L127.265 212.643ZM126.749 212.953C126.488 212.98 126.195 212.932 125.854 212.769L125.136 214.276C125.708 214.549 126.306 214.675 126.915 214.614L126.749 212.953ZM125.843 212.764C125.265 212.499 124.654 212.296 124.012 212.154L123.65 213.783C124.183 213.901 124.681 214.068 125.147 214.281L125.843 212.764ZM124.019 212.155C123.387 212.009 122.725 211.938 122.037 211.938V213.607C122.61 213.607 123.145 213.666 123.644 213.781L124.019 212.155ZM122.037 211.938C120.775 211.938 119.614 212.137 118.566 212.551L119.18 214.103C120.002 213.778 120.95 213.607 122.037 213.607V211.938ZM118.56 212.554C117.538 212.967 116.653 213.568 115.915 214.355L117.133 215.496C117.7 214.891 118.381 214.426 119.186 214.101L118.56 212.554ZM115.925 214.345C115.187 215.107 114.627 216.012 114.242 217.048L115.806 217.63C116.116 216.796 116.557 216.092 117.124 215.506L115.925 214.345ZM114.236 217.065C113.875 218.1 113.7 219.227 113.7 220.438H115.369C115.369 219.388 115.52 218.45 115.812 217.614L114.236 217.065ZM113.7 220.438C113.7 221.84 113.895 223.097 114.308 224.191L115.869 223.601C115.544 222.738 115.369 221.69 115.369 220.438H113.7ZM114.314 224.206C114.744 225.28 115.338 226.199 116.107 226.942L117.268 225.743C116.688 225.182 116.217 224.469 115.864 223.586L114.314 224.206ZM116.107 226.942C116.87 227.68 117.766 228.232 118.788 228.597L119.349 227.025C118.544 226.737 117.853 226.31 117.268 225.743L116.107 226.942ZM118.805 228.602C119.812 228.938 120.891 229.102 122.037 229.102V227.433C121.052 227.433 120.152 227.292 119.332 227.019L118.805 228.602ZM122.037 229.102C122.676 229.102 123.314 229.043 123.951 228.925L123.647 227.284C123.109 227.383 122.572 227.433 122.037 227.433V229.102ZM123.951 228.925C124.621 228.801 125.265 228.577 125.88 228.257L125.11 226.777C124.638 227.022 124.15 227.19 123.647 227.284L123.951 228.925ZM125.854 228.271C126.183 228.113 126.462 228.077 126.709 228.114L126.956 226.464C126.333 226.37 125.72 226.486 125.136 226.764L125.854 228.271ZM126.714 228.115C126.94 228.147 127.133 228.251 127.315 228.486L128.633 227.462C128.206 226.913 127.638 226.561 126.95 226.463L126.714 228.115ZM127.322 228.495C127.627 228.876 127.683 229.189 127.616 229.489L129.245 229.851C129.44 228.977 129.191 228.159 128.626 227.453L127.322 228.495ZM127.611 229.512C127.555 229.804 127.41 230.004 127.091 230.157L127.813 231.662C128.582 231.293 129.089 230.667 129.25 229.828L127.611 229.512ZM127.079 230.163C126.552 230.427 126.004 230.65 125.435 230.833L125.946 232.422C126.595 232.213 127.221 231.958 127.825 231.656L127.079 230.163ZM125.454 230.827C124.906 230.99 124.347 231.111 123.778 231.193L124.014 232.845C124.663 232.752 125.301 232.613 125.928 232.427L125.454 230.827ZM123.75 231.197C123.19 231.297 122.62 231.347 122.037 231.347V233.016C122.716 233.016 123.385 232.958 124.043 232.84L123.75 231.197ZM122.037 231.347C120.562 231.347 119.167 231.112 117.846 230.645L117.29 232.218C118.797 232.751 120.381 233.016 122.037 233.016V231.347ZM117.85 230.646C116.558 230.182 115.399 229.497 114.369 228.588L113.265 229.839C114.453 230.887 115.795 231.681 117.286 232.217L117.85 230.646ZM114.375 228.593C113.384 227.701 112.593 226.585 112.005 225.228L110.474 225.891C111.148 227.449 112.075 228.768 113.258 229.834L114.375 228.593ZM112.007 225.233C111.429 223.876 111.128 222.284 111.128 220.438H109.459C109.459 222.464 109.789 224.286 110.472 225.887L112.007 225.233ZM111.128 220.438C111.128 218.859 111.394 217.422 111.917 216.116L110.367 215.496C109.758 217.018 109.459 218.668 109.459 220.438H111.128ZM111.912 216.126C112.459 214.811 113.212 213.689 114.172 212.749L113.005 211.557C111.877 212.661 110.999 213.974 110.371 215.486L111.912 216.126ZM114.172 212.749C115.155 211.786 116.31 211.041 117.646 210.515L117.034 208.962C115.498 209.567 114.152 210.432 113.004 211.557L114.172 212.749ZM117.656 210.511C118.982 209.969 120.439 209.693 122.037 209.693V208.024C120.243 208.024 118.568 208.335 117.024 208.967L117.656 210.511ZM122.037 209.693C122.93 209.693 123.8 209.794 124.649 209.996L125.036 208.373C124.058 208.14 123.058 208.024 122.037 208.024V209.693ZM124.649 209.996C125.5 210.199 126.296 210.491 127.038 210.873L127.801 209.388C126.934 208.943 126.012 208.605 125.036 208.373L124.649 209.996ZM139.912 209.608L139.322 210.198L139.338 210.215L139.355 210.23L139.912 209.608ZM139.912 231.301L140.468 231.923L140.477 231.915L140.486 231.907L139.912 231.301ZM137.008 231.301L136.402 231.874L136.41 231.883L136.418 231.891L137.008 231.301ZM137.041 209.608L137.614 210.215L137.623 210.207L137.631 210.198L137.041 209.608ZM154.461 209.608L153.854 210.181L153.862 210.19L153.87 210.198L154.461 209.608ZM154.428 231.301L155.018 231.891L155.018 231.891L154.428 231.301ZM151.525 231.301L150.935 231.891L150.951 231.908L150.968 231.923L151.525 231.301ZM151.557 209.608L152.114 210.23L152.123 210.222L152.131 210.214L151.557 209.608ZM138.444 218.514V217.679H137.609V218.514H138.444ZM152.993 218.514H153.827V217.679H152.993V218.514ZM152.993 222.265V223.1H153.827V222.265H152.993ZM138.444 222.265H137.609V223.1H138.444V222.265ZM138.542 209.856C138.828 209.856 139.076 209.953 139.322 210.198L140.502 209.018C139.964 208.481 139.299 208.187 138.542 208.187V209.856ZM139.355 210.23C139.588 210.438 139.697 210.678 139.697 211.011H141.366C141.366 210.214 141.062 209.518 140.468 208.986L139.355 210.23ZM139.697 211.011V229.866H141.366V211.011H139.697ZM139.697 229.866C139.697 230.2 139.586 230.46 139.338 230.695L140.486 231.907C141.064 231.359 141.366 230.662 141.366 229.866H139.697ZM139.355 230.679C139.092 230.915 138.81 231.021 138.476 231.021V232.69C139.23 232.69 139.905 232.427 140.468 231.923L139.355 230.679ZM138.476 231.021C138.049 231.021 137.786 230.898 137.598 230.711L136.418 231.891C136.97 232.443 137.686 232.69 138.476 232.69V231.021ZM137.615 230.728C137.4 230.5 137.288 230.23 137.288 229.866H135.619C135.619 230.633 135.878 231.319 136.402 231.874L137.615 230.728ZM137.288 229.866V211.011H135.619V229.866H137.288ZM137.288 211.011C137.288 210.662 137.399 210.418 137.614 210.215L136.468 209.002C135.901 209.538 135.619 210.229 135.619 211.011H137.288ZM137.631 210.198C137.85 209.98 138.13 209.856 138.542 209.856V208.187C137.736 208.187 137.015 208.454 136.451 209.018L137.631 210.198ZM152.993 209.856C153.405 209.856 153.663 209.979 153.854 210.181L155.067 209.035C154.518 208.454 153.798 208.187 152.993 208.187V209.856ZM153.87 210.198C154.07 210.398 154.181 210.647 154.181 211.011H155.85C155.85 210.244 155.59 209.558 155.051 209.018L153.87 210.198ZM154.181 211.011V229.866H155.85V211.011H154.181ZM154.181 229.866C154.181 230.215 154.069 230.48 153.838 230.711L155.018 231.891C155.57 231.34 155.85 230.647 155.85 229.866H154.181ZM153.838 230.711C153.656 230.893 153.385 231.021 152.927 231.021V232.69C153.731 232.69 154.46 232.449 155.018 231.891L153.838 230.711ZM152.927 231.021C152.624 231.021 152.352 230.921 152.081 230.679L150.968 231.923C151.524 232.42 152.187 232.69 152.927 232.69V231.021ZM152.115 230.711C151.883 230.48 151.772 230.215 151.772 229.866H150.103C150.103 230.647 150.383 231.34 150.935 231.891L152.115 230.711ZM151.772 229.866V211.011H150.103V229.866H151.772ZM151.772 211.011C151.772 210.678 151.881 210.438 152.114 210.23L151.001 208.986C150.407 209.518 150.103 210.214 150.103 211.011H151.772ZM152.131 210.214C152.397 209.962 152.673 209.856 152.993 209.856V208.187C152.225 208.187 151.544 208.472 150.983 209.003L152.131 210.214ZM138.444 219.348H152.993V217.679H138.444V219.348ZM152.158 218.514V222.265H153.827V218.514H152.158ZM152.993 221.431H138.444V223.1H152.993V221.431ZM139.278 222.265V218.514H137.609V222.265H139.278ZM184.407 231.301L183.817 231.891L183.825 231.9L183.834 231.908L184.407 231.301ZM183.82 210.946V210.111H182.985V210.946H183.82ZM188.061 210.946H188.895V210.111H188.061V210.946ZM187.441 231.301L188.014 231.908L188.015 231.907L187.441 231.301ZM177.263 212.251L176.691 212.858L176.7 212.866L176.709 212.874L177.263 212.251ZM177.263 209.543L177.815 210.169L177.818 210.167L177.263 209.543ZM194.585 209.543L194.013 210.151L194.021 210.159L194.03 210.167L194.585 209.543ZM194.585 212.283L195.137 212.909L195.139 212.907L194.585 212.283ZM185.908 231.021C185.482 231.021 185.196 230.898 184.98 230.694L183.834 231.908C184.401 232.443 185.116 232.69 185.908 232.69V231.021ZM184.997 230.711C184.766 230.48 184.654 230.215 184.654 229.866H182.985C182.985 230.647 183.265 231.34 183.817 231.891L184.997 230.711ZM184.654 229.866V210.946H182.985V229.866H184.654ZM183.82 211.78H188.061V210.111H183.82V211.78ZM187.226 210.946V229.866H188.895V210.946H187.226ZM187.226 229.866C187.226 230.2 187.115 230.46 186.867 230.695L188.015 231.907C188.593 231.359 188.895 230.662 188.895 229.866H187.226ZM186.868 230.694C186.658 230.893 186.364 231.021 185.908 231.021V232.69C186.712 232.69 187.441 232.449 188.014 231.908L186.868 230.694ZM178.698 211.938C178.32 211.938 178.044 211.828 177.818 211.627L176.709 212.874C177.266 213.369 177.946 213.607 178.698 213.607V211.938ZM177.835 211.643C177.653 211.472 177.543 211.245 177.543 210.881H175.874C175.874 211.647 176.134 212.334 176.691 212.858L177.835 211.643ZM177.543 210.881C177.543 210.516 177.652 210.313 177.815 210.169L176.711 208.917C176.135 209.426 175.874 210.115 175.874 210.881H177.543ZM177.818 210.167C178.044 209.966 178.32 209.856 178.698 209.856V208.187C177.946 208.187 177.266 208.424 176.709 208.919L177.818 210.167ZM178.698 209.856H193.182V208.187H178.698V209.856ZM193.182 209.856C193.561 209.856 193.816 209.966 194.013 210.151L195.157 208.935C194.614 208.425 193.934 208.187 193.182 208.187V209.856ZM194.03 210.167C194.228 210.343 194.337 210.565 194.337 210.913H196.006C196.006 210.131 195.724 209.439 195.139 208.919L194.03 210.167ZM194.337 210.913C194.337 211.262 194.228 211.484 194.03 211.66L195.139 212.907C195.724 212.387 196.006 211.696 196.006 210.913H194.337ZM194.033 211.658C193.838 211.83 193.576 211.938 193.182 211.938V213.607C193.919 213.607 194.592 213.389 195.137 212.909L194.033 211.658ZM193.182 211.938H178.698V213.607H193.182V211.938ZM206.621 209.608L206.031 210.198L206.047 210.215L206.065 210.23L206.621 209.608ZM206.621 231.301L207.177 231.923L207.186 231.915L207.195 231.907L206.621 231.301ZM203.718 231.301L203.111 231.874L203.119 231.883L203.128 231.891L203.718 231.301ZM203.75 209.608L204.323 210.215L204.332 210.207L204.34 210.198L203.75 209.608ZM221.17 209.608L220.563 210.181L220.571 210.19L220.58 210.198L221.17 209.608ZM221.137 231.301L221.727 231.891L221.727 231.891L221.137 231.301ZM218.234 231.301L217.644 231.891L217.66 231.908L217.678 231.923L218.234 231.301ZM218.267 209.608L218.823 210.23L218.832 210.222L218.84 210.214L218.267 209.608ZM205.153 218.514V217.679H204.319V218.514H205.153ZM219.702 218.514H220.536V217.679H219.702V218.514ZM219.702 222.265V223.1H220.536V222.265H219.702ZM205.153 222.265H204.319V223.1H205.153V222.265ZM205.251 209.856C205.537 209.856 205.785 209.953 206.031 210.198L207.211 209.018C206.674 208.481 206.009 208.187 205.251 208.187V209.856ZM206.065 210.23C206.297 210.438 206.406 210.678 206.406 211.011H208.075C208.075 210.214 207.771 209.518 207.177 208.986L206.065 210.23ZM206.406 211.011V229.866H208.075V211.011H206.406ZM206.406 229.866C206.406 230.2 206.295 230.46 206.047 230.695L207.195 231.907C207.773 231.359 208.075 230.662 208.075 229.866H206.406ZM206.065 230.679C205.801 230.915 205.52 231.021 205.186 231.021V232.69C205.939 232.69 206.615 232.427 207.177 231.923L206.065 230.679ZM205.186 231.021C204.759 231.021 204.495 230.898 204.308 230.711L203.128 231.891C203.68 232.443 204.395 232.69 205.186 232.69V231.021ZM204.324 230.728C204.109 230.5 203.998 230.23 203.998 229.866H202.329C202.329 230.633 202.587 231.319 203.111 231.874L204.324 230.728ZM203.998 229.866V211.011H202.329V229.866H203.998ZM203.998 211.011C203.998 210.662 204.108 210.418 204.323 210.215L203.177 209.002C202.61 209.538 202.329 210.229 202.329 211.011H203.998ZM204.34 210.198C204.559 209.98 204.839 209.856 205.251 209.856V208.187C204.445 208.187 203.725 208.454 203.16 209.018L204.34 210.198ZM219.702 209.856C220.114 209.856 220.372 209.979 220.563 210.181L221.776 209.035C221.228 208.454 220.507 208.187 219.702 208.187V209.856ZM220.58 210.198C220.779 210.398 220.89 210.647 220.89 211.011H222.559C222.559 210.244 222.3 209.558 221.76 209.018L220.58 210.198ZM220.89 211.011V229.866H222.559V211.011H220.89ZM220.89 229.866C220.89 230.215 220.778 230.48 220.547 230.711L221.727 231.891C222.279 231.34 222.559 230.647 222.559 229.866H220.89ZM220.547 230.711C220.365 230.893 220.095 231.021 219.637 231.021V232.69C220.44 232.69 221.17 232.449 221.727 231.891L220.547 230.711ZM219.637 231.021C219.334 231.021 219.061 230.921 218.79 230.679L217.678 231.923C218.233 232.42 218.896 232.69 219.637 232.69V231.021ZM218.824 230.711C218.593 230.48 218.481 230.215 218.481 229.866H216.812C216.812 230.647 217.092 231.34 217.644 231.891L218.824 230.711ZM218.481 229.866V211.011H216.812V229.866H218.481ZM218.481 211.011C218.481 210.678 218.591 210.438 218.823 210.23L217.71 208.986C217.116 209.518 216.812 210.214 216.812 211.011H218.481ZM218.84 210.214C219.107 209.962 219.383 209.856 219.702 209.856V208.187C218.934 208.187 218.253 208.472 217.693 209.003L218.84 210.214ZM205.153 219.348H219.702V217.679H205.153V219.348ZM218.867 218.514V222.265H220.536V218.514H218.867ZM219.702 221.431H205.153V223.1H219.702V221.431ZM205.988 222.265V218.514H204.319V222.265H205.988ZM234.634 231.301L235.19 231.923L235.199 231.915L235.208 231.907L234.634 231.301ZM231.731 231.301L231.124 231.874L231.132 231.883L231.141 231.891L231.731 231.301ZM231.763 209.608L232.336 210.215L232.345 210.207L232.353 210.198L231.763 209.608ZM234.634 209.608L234.044 210.198L234.06 210.215L234.078 210.23L234.634 209.608ZM234.419 229.866C234.419 230.2 234.308 230.46 234.06 230.695L235.208 231.907C235.786 231.359 236.088 230.662 236.088 229.866H234.419ZM234.078 230.679C233.814 230.915 233.533 231.021 233.199 231.021V232.69C233.952 232.69 234.628 232.427 235.19 231.923L234.078 230.679ZM233.199 231.021C232.772 231.021 232.508 230.898 232.321 230.711L231.141 231.891C231.693 232.443 232.408 232.69 233.199 232.69V231.021ZM232.337 230.728C232.122 230.5 232.011 230.23 232.011 229.866H230.342C230.342 230.633 230.6 231.319 231.124 231.874L232.337 230.728ZM232.011 229.866V211.011H230.342V229.866H232.011ZM232.011 211.011C232.011 210.662 232.121 210.418 232.336 210.215L231.19 209.002C230.623 209.538 230.342 210.229 230.342 211.011H232.011ZM232.353 210.198C232.572 209.98 232.852 209.856 233.264 209.856V208.187C232.458 208.187 231.738 208.454 231.173 209.018L232.353 210.198ZM233.264 209.856C233.55 209.856 233.798 209.953 234.044 210.198L235.224 209.018C234.687 208.481 234.022 208.187 233.264 208.187V209.856ZM234.078 210.23C234.31 210.438 234.419 210.678 234.419 211.011H236.088C236.088 210.214 235.785 209.518 235.19 208.986L234.078 210.23ZM234.419 211.011V229.866H236.088V211.011H234.419ZM247.956 231.627L247.701 232.422L247.714 232.426L247.956 231.627ZM244.466 229.605L245.011 228.973L245.005 228.968L244.466 229.605ZM244.107 226.571L243.5 225.998L243.499 225.999L244.107 226.571ZM246.586 226.375L247.113 225.729L247.107 225.724L246.586 226.375ZM249.032 227.909L248.701 228.675L248.709 228.678L249.032 227.909ZM254.284 228.072L254.563 228.858L254.575 228.854L254.586 228.85L254.284 228.072ZM255.915 227.06L256.505 227.65L256.513 227.643L256.52 227.635L255.915 227.06ZM255.948 223.929L256.582 223.386L256.582 223.386L255.948 223.929ZM254.154 222.787L253.84 223.56L253.849 223.564L253.859 223.568L254.154 222.787ZM251.088 222.037L250.965 222.862L250.972 222.863L251.088 222.037ZM247.989 221.254L247.669 222.025L247.677 222.028L247.685 222.031L247.989 221.254ZM245.738 219.884L245.159 220.485L245.17 220.496L245.182 220.506L245.738 219.884ZM244.4 217.927L243.626 218.237L243.629 218.244L244.4 217.927ZM245.02 211.761L244.349 211.265L244.342 211.275L245.02 211.761ZM247.989 209.478L248.312 210.247L248.312 210.247L247.989 209.478ZM256.013 209.347L255.728 210.132L255.737 210.135L255.745 210.138L256.013 209.347ZM258.982 210.946L258.439 211.579L258.451 211.59L258.463 211.6L258.982 210.946ZM259.373 213.98L259.98 214.552L259.98 214.552L259.373 213.98ZM257.188 214.273L256.638 214.901L256.662 214.922L256.687 214.941L257.188 214.273ZM255.785 213.425L255.423 214.177L255.434 214.182L255.446 214.188L255.785 213.425ZM253.926 212.74L253.686 213.539L253.698 213.543L253.711 213.546L253.926 212.74ZM249.718 212.805L249.43 212.022L249.422 212.025L249.718 212.805ZM248.347 216.85L247.712 217.391L247.726 217.408L247.742 217.424L248.347 216.85ZM250.011 217.861L249.726 218.646L249.737 218.649L249.747 218.653L250.011 217.861ZM252.588 218.514L252.428 219.333L252.438 219.335L252.588 218.514ZM256.013 219.362L255.749 220.154L255.755 220.155L256.013 219.362ZM258.492 220.634L257.971 221.286L257.978 221.291L257.985 221.296L258.492 220.634ZM259.96 222.559L259.19 222.88L259.193 222.887L259.96 222.559ZM259.275 229.018L258.613 228.51L258.613 228.51L259.275 229.018ZM256.176 231.366L255.851 230.598L255.846 230.6L256.176 231.366ZM252.066 231.347C250.61 231.347 249.324 231.171 248.198 230.829L247.714 232.426C249.024 232.823 250.477 233.016 252.066 233.016V231.347ZM248.211 230.833C247.114 230.48 246.047 229.867 245.011 228.973L243.92 230.237C245.102 231.256 246.362 231.991 247.701 232.422L248.211 230.833ZM245.005 228.968C244.8 228.795 244.657 228.611 244.56 228.416L243.067 229.163C243.274 229.577 243.565 229.936 243.927 230.242L245.005 228.968ZM244.56 228.416C244.458 228.214 244.419 228.036 244.419 227.876H242.75C242.75 228.325 242.864 228.756 243.067 229.163L244.56 228.416ZM244.419 227.876C244.419 227.592 244.51 227.361 244.714 227.143L243.499 225.999C243.008 226.521 242.75 227.16 242.75 227.876H244.419ZM244.713 227.144C244.924 226.921 245.16 226.818 245.477 226.818V225.149C244.706 225.149 244.029 225.438 243.5 225.998L244.713 227.144ZM245.477 226.818C245.698 226.818 245.885 226.883 246.065 227.027L247.107 225.724C246.635 225.346 246.082 225.149 245.477 225.149V226.818ZM246.058 227.022C246.932 227.735 247.813 228.29 248.701 228.674L249.364 227.143C248.643 226.831 247.893 226.364 247.113 225.729L246.058 227.022ZM248.709 228.678C249.666 229.081 250.794 229.265 252.066 229.265V227.596C250.946 227.596 250.052 227.432 249.356 227.14L248.709 228.678ZM252.066 229.265C252.954 229.265 253.789 229.133 254.563 228.858L254.005 227.285C253.431 227.489 252.788 227.596 252.066 227.596V229.265ZM254.586 228.85C255.343 228.557 255.993 228.163 256.505 227.65L255.325 226.47C255.011 226.784 254.574 227.065 253.983 227.293L254.586 228.85ZM256.52 227.635C257.064 227.063 257.37 226.373 257.37 225.592H255.701C255.701 225.899 255.593 226.188 255.31 226.486L256.52 227.635ZM257.37 225.592C257.37 224.759 257.114 224.007 256.582 223.386L255.315 224.472C255.565 224.764 255.701 225.121 255.701 225.592H257.37ZM256.582 223.386C256.068 222.787 255.332 222.341 254.449 222.007L253.859 223.568C254.585 223.843 255.045 224.157 255.315 224.472L256.582 223.386ZM254.467 222.014C253.578 221.653 252.484 221.39 251.204 221.21L250.972 222.863C252.17 223.031 253.12 223.268 253.84 223.56L254.467 222.014ZM251.21 221.211C250.083 221.045 249.113 220.797 248.292 220.477L247.685 222.031C248.647 222.407 249.743 222.681 250.965 222.862L251.21 221.211ZM248.308 220.483C247.488 220.143 246.821 219.733 246.294 219.261L245.182 220.506C245.872 221.123 246.706 221.626 247.669 222.025L248.308 220.483ZM246.317 219.283C245.811 218.796 245.432 218.239 245.172 217.609L243.629 218.244C243.978 219.093 244.49 219.841 245.159 220.485L246.317 219.283ZM245.175 217.617C244.915 216.967 244.778 216.226 244.778 215.382H243.109C243.109 216.409 243.277 217.364 243.626 218.237L245.175 217.617ZM244.778 215.382C244.778 214.116 245.097 213.086 245.698 212.248L244.342 211.275C243.508 212.437 243.109 213.821 243.109 215.382H244.778ZM245.691 212.257C246.334 211.387 247.199 210.716 248.312 210.247L247.665 208.709C246.299 209.284 245.185 210.135 244.349 211.265L245.691 212.257ZM248.312 210.247C249.438 209.773 250.697 209.529 252.099 209.529V207.861C250.5 207.861 249.018 208.139 247.665 208.709L248.312 210.247ZM252.099 209.529C253.426 209.529 254.633 209.733 255.728 210.132L256.298 208.563C255.001 208.092 253.599 207.861 252.099 207.861V209.529ZM255.745 210.138C256.889 210.526 257.778 211.013 258.439 211.579L259.525 210.312C258.664 209.574 257.573 208.995 256.281 208.557L255.745 210.138ZM258.463 211.6C258.946 211.982 259.093 212.336 259.093 212.675H260.762C260.762 211.708 260.279 210.91 259.5 210.292L258.463 211.6ZM259.093 212.675C259.093 212.913 259.01 213.149 258.767 213.407L259.98 214.552C260.476 214.027 260.762 213.393 260.762 212.675H259.093ZM258.767 213.407C258.541 213.645 258.32 213.732 258.068 213.732V215.401C258.817 215.401 259.466 215.097 259.98 214.552L258.767 213.407ZM258.068 213.732C257.923 213.732 257.805 213.693 257.688 213.606L256.687 214.941C257.092 215.245 257.562 215.401 258.068 215.401V213.732ZM257.737 213.645C257.307 213.269 256.76 212.945 256.124 212.662L255.446 214.188C255.984 214.427 256.372 214.669 256.638 214.901L257.737 213.645ZM256.147 212.673C255.511 212.367 254.842 212.121 254.141 211.934L253.711 213.546C254.314 213.707 254.885 213.918 255.423 214.177L256.147 212.673ZM254.165 211.941C253.451 211.726 252.76 211.612 252.099 211.612V213.281C252.568 213.281 253.096 213.362 253.686 213.539L254.165 211.941ZM252.099 211.612C251.097 211.612 250.2 211.739 249.43 212.022L250.005 213.589C250.539 213.393 251.23 213.281 252.099 213.281V211.612ZM249.422 212.025C248.689 212.303 248.07 212.706 247.627 213.267L248.937 214.301C249.147 214.035 249.485 213.786 250.013 213.585L249.422 212.025ZM247.627 213.267C247.181 213.832 246.958 214.494 246.958 215.219H248.627C248.627 214.856 248.731 214.562 248.937 214.301L247.627 213.267ZM246.958 215.219C246.958 216.04 247.196 216.783 247.712 217.391L248.983 216.31C248.76 216.047 248.627 215.704 248.627 215.219H246.958ZM247.742 217.424C248.247 217.958 248.926 218.355 249.726 218.646L250.296 217.077C249.661 216.846 249.23 216.569 248.953 216.276L247.742 217.424ZM249.747 218.653C250.508 218.907 251.404 219.132 252.428 219.333L252.748 217.695C251.772 217.504 250.949 217.295 250.275 217.07L249.747 218.653ZM252.438 219.335C253.714 219.569 254.817 219.843 255.749 220.154L256.277 218.57C255.253 218.229 254.072 217.937 252.739 217.693L252.438 219.335ZM255.755 220.155C256.683 220.458 257.414 220.84 257.971 221.286L259.014 219.983C258.266 219.384 257.344 218.918 256.272 218.569L255.755 220.155ZM257.985 221.296C258.518 221.705 258.918 222.227 259.19 222.88L260.731 222.238C260.35 221.325 259.772 220.564 259 219.972L257.985 221.296ZM259.193 222.887C259.463 223.516 259.615 224.332 259.615 225.364H261.284C261.284 224.178 261.11 223.124 260.727 222.23L259.193 222.887ZM259.615 225.364C259.615 226.613 259.273 227.648 258.613 228.51L259.938 229.525C260.843 228.343 261.284 226.942 261.284 225.364H259.615ZM258.613 228.51C257.925 229.408 257.012 230.106 255.851 230.598L256.502 232.135C257.907 231.539 259.06 230.671 259.938 229.525L258.613 228.51ZM255.846 230.6C254.697 231.095 253.44 231.347 252.066 231.347V233.016C253.65 233.016 255.133 232.725 256.507 232.133L255.846 230.6Z" fill="white"/>
</g>
<defs>
<radialGradient id="paint0_angular_37_2" cx="0" cy="0" r="1" gradientUnits="userSpaceOnUse" gradientTransform="translate(146.749 100.356) rotate(90) scale(206.191)">
<stop stop-color="#FF0000"/>
<stop offset="0.15625" stop-color="#FAFF00"/>
<stop offset="0.317708" stop-color="#05FF00"/>
<stop offset="0.489583" stop-color="#00FFFF"/>
<stop offset="0.651042" stop-color="#000AFF"/>
<stop offset="0.828125" stop-color="#CD00FF"/>
<stop offset="1" stop-color="#FF0000"/>
</radialGradient>
<radialGradient id="paint1_angular_37_2" cx="0" cy="0" r="1" gradientUnits="userSpaceOnUse" gradientTransform="translate(148.124 108.603) rotate(90) scale(101.741)">
<stop stop-color="#FF0000"/>
<stop offset="0.15625" stop-color="#FAFF00"/>
<stop offset="0.317708" stop-color="#05FF00"/>
<stop offset="0.489583" stop-color="#00FFFF"/>
<stop offset="0.651042" stop-color="#000AFF"/>
<stop offset="0.828125" stop-color="#CD00FF"/>
<stop offset="1" stop-color="#FF0000"/>
</radialGradient>
<radialGradient id="paint2_angular_37_2" cx="0" cy="0" r="1" gradientUnits="userSpaceOnUse" gradientTransform="translate(145.796 108.603) rotate(90) scale(71.3227)">
<stop stop-color="#FF0000"/>
<stop offset="0.15625" stop-color="#FAFF00"/>
<stop offset="0.317708" stop-color="#05FF00"/>
<stop offset="0.489583" stop-color="#00FFFF"/>
<stop offset="0.651042" stop-color="#000AFF"/>
<stop offset="0.828125" stop-color="#CD00FF"/>
<stop offset="1" stop-color="#FF0000"/>
</radialGradient>
<radialGradient id="paint3_angular_37_2" cx="0" cy="0" r="1" gradientUnits="userSpaceOnUse" gradientTransform="translate(145.796 108.603) rotate(90) scale(71.3227)">
<stop stop-color="#FF0000"/>
<stop offset="0.15625" stop-color="#FAFF00"/>
<stop offset="0.317708" stop-color="#05FF00"/>
<stop offset="0.489583" stop-color="#00FFFF"/>
<stop offset="0.651042" stop-color="#000AFF"/>
<stop offset="0.828125" stop-color="#CD00FF"/>
<stop offset="1" stop-color="#FF0000"/>
</radialGradient>
<radialGradient id="paint4_angular_37_2" cx="0" cy="0" r="1" gradientUnits="userSpaceOnUse" gradientTransform="translate(146.181 213.756) rotate(90) scale(164.71)">
<stop stop-color="#FF0000"/>
<stop offset="0.15625" stop-color="#FAFF00"/>
<stop offset="0.317708" stop-color="#05FF00"/>
<stop offset="0.489583" stop-color="#00FFFF"/>
<stop offset="0.651042" stop-color="#000AFF"/>
<stop offset="0.828125" stop-color="#CD00FF"/>
<stop offset="1" stop-color="#FF0000"/>
</radialGradient>
</defs>
</svg>
