<svg width="238" height="203" viewBox="0 0 238 203" fill="none" xmlns="http://www.w3.org/2000/svg">
<g id="Group 1968">
<g id="Mask Group">
<mask id="mask0_37_2" style="mask-type:alpha" maskUnits="userSpaceOnUse" x="46" y="0" width="152" height="152">
<circle id="Ellipse 1" cx="121.749" cy="75.6033" r="71.4795" stroke="white" stroke-width="8.24764"/>
</mask>
<g mask="url(#mask0_37_2)">
<circle id="Ellipse 3" cx="121.749" cy="67.3557" r="206.191" fill="url(#paint0_angular_37_2)"/>
<circle id="Ellipse 4" cx="121.749" cy="75.6033" r="71.4795" stroke="white" stroke-width="8.24764"/>
<g id="Ellipse 5" style="mix-blend-mode:overlay">
<circle cx="123.124" cy="75.6033" r="101.741" fill="url(#paint1_angular_37_2)"/>
</g>
</g>
</g>
<g id="Mask Group_2">
<mask id="mask1_37_2" style="mask-type:alpha" maskUnits="userSpaceOnUse" x="104" y="48" width="50" height="55">
<path id="Polygon 1" d="M113.57 101.912L150.685 80.4841C154.442 78.3149 154.442 72.8918 150.685 70.7225L113.57 49.2945C109.813 47.1253 105.116 49.8368 105.116 54.1753L105.116 97.0313C105.116 101.37 109.813 104.081 113.57 101.912Z" fill="white" stroke="black" stroke-width="0.274921"/>
</mask>
<g mask="url(#mask1_37_2)">
<path id="Ellipse 3_2" d="M192.119 75.6033C192.119 114.994 160.187 146.926 120.796 146.926C81.4058 146.926 49.4735 114.994 49.4735 75.6033C49.4735 36.2129 81.4058 4.28061 120.796 4.28061C160.187 4.28061 192.119 36.2129 192.119 75.6033Z" fill="url(#paint2_angular_37_2)"/>
<path id="Polygon 2" d="M150.616 70.8415C154.282 72.9579 154.282 78.2487 150.616 80.3651L113.502 101.793C109.836 103.909 105.254 101.264 105.254 97.0313L105.254 54.1753C105.254 49.9426 109.836 47.2972 113.502 49.4136L150.616 70.8415Z" fill="white"/>
<g id="Ellipse 4_2" style="mix-blend-mode:overlay">
<path d="M192.119 75.6033C192.119 114.994 160.187 146.926 120.796 146.926C81.4058 146.926 49.4735 114.994 49.4735 75.6033C49.4735 36.2129 81.4058 4.28061 120.796 4.28061C160.187 4.28061 192.119 36.2129 192.119 75.6033Z" fill="url(#paint3_angular_37_2)"/>
</g>
</g>
</g>
<g id="Mask Group_3">
<mask id="mask2_37_2" style="mask-type:alpha" maskUnits="userSpaceOnUse" x="1" y="175" width="235" height="25">
<g id="Watch This">
<path d="M29.3749 175.966C29.8751 175.966 30.3535 176.161 30.8102 176.553C31.2669 176.922 31.4952 177.433 31.4952 178.086C31.4952 178.282 31.4626 178.499 31.3974 178.738L24.9711 197.658C24.8406 198.05 24.6014 198.354 24.2534 198.572C23.9272 198.767 23.5793 198.876 23.2096 198.898C22.8399 198.898 22.4702 198.789 22.1005 198.572C21.7525 198.354 21.4807 198.039 21.285 197.626L16.4571 186.665L16.7507 186.861L11.9881 197.626C11.7923 198.039 11.5096 198.354 11.1399 198.572C10.792 198.789 10.4331 198.898 10.0634 198.898C9.71549 198.876 9.36754 198.767 9.01958 198.572C8.67163 198.354 8.43241 198.05 8.30193 197.658L1.87565 178.738C1.81041 178.499 1.77779 178.282 1.77779 178.086C1.77779 177.433 2.00614 176.922 2.46282 176.553C2.94126 176.161 3.43057 175.966 3.93076 175.966C4.34395 175.966 4.72453 176.074 5.07248 176.292C5.44218 176.509 5.69227 176.825 5.82276 177.238L11.0094 192.961L10.2918 192.928L14.9239 181.805C15.0979 181.413 15.348 181.109 15.6742 180.891C16.0004 180.652 16.3701 180.543 16.7833 180.565C17.1965 180.543 17.5662 180.652 17.8924 180.891C18.2186 181.109 18.4578 181.413 18.6101 181.805L22.8508 192.439L22.3288 192.765L27.4503 177.238C27.5808 176.825 27.8308 176.509 28.2005 176.292C28.5703 176.074 28.9617 175.966 29.3749 175.966ZM46.6932 181.185L39.6471 197.756C39.4949 198.169 39.2556 198.496 38.9294 198.735C38.625 198.952 38.2879 199.061 37.9182 199.061C37.331 199.061 36.8961 198.898 36.6134 198.572C36.3307 198.245 36.1893 197.843 36.1893 197.365C36.1893 197.169 36.2219 196.962 36.2872 196.745L44.4097 177.238C44.5837 176.803 44.8447 176.466 45.1926 176.227C45.5623 175.987 45.9538 175.889 46.367 175.933C46.7584 175.933 47.1172 176.053 47.4434 176.292C47.7914 176.509 48.0415 176.825 48.1937 177.238L56.2184 196.353C56.3271 196.636 56.3815 196.897 56.3815 197.136C56.3815 197.724 56.1858 198.191 55.7943 198.539C55.4246 198.887 55.0114 199.061 54.5548 199.061C54.1633 199.061 53.8045 198.941 53.4783 198.702C53.1738 198.463 52.9346 198.137 52.7606 197.724L45.7472 181.381L46.6932 181.185ZM40.6583 193.776L42.4525 190.025H51.2601L51.8799 193.776H40.6583ZM69.8169 198.898C69.208 198.898 68.7078 198.713 68.3164 198.343C67.9249 197.952 67.7292 197.473 67.7292 196.908V177.988H71.9699V196.908C71.9699 197.473 71.7633 197.952 71.3501 198.343C70.9586 198.713 70.4476 198.898 69.8169 198.898ZM62.6077 179.815C62.0423 179.815 61.5639 179.641 61.1724 179.293C60.8027 178.945 60.6179 178.488 60.6179 177.923C60.6179 177.357 60.8027 176.912 61.1724 176.585C61.5639 176.237 62.0423 176.063 62.6077 176.063H77.0913C77.6567 176.063 78.1243 176.237 78.494 176.585C78.8855 176.933 79.0812 177.39 79.0812 177.955C79.0812 178.521 78.8855 178.978 78.494 179.325C78.1243 179.652 77.6567 179.815 77.0913 179.815H62.6077ZM102.419 177.173C102.985 177.455 103.311 177.901 103.398 178.51C103.507 179.119 103.355 179.673 102.941 180.174C102.659 180.565 102.289 180.783 101.832 180.826C101.397 180.87 100.952 180.783 100.495 180.565C99.9729 180.326 99.4184 180.141 98.8312 180.011C98.2658 179.88 97.6678 179.815 97.0371 179.815C95.8627 179.815 94.808 180 93.8729 180.369C92.9595 180.739 92.1766 181.272 91.5242 181.968C90.8718 182.642 90.3716 183.447 90.0236 184.382C89.6974 185.317 89.5343 186.35 89.5343 187.481C89.5343 188.807 89.7192 189.96 90.0889 190.938C90.4803 191.917 91.0131 192.733 91.6873 193.385C92.3615 194.037 93.1552 194.527 94.0686 194.853C94.982 195.157 95.9715 195.31 97.0371 195.31C97.6243 195.31 98.2114 195.255 98.7986 195.147C99.3858 195.038 99.9512 194.842 100.495 194.559C100.952 194.342 101.397 194.266 101.832 194.331C102.289 194.396 102.67 194.625 102.974 195.016C103.409 195.56 103.561 196.125 103.431 196.712C103.322 197.278 102.996 197.691 102.452 197.952C101.887 198.235 101.3 198.474 100.691 198.67C100.103 198.844 99.5054 198.974 98.8965 199.061C98.2875 199.17 97.6678 199.224 97.0371 199.224C95.4713 199.224 93.9816 198.974 92.568 198.474C91.1762 197.974 89.9258 197.234 88.8167 196.256C87.7293 195.277 86.8703 194.059 86.2396 192.602C85.609 191.123 85.2936 189.416 85.2936 187.481C85.2936 185.806 85.5763 184.262 86.1418 182.849C86.7289 181.435 87.5445 180.217 88.5883 179.195C89.6539 178.151 90.9044 177.346 92.3397 176.781C93.775 176.194 95.3408 175.9 97.0371 175.9C97.994 175.9 98.9291 176.009 99.8425 176.227C100.756 176.444 101.615 176.759 102.419 177.173ZM113.542 176.063C114.064 176.063 114.52 176.259 114.912 176.651C115.325 177.02 115.531 177.488 115.531 178.053V196.908C115.531 197.473 115.325 197.952 114.912 198.343C114.498 198.713 114.02 198.898 113.476 198.898C112.867 198.898 112.378 198.713 112.008 198.343C111.639 197.952 111.454 197.473 111.454 196.908V178.053C111.454 177.488 111.65 177.02 112.041 176.651C112.433 176.259 112.933 176.063 113.542 176.063ZM127.993 176.063C128.602 176.063 129.091 176.259 129.461 176.651C129.83 177.02 130.015 177.488 130.015 178.053V196.908C130.015 197.473 129.819 197.952 129.428 198.343C129.058 198.713 128.558 198.898 127.927 198.898C127.405 198.898 126.938 198.713 126.525 198.343C126.133 197.952 125.937 197.473 125.937 196.908V178.053C125.937 177.488 126.144 177.02 126.557 176.651C126.97 176.259 127.449 176.063 127.993 176.063ZM113.444 185.556H127.993V189.307H113.444V185.556ZM160.908 198.898C160.299 198.898 159.799 198.713 159.407 198.343C159.016 197.952 158.82 197.473 158.82 196.908V177.988H163.061V196.908C163.061 197.473 162.854 197.952 162.441 198.343C162.049 198.713 161.538 198.898 160.908 198.898ZM153.698 179.815C153.133 179.815 152.655 179.641 152.263 179.293C151.893 178.945 151.709 178.488 151.709 177.923C151.709 177.357 151.893 176.912 152.263 176.585C152.655 176.237 153.133 176.063 153.698 176.063H168.182C168.747 176.063 169.215 176.237 169.585 176.585C169.976 176.933 170.172 177.39 170.172 177.955C170.172 178.521 169.976 178.978 169.585 179.325C169.215 179.652 168.747 179.815 168.182 179.815H153.698ZM180.251 176.063C180.773 176.063 181.23 176.259 181.621 176.651C182.034 177.02 182.241 177.488 182.241 178.053V196.908C182.241 197.473 182.034 197.952 181.621 198.343C181.208 198.713 180.729 198.898 180.186 198.898C179.577 198.898 179.087 198.713 178.718 198.343C178.348 197.952 178.163 197.473 178.163 196.908V178.053C178.163 177.488 178.359 177.02 178.75 176.651C179.142 176.259 179.642 176.063 180.251 176.063ZM194.702 176.063C195.311 176.063 195.8 176.259 196.17 176.651C196.54 177.02 196.724 177.488 196.724 178.053V196.908C196.724 197.473 196.529 197.952 196.137 198.343C195.768 198.713 195.267 198.898 194.637 198.898C194.115 198.898 193.647 198.713 193.234 198.343C192.843 197.952 192.647 197.473 192.647 196.908V178.053C192.647 177.488 192.853 177.02 193.267 176.651C193.68 176.259 194.158 176.063 194.702 176.063ZM180.153 185.556H194.702V189.307H180.153V185.556ZM210.254 196.908C210.254 197.473 210.047 197.952 209.634 198.343C209.221 198.713 208.742 198.898 208.199 198.898C207.59 198.898 207.1 198.713 206.731 198.343C206.361 197.952 206.176 197.473 206.176 196.908V178.053C206.176 177.488 206.372 177.02 206.763 176.651C207.155 176.259 207.655 176.063 208.264 176.063C208.786 176.063 209.243 176.259 209.634 176.651C210.047 177.02 210.254 177.488 210.254 178.053V196.908ZM227.066 199.224C225.544 199.224 224.174 199.039 222.956 198.67C221.738 198.278 220.575 197.604 219.466 196.647C219.183 196.408 218.965 196.136 218.813 195.832C218.661 195.527 218.585 195.223 218.585 194.918C218.585 194.418 218.759 193.983 219.107 193.613C219.476 193.222 219.933 193.026 220.477 193.026C220.89 193.026 221.26 193.157 221.586 193.418C222.412 194.092 223.228 194.603 224.032 194.951C224.859 195.299 225.87 195.473 227.066 195.473C227.871 195.473 228.61 195.353 229.284 195.114C229.959 194.853 230.502 194.516 230.915 194.103C231.329 193.668 231.535 193.178 231.535 192.635C231.535 191.982 231.34 191.428 230.948 190.971C230.557 190.514 229.959 190.134 229.154 189.829C228.349 189.503 227.327 189.253 226.088 189.079C224.913 188.905 223.88 188.644 222.989 188.296C222.097 187.926 221.347 187.47 220.738 186.926C220.151 186.361 219.705 185.708 219.4 184.969C219.096 184.208 218.944 183.36 218.944 182.424C218.944 181.011 219.302 179.804 220.02 178.804C220.76 177.803 221.749 177.042 222.989 176.52C224.228 175.998 225.598 175.737 227.099 175.737C228.512 175.737 229.817 175.955 231.013 176.39C232.231 176.803 233.221 177.336 233.982 177.988C234.612 178.488 234.928 179.065 234.928 179.717C234.928 180.195 234.743 180.63 234.373 181.022C234.004 181.413 233.569 181.609 233.068 181.609C232.742 181.609 232.449 181.511 232.188 181.315C231.84 181.011 231.372 180.728 230.785 180.467C230.198 180.184 229.578 179.956 228.926 179.782C228.273 179.586 227.664 179.489 227.099 179.489C226.164 179.489 225.37 179.608 224.718 179.847C224.087 180.087 223.608 180.413 223.282 180.826C222.956 181.239 222.793 181.718 222.793 182.261C222.793 182.914 222.978 183.457 223.347 183.892C223.739 184.306 224.293 184.643 225.011 184.904C225.729 185.143 226.588 185.36 227.588 185.556C228.893 185.795 230.035 186.078 231.013 186.404C232.014 186.73 232.84 187.154 233.492 187.676C234.145 188.177 234.634 188.818 234.96 189.601C235.287 190.362 235.45 191.297 235.45 192.406C235.45 193.82 235.058 195.038 234.275 196.06C233.492 197.082 232.459 197.865 231.176 198.409C229.915 198.952 228.545 199.224 227.066 199.224Z" fill="white"/>
<path d="M30.8102 176.553L30.0499 177.44L30.0624 177.45L30.0752 177.461L30.8102 176.553ZM31.3974 178.738L32.5035 179.114L32.515 179.08L32.5244 179.046L31.3974 178.738ZM24.9711 197.658L23.8649 197.283L23.8628 197.289L24.9711 197.658ZM24.2534 198.572L24.8545 199.573L24.8636 199.568L24.8726 199.562L24.2534 198.572ZM23.2096 198.898V200.066H23.2439L23.2782 200.064L23.2096 198.898ZM22.1005 198.572L21.4813 199.562L21.4946 199.571L21.5082 199.579L22.1005 198.572ZM21.285 197.626L20.2158 198.097L20.2223 198.111L20.2292 198.126L21.285 197.626ZM16.4571 186.665L17.1051 185.693L13.7743 183.473L15.388 187.136L16.4571 186.665ZM16.7507 186.861L17.819 187.334L18.2169 186.434L17.3987 185.889L16.7507 186.861ZM11.9881 197.626L13.0438 198.126L13.0503 198.112L13.0564 198.098L11.9881 197.626ZM11.1399 198.572L10.5476 197.565L10.5341 197.573L10.5208 197.581L11.1399 198.572ZM10.0634 198.898L9.99057 200.064L10.027 200.066H10.0634V198.898ZM9.01958 198.572L8.40042 199.562L8.42331 199.577L8.44684 199.59L9.01958 198.572ZM8.30193 197.658L9.41023 197.289L9.4081 197.283L8.30193 197.658ZM1.87565 178.738L0.748583 179.046L0.757988 179.08L0.769484 179.114L1.87565 178.738ZM2.46282 176.553L3.19789 177.461L3.20259 177.457L2.46282 176.553ZM5.07248 176.292L4.45332 177.282L4.46663 177.291L4.48016 177.299L5.07248 176.292ZM5.82276 177.238L4.70875 177.59L4.71099 177.597L4.71333 177.604L5.82276 177.238ZM11.0094 192.961L10.9564 194.128L12.65 194.205L12.1189 192.595L11.0094 192.961ZM10.2918 192.928L9.21333 192.479L8.57189 194.02L10.2387 194.095L10.2918 192.928ZM14.9239 181.805L13.8564 181.33L13.8508 181.343L13.8455 181.356L14.9239 181.805ZM15.6742 180.891L16.3222 181.863L16.344 181.849L16.3651 181.833L15.6742 180.891ZM16.7833 180.565L16.7219 181.732L16.7833 181.735L16.8447 181.732L16.7833 180.565ZM17.8924 180.891L17.2016 181.833L17.2226 181.849L17.2444 181.863L17.8924 180.891ZM18.6101 181.805L17.5212 182.228L17.5249 182.237L18.6101 181.805ZM22.8508 192.439L23.4699 193.43L24.2973 192.913L23.9359 192.006L22.8508 192.439ZM22.3288 192.765L21.2194 192.399L20.2069 195.469L22.948 193.756L22.3288 192.765ZM27.4503 177.238L28.5597 177.604L28.562 177.597L28.5643 177.59L27.4503 177.238ZM29.3749 177.134C29.5423 177.134 29.7601 177.191 30.0499 177.44L31.5705 175.666C30.9469 175.131 30.2078 174.797 29.3749 174.797V177.134ZM30.0752 177.461C30.2253 177.582 30.327 177.742 30.327 178.086H32.6635C32.6635 177.125 32.3085 176.263 31.5453 175.645L30.0752 177.461ZM30.327 178.086C30.327 178.154 30.3151 178.267 30.2703 178.431L32.5244 179.046C32.6101 178.732 32.6635 178.409 32.6635 178.086H30.327ZM30.2912 178.363L23.8649 197.283L26.0773 198.034L32.5035 179.114L30.2912 178.363ZM23.8628 197.289C23.8177 197.424 23.7505 197.508 23.6343 197.581L24.8726 199.562C25.4523 199.2 25.8636 198.675 26.0794 198.028L23.8628 197.289ZM23.6524 197.57C23.4832 197.671 23.3173 197.721 23.141 197.732L23.2782 200.064C23.8413 200.031 24.3712 199.863 24.8545 199.573L23.6524 197.57ZM23.2096 197.73C23.0796 197.73 22.9121 197.694 22.6928 197.565L21.5082 199.579C22.0283 199.885 22.6002 200.066 23.2096 200.066V197.73ZM22.7196 197.581C22.5823 197.495 22.4521 197.361 22.3407 197.126L20.2292 198.126C20.5093 198.717 20.9227 199.213 21.4813 199.562L22.7196 197.581ZM22.3541 197.155L17.5262 186.194L15.388 187.136L20.2158 198.097L22.3541 197.155ZM15.8091 187.637L16.1027 187.833L17.3987 185.889L17.1051 185.693L15.8091 187.637ZM15.6823 186.388L10.9197 197.153L13.0564 198.098L17.819 187.334L15.6823 186.388ZM10.9323 197.126C10.8298 197.342 10.702 197.474 10.5476 197.565L11.7322 199.579C12.3173 199.234 12.7549 198.736 13.0438 198.126L10.9323 197.126ZM10.5208 197.581C10.3374 197.696 10.1906 197.73 10.0634 197.73V200.066C10.6757 200.066 11.2465 199.883 11.7591 199.562L10.5208 197.581ZM10.1363 197.732C9.98784 197.723 9.8092 197.675 9.59232 197.553L8.44684 199.59C8.92588 199.859 9.44314 200.03 9.99057 200.064L10.1363 197.732ZM9.63875 197.581C9.52249 197.508 9.45534 197.424 9.41021 197.289L7.19364 198.028C7.40948 198.675 7.82077 199.2 8.40042 199.562L9.63875 197.581ZM9.4081 197.283L2.98182 178.363L0.769484 179.114L7.19576 198.034L9.4081 197.283ZM3.00272 178.431C2.9579 178.267 2.94602 178.154 2.94602 178.086H0.609556C0.609556 178.409 0.662922 178.732 0.748583 179.046L3.00272 178.431ZM2.94602 178.086C2.94602 177.742 3.04776 177.582 3.19788 177.461L1.72777 175.645C0.96451 176.263 0.609556 177.125 0.609556 178.086H2.94602ZM3.20259 177.457C3.52302 177.195 3.75921 177.134 3.93076 177.134V174.797C3.10194 174.797 2.3595 175.128 1.72306 175.649L3.20259 177.457ZM3.93076 177.134C4.12662 177.134 4.2924 177.182 4.45332 177.282L5.69164 175.301C5.15665 174.967 4.56128 174.797 3.93076 174.797V177.134ZM4.48016 177.299C4.59817 177.368 4.66423 177.449 4.70875 177.59L6.93676 176.886C6.72031 176.201 6.28619 175.65 5.6648 175.285L4.48016 177.299ZM4.71333 177.604L9.90002 193.327L12.1189 192.595L6.93219 176.872L4.71333 177.604ZM11.0625 191.794L10.3448 191.761L10.2387 194.095L10.9564 194.128L11.0625 191.794ZM11.3703 193.377L16.0024 182.254L13.8455 181.356L9.21333 192.479L11.3703 193.377ZM15.9915 182.279C16.0842 182.07 16.1971 181.947 16.3222 181.863L15.0262 179.919C14.4989 180.271 14.1116 180.756 13.8564 181.33L15.9915 182.279ZM16.3651 181.833C16.4686 181.757 16.5712 181.724 16.7219 181.732L16.8447 179.398C16.1691 179.363 15.5322 179.547 14.9834 179.949L16.3651 181.833ZM16.8447 181.732C16.9955 181.724 17.098 181.757 17.2016 181.833L18.5833 179.949C18.0344 179.547 17.3976 179.363 16.7219 179.398L16.8447 181.732ZM17.2444 181.863C17.3563 181.938 17.4495 182.044 17.5213 182.228L19.6989 181.381C19.4661 180.783 19.081 180.28 18.5404 179.919L17.2444 181.863ZM17.5249 182.237L21.7656 192.872L23.9359 192.006L19.6952 181.372L17.5249 182.237ZM22.2316 191.448L21.7097 191.775L22.948 193.756L23.4699 193.43L22.2316 191.448ZM23.4383 193.131L28.5597 177.604L26.3408 176.872L21.2194 192.399L23.4383 193.131ZM28.5643 177.59C28.6088 177.449 28.6749 177.368 28.7929 177.299L27.6082 175.285C26.9868 175.65 26.5527 176.201 26.3363 176.886L28.5643 177.59ZM28.7929 177.299C28.9902 177.183 29.1781 177.134 29.3749 177.134V174.797C28.7453 174.797 28.1503 174.966 27.6082 175.285L28.7929 177.299ZM46.6932 181.185L47.7683 181.642L48.6412 179.589L46.4565 180.041L46.6932 181.185ZM39.6471 197.756L38.572 197.299L38.5608 197.325L38.5509 197.352L39.6471 197.756ZM38.9294 198.735L39.6085 199.685L39.6144 199.681L39.6203 199.677L38.9294 198.735ZM36.6134 198.572L37.4962 197.807L37.4962 197.807L36.6134 198.572ZM36.2872 196.745L35.2087 196.296L35.1855 196.352L35.1682 196.409L36.2872 196.745ZM44.4097 177.238L45.4882 177.687L45.4914 177.679L45.4944 177.672L44.4097 177.238ZM45.1926 176.227L44.558 175.246L44.5442 175.255L44.5308 175.264L45.1926 176.227ZM46.367 175.933L46.2447 177.095L46.3056 177.101H46.367V175.933ZM47.4434 176.292L46.7526 177.234L46.7875 177.259L46.8243 177.282L47.4434 176.292ZM48.1937 177.238L47.0975 177.642L47.1065 177.666L47.1165 177.69L48.1937 177.238ZM56.2184 196.353L57.3088 195.934L57.3024 195.918L57.2956 195.901L56.2184 196.353ZM55.7943 198.539L55.0182 197.666L55.0058 197.677L54.9937 197.688L55.7943 198.539ZM53.4783 198.702L52.7565 199.621L52.7718 199.633L52.7874 199.644L53.4783 198.702ZM52.7606 197.724L53.8373 197.27L53.8342 197.263L52.7606 197.724ZM45.7472 181.381L45.5105 180.237L44.1094 180.526L44.6736 181.841L45.7472 181.381ZM40.6583 193.776L39.6044 193.272L38.8047 194.945H40.6583V193.776ZM42.4525 190.025V188.857H41.7162L41.3986 189.521L42.4525 190.025ZM51.2601 190.025L52.4127 189.835L52.2511 188.857H51.2601V190.025ZM51.8799 193.776V194.945H53.2569L53.0325 193.586L51.8799 193.776ZM45.6181 180.728L38.572 197.299L40.7222 198.213L47.7683 181.642L45.6181 180.728ZM38.5509 197.352C38.4707 197.57 38.3634 197.701 38.2386 197.793L39.6203 199.677C40.1479 199.29 40.5191 198.769 40.7433 198.16L38.5509 197.352ZM38.2504 197.784C38.1415 197.862 38.0413 197.893 37.9182 197.893V200.229C38.5345 200.229 39.1084 200.043 39.6085 199.685L38.2504 197.784ZM37.9182 197.893C37.7293 197.893 37.6186 197.866 37.5618 197.845C37.5126 197.826 37.5003 197.811 37.4962 197.807L35.7306 199.337C36.3072 200.002 37.1203 200.229 37.9182 200.229V197.893ZM37.4962 197.807C37.4179 197.716 37.3575 197.595 37.3575 197.365H35.0211C35.0211 198.092 35.2434 198.775 35.7306 199.337L37.4962 197.807ZM37.3575 197.365C37.3575 197.299 37.3685 197.206 37.4061 197.081L35.1682 196.409C35.0754 196.719 35.0211 197.039 35.0211 197.365H37.3575ZM37.3656 197.194L45.4882 177.687L43.3312 176.789L35.2087 196.296L37.3656 197.194ZM45.4944 177.672C45.5925 177.426 45.7171 177.284 45.8545 177.189L44.5308 175.264C43.9723 175.648 43.5749 176.179 43.325 176.804L45.4944 177.672ZM45.8273 177.207C45.9872 177.104 46.1137 177.081 46.2447 177.095L46.4893 174.771C45.7939 174.698 45.1374 174.871 44.558 175.246L45.8273 177.207ZM46.367 177.101C46.5012 177.101 46.6196 177.136 46.7526 177.234L48.1343 175.35C47.6149 174.969 47.0156 174.765 46.367 174.765V177.101ZM46.8243 177.282C46.936 177.352 47.0278 177.453 47.0975 177.642L49.2899 176.834C49.0551 176.197 48.6468 175.666 48.0626 175.301L46.8243 177.282ZM47.1165 177.69L55.1412 196.806L57.2956 195.901L49.2709 176.786L47.1165 177.69ZM55.128 196.773C55.1984 196.956 55.2133 197.073 55.2133 197.136H57.5497C57.5497 196.721 57.4559 196.317 57.3088 195.934L55.128 196.773ZM55.2133 197.136C55.2133 197.435 55.1285 197.568 55.0182 197.666L56.5705 199.412C57.2431 198.814 57.5497 198.012 57.5497 197.136H55.2133ZM54.9937 197.688C54.8144 197.857 54.6796 197.893 54.5548 197.893V200.229C55.3432 200.229 56.0349 199.917 56.595 199.39L54.9937 197.688ZM54.5548 197.893C54.4205 197.893 54.3021 197.858 54.1691 197.76L52.7874 199.644C53.3068 200.025 53.9061 200.229 54.5548 200.229V197.893ZM54.2 197.784C54.0745 197.685 53.9466 197.53 53.8373 197.27L51.6839 198.177C51.9226 198.744 52.2731 199.241 52.7565 199.621L54.2 197.784ZM53.8342 197.263L46.8207 180.92L44.6736 181.841L51.6871 198.184L53.8342 197.263ZM45.9839 182.525L46.9299 182.329L46.4565 180.041L45.5105 180.237L45.9839 182.525ZM41.7122 194.28L43.5064 190.529L41.3986 189.521L39.6044 193.272L41.7122 194.28ZM42.4525 191.193H51.2601V188.857H42.4525V191.193ZM50.1075 190.215L50.7272 193.967L53.0325 193.586L52.4127 189.835L50.1075 190.215ZM51.8799 192.608H40.6583V194.945H51.8799V192.608ZM68.3164 198.343L67.4903 199.169L67.5021 199.181L67.5142 199.193L68.3164 198.343ZM67.7292 177.988V176.82H66.5609V177.988H67.7292ZM71.9699 177.988H73.1381V176.82H71.9699V177.988ZM71.3501 198.343L72.1522 199.193L72.1535 199.191L71.3501 198.343ZM61.1724 179.293L60.3718 180.144L60.3839 180.155L60.3963 180.166L61.1724 179.293ZM61.1724 176.585L61.9454 177.461L61.9486 177.458L61.1724 176.585ZM78.494 176.585L77.6933 177.436L77.7054 177.447L77.7179 177.458L78.494 176.585ZM78.494 179.325L79.2669 180.201L79.2701 180.199L78.494 179.325ZM69.8169 197.73C69.4641 197.73 69.2642 197.632 69.1185 197.494L67.5142 199.193C68.1514 199.794 68.9519 200.066 69.8169 200.066V197.73ZM69.1424 197.517C68.9753 197.35 68.8974 197.171 68.8974 196.908H66.5609C66.5609 197.776 66.8746 198.554 67.4903 199.169L69.1424 197.517ZM68.8974 196.908V177.988H66.5609V196.908H68.8974ZM67.7292 179.156H71.9699V176.82H67.7292V179.156ZM70.8016 177.988V196.908H73.1381V177.988H70.8016ZM70.8016 196.908C70.8016 197.15 70.7287 197.323 70.5466 197.495L72.1535 199.191C72.7978 198.581 73.1381 197.797 73.1381 196.908H70.8016ZM70.5479 197.494C70.41 197.624 70.2039 197.73 69.8169 197.73V200.066C70.6912 200.066 71.5072 199.802 72.1522 199.193L70.5479 197.494ZM62.6077 178.647C62.3037 178.647 62.1084 178.562 61.9486 178.42L60.3963 180.166C61.0194 180.72 61.7809 180.983 62.6077 180.983V178.647ZM61.9731 178.442C61.8659 178.341 61.7861 178.207 61.7861 177.923H59.4496C59.4496 178.77 59.7395 179.549 60.3718 180.144L61.9731 178.442ZM61.7861 177.923C61.7861 177.638 61.8652 177.532 61.9453 177.461L60.3995 175.709C59.7403 176.291 59.4496 177.077 59.4496 177.923H61.7861ZM61.9486 177.458C62.1084 177.316 62.3037 177.232 62.6077 177.232V174.895C61.7809 174.895 61.0194 175.158 60.3963 175.712L61.9486 177.458ZM62.6077 177.232H77.0913V174.895H62.6077V177.232ZM77.0913 177.232C77.3959 177.232 77.5657 177.316 77.6933 177.436L79.2947 175.735C78.6829 175.159 77.9176 174.895 77.0913 174.895V177.232ZM77.7179 177.458C77.8384 177.566 77.9129 177.694 77.9129 177.955H80.2494C80.2494 177.086 79.9325 176.301 79.2701 175.712L77.7179 177.458ZM77.9129 177.955C77.9129 178.217 77.8384 178.345 77.7179 178.452L79.2701 180.199C79.9325 179.61 80.2494 178.825 80.2494 177.955H77.9129ZM77.7211 178.449C77.596 178.56 77.4166 178.647 77.0913 178.647V180.983C77.8969 180.983 78.6526 180.743 79.2669 180.201L77.7211 178.449ZM77.0913 178.647H62.6077V180.983H77.0913V178.647ZM102.419 177.173L101.886 178.212L101.897 178.217L102.419 177.173ZM103.398 178.51L102.242 178.675L102.245 178.695L102.248 178.715L103.398 178.51ZM102.941 180.174L102.041 179.43L102.017 179.459L101.994 179.49L102.941 180.174ZM101.832 180.826L101.722 179.663L101.716 179.664L101.832 180.826ZM100.495 180.565L100.997 179.51L100.989 179.507L100.982 179.503L100.495 180.565ZM98.8312 180.011L98.5685 181.149L98.5778 181.151L98.8312 180.011ZM93.8729 180.369L93.4434 179.283L93.4346 179.286L93.8729 180.369ZM91.5242 181.968L92.3637 182.78L92.3701 182.774L92.3765 182.767L91.5242 181.968ZM90.0236 184.382L88.9287 183.974L88.9245 183.986L88.9206 183.997L90.0236 184.382ZM90.0889 190.938L88.996 191.351L89 191.362L89.0042 191.372L90.0889 190.938ZM91.6873 193.385L90.8749 194.224L91.6873 193.385ZM94.0686 194.853L93.6757 195.953L93.6874 195.957L93.6992 195.961L94.0686 194.853ZM98.7986 195.147L99.0113 196.295L99.0113 196.295L98.7986 195.147ZM100.495 194.559L99.9926 193.505L99.9741 193.513L99.9559 193.523L100.495 194.559ZM101.832 194.331L101.659 195.486L101.667 195.487L101.832 194.331ZM102.974 195.016L102.052 195.733L102.057 195.74L102.062 195.746L102.974 195.016ZM103.431 196.712L102.29 196.459L102.287 196.475L102.284 196.492L103.431 196.712ZM102.452 197.952L101.947 196.899L101.938 196.903L101.93 196.907L102.452 197.952ZM100.691 198.67L101.022 199.79L101.035 199.786L101.048 199.782L100.691 198.67ZM98.8965 199.061L98.7313 197.904L98.7111 197.907L98.6911 197.911L98.8965 199.061ZM92.568 198.474L92.1729 199.573L92.1784 199.575L92.568 198.474ZM88.8167 196.256L88.0351 197.124L88.0437 197.132L88.8167 196.256ZM86.2396 192.602L85.165 193.06L85.1675 193.066L86.2396 192.602ZM86.1418 182.849L85.0629 182.4L85.06 182.407L85.0571 182.415L86.1418 182.849ZM88.5883 179.195L89.4057 180.03L89.4058 180.03L88.5883 179.195ZM92.3397 176.781L92.7679 177.868L92.775 177.865L92.782 177.862L92.3397 176.781ZM99.8425 176.227L100.113 175.09L100.113 175.09L99.8425 176.227ZM101.897 178.217C102.131 178.334 102.211 178.458 102.242 178.675L104.555 178.345C104.412 177.344 103.839 176.576 102.942 176.128L101.897 178.217ZM102.248 178.715C102.293 178.968 102.248 179.179 102.041 179.43L103.842 180.918C104.462 180.168 104.72 179.27 104.548 178.305L102.248 178.715ZM101.994 179.49C101.897 179.625 101.824 179.653 101.722 179.663L101.943 181.989C102.754 181.912 103.421 181.505 103.888 180.858L101.994 179.49ZM101.716 179.664C101.525 179.683 101.292 179.651 100.997 179.51L99.9926 181.62C100.611 181.914 101.27 182.056 101.949 181.988L101.716 179.664ZM100.982 179.503C100.381 179.228 99.7483 179.018 99.0846 178.87L98.5778 181.151C99.0885 181.264 99.5645 181.424 100.008 181.627L100.982 179.503ZM99.0939 178.872C98.4352 178.72 97.7486 178.647 97.0371 178.647V180.983C97.5869 180.983 98.0963 181.04 98.5685 181.149L99.0939 178.872ZM97.0371 178.647C95.74 178.647 94.5361 178.851 93.4434 179.283L94.3024 181.456C95.0799 181.148 95.9855 180.983 97.0371 180.983V178.647ZM93.4346 179.286C92.3696 179.718 91.444 180.345 90.6719 181.169L92.3765 182.767C92.9092 182.198 93.5494 181.761 94.3112 181.452L93.4346 179.286ZM90.6847 181.155C89.9131 181.953 89.3293 182.898 88.9287 183.974L91.1185 184.789C91.4139 183.995 91.8305 183.331 92.3637 182.78L90.6847 181.155ZM88.9206 183.997C88.5456 185.072 88.3661 186.237 88.3661 187.481H90.7026C90.7026 186.462 90.8493 185.562 91.1267 184.766L88.9206 183.997ZM88.3661 187.481C88.3661 188.912 88.5651 190.211 88.996 191.351L91.1817 190.526C90.8732 189.709 90.7026 188.702 90.7026 187.481H88.3661ZM89.0042 191.372C89.4492 192.485 90.0686 193.444 90.8749 194.224L92.4997 192.545C91.9577 192.021 91.5114 191.349 91.1736 190.505L89.0042 191.372ZM90.8749 194.224C91.6728 194.997 92.6109 195.573 93.6757 195.953L94.4615 193.753C93.6995 193.481 93.0501 193.078 92.4997 192.545L90.8749 194.224ZM93.6992 195.961C94.7437 196.309 95.8592 196.478 97.0371 196.478V194.141C96.0837 194.141 95.2203 194.005 94.438 193.745L93.6992 195.961ZM97.0371 196.478C97.6968 196.478 98.3552 196.417 99.0113 196.295L98.5859 193.998C98.0677 194.094 97.5517 194.141 97.0371 194.141V196.478ZM99.0113 196.295C99.7152 196.165 100.39 195.93 101.034 195.596L99.9559 193.523C99.5121 193.754 99.0564 193.911 98.5859 193.998L99.0113 196.295ZM100.997 195.614C101.276 195.481 101.487 195.461 101.659 195.486L102.006 193.176C101.307 193.071 100.627 193.203 99.9926 193.505L100.997 195.614ZM101.667 195.487C101.8 195.507 101.918 195.561 102.052 195.733L103.896 194.299C103.421 193.688 102.778 193.286 101.998 193.174L101.667 195.487ZM102.062 195.746C102.315 196.062 102.331 196.274 102.29 196.459L104.571 196.966C104.791 195.976 104.503 195.057 103.886 194.286L102.062 195.746ZM102.284 196.492C102.248 196.674 102.175 196.789 101.947 196.899L102.958 199.005C103.817 198.593 104.396 197.882 104.578 196.933L102.284 196.492ZM101.93 196.907C101.418 197.163 100.886 197.38 100.333 197.557L101.048 199.782C101.713 199.568 102.355 199.306 102.975 198.997L101.93 196.907ZM100.359 197.549C99.8264 197.707 99.284 197.826 98.7313 197.904L99.0617 200.217C99.7267 200.122 100.38 199.98 101.022 199.79L100.359 197.549ZM98.6911 197.911C98.1513 198.007 97.6002 198.056 97.0371 198.056V200.392C97.7353 200.392 98.4238 200.332 99.1018 200.211L98.6911 197.911ZM97.0371 198.056C95.5981 198.056 94.2407 197.826 92.9577 197.372L92.1784 199.575C93.7225 200.122 95.3445 200.392 97.0371 200.392V198.056ZM92.9631 197.374C91.7103 196.924 90.588 196.261 89.5896 195.38L88.0437 197.132C89.2635 198.208 90.6422 199.023 92.173 199.573L92.9631 197.374ZM89.5982 195.387C88.646 194.53 87.8815 193.454 87.3117 192.138L85.1675 193.066C85.8591 194.664 86.8127 196.024 88.0352 197.124L89.5982 195.387ZM87.3142 192.144C86.7566 190.836 86.4619 189.29 86.4619 187.481H84.1254C84.1254 189.542 84.4613 191.41 85.165 193.06L87.3142 192.144ZM86.4619 187.481C86.4619 185.94 86.7215 184.545 87.2265 183.282L85.0571 182.415C84.4312 183.979 84.1254 185.672 84.1254 187.481H86.4619ZM87.2206 183.297C87.7504 182.021 88.4794 180.937 89.4057 180.03L87.771 178.36C86.6095 179.498 85.7074 180.849 85.0629 182.4L87.2206 183.297ZM89.4058 180.03C90.356 179.099 91.4728 178.378 92.7679 177.868L91.9115 175.694C90.3359 176.315 88.9519 177.204 87.7708 178.36L89.4058 180.03ZM92.782 177.862C94.0643 177.338 95.4782 177.069 97.0371 177.069V174.732C95.2034 174.732 93.4857 175.05 91.8974 175.7L92.782 177.862ZM97.0371 177.069C97.9046 177.069 98.7488 177.167 99.5719 177.363L100.113 175.09C99.1093 174.851 98.0833 174.732 97.0371 174.732V177.069ZM99.5719 177.363C100.397 177.56 101.168 177.843 101.886 178.212L102.953 176.133C102.062 175.676 101.114 175.328 100.113 175.09L99.5719 177.363ZM114.912 176.651L114.086 177.477L114.109 177.5L114.133 177.521L114.912 176.651ZM114.912 198.343L115.691 199.214L115.703 199.203L115.715 199.191L114.912 198.343ZM112.008 198.343L111.159 199.145L111.171 199.158L111.182 199.169L112.008 198.343ZM112.041 176.651L112.843 177.5L112.855 177.488L112.867 177.477L112.041 176.651ZM129.461 176.651L128.611 177.453L128.623 177.465L128.634 177.477L129.461 176.651ZM129.428 198.343L130.254 199.169L130.254 199.169L129.428 198.343ZM126.525 198.343L125.699 199.169L125.722 199.192L125.746 199.214L126.525 198.343ZM126.557 176.651L127.336 177.521L127.349 177.51L127.361 177.499L126.557 176.651ZM113.444 185.556V184.388H112.276V185.556H113.444ZM127.993 185.556H129.161V184.388H127.993V185.556ZM127.993 189.307V190.476H129.161V189.307H127.993ZM113.444 189.307H112.276V190.476H113.444V189.307ZM113.542 177.232C113.733 177.232 113.899 177.29 114.086 177.477L115.738 175.825C115.142 175.229 114.394 174.895 113.542 174.895V177.232ZM114.133 177.521C114.293 177.664 114.363 177.813 114.363 178.053H116.7C116.7 177.163 116.357 176.376 115.691 175.78L114.133 177.521ZM114.363 178.053V196.908H116.7V178.053H114.363ZM114.363 196.908C114.363 197.15 114.29 197.323 114.108 197.495L115.715 199.191C116.359 198.581 116.7 197.797 116.7 196.908H114.363ZM114.133 197.473C113.929 197.655 113.726 197.73 113.476 197.73V200.066C114.314 200.066 115.068 199.771 115.691 199.214L114.133 197.473ZM113.476 197.73C113.122 197.73 112.949 197.632 112.835 197.517L111.182 199.169C111.807 199.794 112.613 200.066 113.476 200.066V197.73ZM112.858 197.541C112.704 197.378 112.622 197.192 112.622 196.908H110.286C110.286 197.755 110.574 198.525 111.159 199.145L112.858 197.541ZM112.622 196.908V178.053H110.286V196.908H112.622ZM112.622 178.053C112.622 177.791 112.698 177.637 112.843 177.5L111.239 175.801C110.601 176.404 110.286 177.185 110.286 178.053H112.622ZM112.867 177.477C113.017 177.327 113.209 177.232 113.542 177.232V174.895C112.657 174.895 111.848 175.191 111.215 175.825L112.867 177.477ZM127.993 177.232C128.326 177.232 128.492 177.327 128.611 177.453L130.31 175.848C129.69 175.192 128.877 174.895 127.993 174.895V177.232ZM128.634 177.477C128.766 177.608 128.847 177.77 128.847 178.053H131.183C131.183 177.206 130.894 176.432 130.287 175.825L128.634 177.477ZM128.847 178.053V196.908H131.183V178.053H128.847ZM128.847 196.908C128.847 197.171 128.769 197.35 128.602 197.517L130.254 199.169C130.87 198.554 131.183 197.776 131.183 196.908H128.847ZM128.602 197.517C128.495 197.624 128.316 197.73 127.927 197.73V200.066C128.8 200.066 129.621 199.802 130.254 199.169L128.602 197.517ZM127.927 197.73C127.712 197.73 127.517 197.664 127.304 197.473L125.746 199.214C126.359 199.762 127.099 200.066 127.927 200.066V197.73ZM127.351 197.517C127.184 197.35 127.106 197.171 127.106 196.908H124.769C124.769 197.776 125.083 198.554 125.699 199.169L127.351 197.517ZM127.106 196.908V178.053H124.769V196.908H127.106ZM127.106 178.053C127.106 177.813 127.176 177.664 127.336 177.521L125.778 175.78C125.112 176.376 124.769 177.163 124.769 178.053H127.106ZM127.361 177.499C127.568 177.302 127.763 177.232 127.993 177.232V174.895C127.135 174.895 126.373 175.216 125.754 175.802L127.361 177.499ZM113.444 186.724H127.993V184.388H113.444V186.724ZM126.824 185.556V189.307H129.161V185.556H126.824ZM127.993 188.139H113.444V190.476H127.993V188.139ZM114.612 189.307V185.556H112.276V189.307H114.612ZM159.407 198.343L158.581 199.169L158.593 199.181L158.605 199.193L159.407 198.343ZM158.82 177.988V176.82H157.652V177.988H158.82ZM163.061 177.988H164.229V176.82H163.061V177.988ZM162.441 198.343L163.243 199.193L163.244 199.191L162.441 198.343ZM152.263 179.293L151.462 180.144L151.475 180.155L151.487 180.166L152.263 179.293ZM152.263 176.585L153.036 177.461L153.039 177.458L152.263 176.585ZM169.585 176.585L168.784 177.436L168.796 177.447L168.809 177.458L169.585 176.585ZM169.585 179.325L170.358 180.201L170.361 180.199L169.585 179.325ZM160.908 197.73C160.555 197.73 160.355 197.632 160.209 197.494L158.605 199.193C159.242 199.794 160.043 200.066 160.908 200.066V197.73ZM160.233 197.517C160.066 197.35 159.988 197.171 159.988 196.908H157.652C157.652 197.776 157.965 198.554 158.581 199.169L160.233 197.517ZM159.988 196.908V177.988H157.652V196.908H159.988ZM158.82 179.156H163.061V176.82H158.82V179.156ZM161.892 177.988V196.908H164.229V177.988H161.892ZM161.892 196.908C161.892 197.15 161.819 197.323 161.637 197.495L163.244 199.191C163.889 198.581 164.229 197.797 164.229 196.908H161.892ZM161.639 197.494C161.501 197.624 161.295 197.73 160.908 197.73V200.066C161.782 200.066 162.598 199.802 163.243 199.193L161.639 197.494ZM153.698 178.647C153.394 178.647 153.199 178.562 153.039 178.42L151.487 180.166C152.11 180.72 152.872 180.983 153.698 180.983V178.647ZM153.064 178.442C152.957 178.341 152.877 178.207 152.877 177.923H150.54C150.54 178.77 150.83 179.549 151.462 180.144L153.064 178.442ZM152.877 177.923C152.877 177.638 152.956 177.532 153.036 177.461L151.49 175.709C150.831 176.291 150.54 177.077 150.54 177.923H152.877ZM153.039 177.458C153.199 177.316 153.394 177.232 153.698 177.232V174.895C152.872 174.895 152.11 175.158 151.487 175.712L153.039 177.458ZM153.698 177.232H168.182V174.895H153.698V177.232ZM168.182 177.232C168.487 177.232 168.656 177.316 168.784 177.436L170.385 175.735C169.774 175.159 169.008 174.895 168.182 174.895V177.232ZM168.809 177.458C168.929 177.566 169.004 177.694 169.004 177.955H171.34C171.34 177.086 171.023 176.301 170.361 175.712L168.809 177.458ZM169.004 177.955C169.004 178.217 168.929 178.345 168.809 178.452L170.361 180.199C171.023 179.61 171.34 178.825 171.34 177.955H169.004ZM168.812 178.449C168.687 178.56 168.507 178.647 168.182 178.647V180.983C168.988 180.983 169.743 180.743 170.358 180.201L168.812 178.449ZM168.182 178.647H153.698V180.983H168.182V178.647ZM181.621 176.651L180.795 177.477L180.818 177.5L180.842 177.521L181.621 176.651ZM181.621 198.343L182.4 199.214L182.412 199.203L182.424 199.191L181.621 198.343ZM178.718 198.343L177.868 199.145L177.88 199.158L177.892 199.169L178.718 198.343ZM178.75 176.651L179.553 177.5L179.565 177.488L179.576 177.477L178.75 176.651ZM196.17 176.651L195.321 177.453L195.332 177.465L195.344 177.477L196.17 176.651ZM196.137 198.343L196.963 199.169L196.963 199.169L196.137 198.343ZM193.234 198.343L192.408 199.169L192.431 199.192L192.455 199.214L193.234 198.343ZM193.267 176.651L194.046 177.521L194.058 177.51L194.07 177.499L193.267 176.651ZM180.153 185.556V184.388H178.985V185.556H180.153ZM194.702 185.556H195.87V184.388H194.702V185.556ZM194.702 189.307V190.476H195.87V189.307H194.702ZM180.153 189.307H178.985V190.476H180.153V189.307ZM180.251 177.232C180.443 177.232 180.608 177.29 180.795 177.477L182.447 175.825C181.851 175.229 181.103 174.895 180.251 174.895V177.232ZM180.842 177.521C181.002 177.664 181.073 177.813 181.073 178.053H183.409C183.409 177.163 183.066 176.376 182.4 175.78L180.842 177.521ZM181.073 178.053V196.908H183.409V178.053H181.073ZM181.073 196.908C181.073 197.15 181 197.323 180.818 197.495L182.424 199.191C183.069 198.581 183.409 197.797 183.409 196.908H181.073ZM180.842 197.473C180.638 197.655 180.436 197.73 180.186 197.73V200.066C181.023 200.066 181.777 199.771 182.4 199.214L180.842 197.473ZM180.186 197.73C179.831 197.73 179.658 197.632 179.544 197.517L177.892 199.169C178.517 199.794 179.322 200.066 180.186 200.066V197.73ZM179.567 197.541C179.413 197.378 179.331 197.192 179.331 196.908H176.995C176.995 197.755 177.283 198.525 177.868 199.145L179.567 197.541ZM179.331 196.908V178.053H176.995V196.908H179.331ZM179.331 178.053C179.331 177.791 179.408 177.637 179.553 177.5L177.948 175.801C177.31 176.404 176.995 177.185 176.995 178.053H179.331ZM179.576 177.477C179.726 177.327 179.918 177.232 180.251 177.232V174.895C179.366 174.895 178.558 175.191 177.924 175.825L179.576 177.477ZM194.702 177.232C195.036 177.232 195.201 177.327 195.321 177.453L197.019 175.848C196.399 175.192 195.586 174.895 194.702 174.895V177.232ZM195.344 177.477C195.475 177.608 195.556 177.77 195.556 178.053H197.893C197.893 177.206 197.604 176.432 196.996 175.825L195.344 177.477ZM195.556 178.053V196.908H197.893V178.053H195.556ZM195.556 196.908C195.556 197.171 195.478 197.35 195.311 197.517L196.963 199.169C197.579 198.554 197.893 197.776 197.893 196.908H195.556ZM195.311 197.517C195.205 197.624 195.026 197.73 194.637 197.73V200.066C195.509 200.066 196.331 199.802 196.963 199.169L195.311 197.517ZM194.637 197.73C194.421 197.73 194.226 197.664 194.013 197.473L192.455 199.214C193.068 199.762 193.808 200.066 194.637 200.066V197.73ZM194.06 197.517C193.893 197.35 193.815 197.171 193.815 196.908H191.479C191.479 197.776 191.792 198.554 192.408 199.169L194.06 197.517ZM193.815 196.908V178.053H191.479V196.908H193.815ZM193.815 178.053C193.815 177.813 193.886 177.664 194.046 177.521L192.488 175.78C191.821 176.376 191.479 177.163 191.479 178.053H193.815ZM194.07 177.499C194.277 177.302 194.472 177.232 194.702 177.232V174.895C193.844 174.895 193.082 175.216 192.463 175.802L194.07 177.499ZM180.153 186.724H194.702V184.388H180.153V186.724ZM193.534 185.556V189.307H195.87V185.556H193.534ZM194.702 188.139H180.153V190.476H194.702V188.139ZM181.321 189.307V185.556H178.985V189.307H181.321ZM209.634 198.343L210.413 199.214L210.425 199.203L210.437 199.191L209.634 198.343ZM206.731 198.343L205.881 199.145L205.893 199.158L205.905 199.169L206.731 198.343ZM206.763 176.651L207.566 177.5L207.578 177.488L207.589 177.477L206.763 176.651ZM209.634 176.651L208.808 177.477L208.831 177.5L208.855 177.521L209.634 176.651ZM209.086 196.908C209.086 197.15 209.013 197.323 208.831 197.495L210.437 199.191C211.082 198.581 211.422 197.797 211.422 196.908H209.086ZM208.855 197.473C208.651 197.655 208.449 197.73 208.199 197.73V200.066C209.036 200.066 209.79 199.771 210.413 199.214L208.855 197.473ZM208.199 197.73C207.845 197.73 207.671 197.632 207.557 197.517L205.905 199.169C206.53 199.794 207.335 200.066 208.199 200.066V197.73ZM207.58 197.541C207.426 197.378 207.344 197.192 207.344 196.908H205.008C205.008 197.755 205.296 198.525 205.881 199.145L207.58 197.541ZM207.344 196.908V178.053H205.008V196.908H207.344ZM207.344 178.053C207.344 177.791 207.421 177.637 207.566 177.5L205.961 175.801C205.323 176.404 205.008 177.185 205.008 178.053H207.344ZM207.589 177.477C207.739 177.327 207.931 177.232 208.264 177.232V174.895C207.379 174.895 206.571 175.191 205.937 175.825L207.589 177.477ZM208.264 177.232C208.456 177.232 208.621 177.29 208.808 177.477L210.46 175.825C209.864 175.229 209.116 174.895 208.264 174.895V177.232ZM208.855 177.521C209.015 177.664 209.086 177.813 209.086 178.053H211.422C211.422 177.163 211.079 176.376 210.413 175.78L208.855 177.521ZM209.086 178.053V196.908H211.422V178.053H209.086ZM222.956 198.67L222.599 199.782L222.608 199.785L222.617 199.787L222.956 198.67ZM219.466 196.647L220.229 195.762L220.22 195.755L219.466 196.647ZM219.107 193.613L218.257 192.811L218.256 192.813L219.107 193.613ZM221.586 193.418L222.324 192.512L222.316 192.505L221.586 193.418ZM224.032 194.951L223.569 196.023L223.579 196.027L224.032 194.951ZM229.284 195.114L229.675 196.215L229.691 196.209L229.706 196.203L229.284 195.114ZM230.915 194.103L231.742 194.929L231.752 194.918L231.762 194.907L230.915 194.103ZM230.948 190.971L231.835 190.211L231.835 190.211L230.948 190.971ZM229.154 189.829L228.715 190.912L228.728 190.917L228.741 190.922L229.154 189.829ZM226.088 189.079L225.916 190.235L225.925 190.236L226.088 189.079ZM222.989 188.296L222.541 189.375L222.552 189.38L222.564 189.384L222.989 188.296ZM220.738 186.926L219.927 187.768L219.943 187.783L219.96 187.798L220.738 186.926ZM219.4 184.969L218.316 185.403L218.32 185.414L219.4 184.969ZM220.02 178.804L219.081 178.109L219.076 178.116L219.071 178.123L220.02 178.804ZM222.989 176.52L223.442 177.597L223.442 177.597L222.989 176.52ZM231.013 176.39L230.614 177.488L230.626 177.492L230.638 177.496L231.013 176.39ZM233.982 177.988L233.222 178.875L233.238 178.89L233.256 178.903L233.982 177.988ZM234.373 181.022L235.223 181.824L235.223 181.824L234.373 181.022ZM232.188 181.315L231.418 182.195L231.451 182.224L231.487 182.25L232.188 181.315ZM230.785 180.467L230.278 181.52L230.294 181.528L230.311 181.535L230.785 180.467ZM228.926 179.782L228.59 180.901L228.607 180.906L228.625 180.911L228.926 179.782ZM224.718 179.847L224.315 178.751L224.303 178.755L224.718 179.847ZM223.347 183.892L222.457 184.649L222.478 184.673L222.499 184.696L223.347 183.892ZM225.011 184.904L224.612 186.002L224.627 186.007L224.642 186.012L225.011 184.904ZM227.588 185.556L227.364 186.703L227.377 186.705L227.588 185.556ZM231.013 186.404L230.644 187.512L230.651 187.515L231.013 186.404ZM233.492 187.676L232.763 188.589L232.772 188.596L232.782 188.603L233.492 187.676ZM234.96 189.601L233.882 190.05L233.887 190.061L234.96 189.601ZM234.275 196.06L233.348 195.35L233.348 195.35L234.275 196.06ZM231.176 198.409L230.721 197.333L230.714 197.336L231.176 198.409ZM227.066 198.056C225.637 198.056 224.384 197.882 223.295 197.552L222.617 199.787C223.964 200.196 225.451 200.392 227.066 200.392V198.056ZM223.313 197.557C222.265 197.22 221.236 196.632 220.229 195.763L218.702 197.532C219.913 198.576 221.211 199.336 222.599 199.782L223.313 197.557ZM220.22 195.755C220.048 195.609 219.934 195.46 219.858 195.309L217.768 196.354C217.997 196.812 218.318 197.207 218.711 197.539L220.22 195.755ZM219.858 195.309C219.777 195.147 219.753 195.021 219.753 194.918H217.417C217.417 195.424 217.545 195.907 217.768 196.354L219.858 195.309ZM219.753 194.918C219.753 194.721 219.81 194.571 219.957 194.414L218.256 192.813C217.708 193.395 217.417 194.115 217.417 194.918H219.753ZM219.956 194.415C220.103 194.26 220.251 194.194 220.477 194.194V191.858C219.615 191.858 218.85 192.184 218.257 192.811L219.956 194.415ZM220.477 194.194C220.622 194.194 220.735 194.233 220.856 194.33L222.316 192.505C221.785 192.081 221.158 191.858 220.477 191.858V194.194ZM220.847 194.323C221.74 195.051 222.647 195.624 223.569 196.023L224.496 193.879C223.809 193.581 223.085 193.133 222.324 192.512L220.847 194.323ZM223.579 196.027C224.588 196.452 225.764 196.641 227.066 196.641V194.304C225.977 194.304 225.129 194.145 224.486 193.874L223.579 196.027ZM227.066 196.641C227.987 196.641 228.861 196.504 229.675 196.215L228.894 194.013C228.36 194.202 227.754 194.304 227.066 194.304V196.641ZM229.706 196.203C230.497 195.897 231.189 195.481 231.742 194.929L230.089 193.277C229.815 193.551 229.42 193.809 228.863 194.024L229.706 196.203ZM231.762 194.907C232.359 194.28 232.703 193.51 232.703 192.635H230.367C230.367 192.847 230.299 193.056 230.068 193.298L231.762 194.907ZM232.703 192.635C232.703 191.729 232.424 190.898 231.835 190.211L230.061 191.731C230.255 191.958 230.367 192.236 230.367 192.635H232.703ZM231.835 190.211C231.273 189.555 230.481 189.082 229.567 188.737L228.741 190.922C229.436 191.185 229.84 191.474 230.061 191.731L231.835 190.211ZM229.593 188.747C228.67 188.373 227.547 188.104 226.25 187.922L225.925 190.236C227.108 190.402 228.029 190.634 228.715 190.912L229.593 188.747ZM226.259 187.923C225.151 187.759 224.207 187.517 223.413 187.208L222.564 189.384C223.554 189.771 224.675 190.051 225.916 190.235L226.259 187.923ZM223.436 187.217C222.644 186.889 222.011 186.497 221.516 186.055L219.96 187.798C220.682 188.443 221.55 188.964 222.541 189.375L223.436 187.217ZM221.548 186.085C221.075 185.629 220.722 185.111 220.481 184.524L218.32 185.414C218.687 186.305 219.226 187.092 219.927 187.768L221.548 186.085ZM220.485 184.535C220.243 183.93 220.112 183.232 220.112 182.424H217.775C217.775 183.487 217.949 184.486 218.316 185.403L220.485 184.535ZM220.112 182.424C220.112 181.218 220.415 180.258 220.969 179.485L219.071 178.123C218.19 179.35 217.775 180.804 217.775 182.424H220.112ZM220.96 179.498C221.564 178.68 222.38 178.044 223.442 177.597L222.535 175.443C221.119 176.04 219.955 176.926 219.081 178.109L220.96 179.498ZM223.442 177.597C224.522 177.142 225.736 176.905 227.099 176.905V174.569C225.461 174.569 223.934 174.854 222.535 175.443L223.442 177.597ZM227.099 176.905C228.391 176.905 229.559 177.104 230.614 177.488L231.413 175.292C230.075 174.805 228.634 174.569 227.099 174.569V176.905ZM230.638 177.496C231.753 177.874 232.601 178.343 233.222 178.875L234.742 177.101C233.841 176.328 232.709 175.731 231.389 175.283L230.638 177.496ZM233.256 178.903C233.679 179.239 233.76 179.504 233.76 179.717H236.096C236.096 178.625 235.546 177.737 234.708 177.073L233.256 178.903ZM233.76 179.717C233.76 179.859 233.717 180.016 233.524 180.22L235.223 181.824C235.769 181.245 236.096 180.532 236.096 179.717H233.76ZM233.524 180.22C233.356 180.397 233.221 180.441 233.068 180.441V182.777C233.916 182.777 234.651 182.429 235.223 181.824L233.524 180.22ZM233.068 180.441C232.995 180.441 232.947 180.425 232.889 180.381L231.487 182.25C231.95 182.597 232.489 182.777 233.068 182.777V180.441ZM232.957 180.436C232.494 180.031 231.915 179.691 231.259 179.4L230.311 181.535C230.829 181.765 231.186 181.991 231.418 182.195L232.957 180.436ZM231.292 179.415C230.636 179.099 229.947 178.846 229.227 178.653L228.625 180.911C229.209 181.067 229.759 181.27 230.278 181.52L231.292 179.415ZM229.261 178.663C228.521 178.441 227.798 178.32 227.099 178.32V180.657C227.53 180.657 228.025 180.732 228.59 180.901L229.261 178.663ZM227.099 178.32C226.071 178.32 225.133 178.451 224.315 178.751L225.12 180.944C225.607 180.765 226.256 180.657 227.099 180.657V178.32ZM224.303 178.755C223.529 179.049 222.855 179.482 222.365 180.102L224.199 181.55C224.362 181.343 224.644 181.125 225.132 180.94L224.303 178.755ZM222.365 180.102C221.871 180.729 221.625 181.464 221.625 182.261H223.961C223.961 181.971 224.041 181.75 224.199 181.55L222.365 180.102ZM221.625 182.261C221.625 183.149 221.883 183.973 222.457 184.649L224.238 183.136C224.073 182.942 223.961 182.679 223.961 182.261H221.625ZM222.499 184.696C223.051 185.278 223.779 185.699 224.612 186.002L225.41 183.806C224.808 183.587 224.427 183.333 224.196 183.089L222.499 184.696ZM224.642 186.012C225.42 186.271 226.33 186.5 227.364 186.703L227.812 184.41C226.846 184.22 226.038 184.014 225.381 183.795L224.642 186.012ZM227.377 186.705C228.643 186.937 229.729 187.208 230.644 187.512L231.383 185.296C230.34 184.948 229.143 184.653 227.799 184.407L227.377 186.705ZM230.651 187.515C231.551 187.808 232.244 188.174 232.763 188.589L234.222 186.764C233.436 186.135 232.476 185.652 231.375 185.293L230.651 187.515ZM232.782 188.603C233.267 188.975 233.632 189.45 233.882 190.05L236.039 189.152C235.637 188.186 235.023 187.378 234.203 186.749L232.782 188.603ZM233.887 190.061C234.133 190.637 234.281 191.405 234.281 192.406H236.618C236.618 191.19 236.44 190.088 236.034 189.141L233.887 190.061ZM234.281 192.406C234.281 193.59 233.959 194.551 233.348 195.35L235.203 196.77C236.157 195.524 236.618 194.05 236.618 192.406H234.281ZM233.348 195.35C232.698 196.198 231.833 196.861 230.721 197.333L231.632 199.484C233.086 198.868 234.287 197.966 235.203 196.77L233.348 195.35ZM230.714 197.336C229.61 197.812 228.398 198.056 227.066 198.056V200.392C228.692 200.392 230.221 200.093 231.639 199.481L230.714 197.336Z" fill="black"/>
</g>
</mask>
<g mask="url(#mask2_37_2)">
<path id="Ellipse 3_3" d="M285.891 180.756C285.891 271.722 212.148 345.466 121.181 345.466C30.214 345.466 -43.5292 271.722 -43.5292 180.756C-43.5292 89.7888 30.214 16.0456 121.181 16.0456C212.148 16.0456 285.891 89.7888 285.891 180.756Z" fill="url(#paint4_angular_37_2)"/>
<g id="Watch This_2">
<path d="M29.3749 175.923C29.8751 175.923 30.3535 176.119 30.8102 176.51C31.2669 176.88 31.4952 177.391 31.4952 178.044C31.4952 178.239 31.4626 178.457 31.3974 178.696L24.9711 197.616C24.8406 198.008 24.6014 198.312 24.2534 198.529C23.9272 198.725 23.5793 198.834 23.2096 198.856C22.8399 198.856 22.4702 198.747 22.1005 198.529C21.7525 198.312 21.4807 197.997 21.285 197.583L16.4571 186.623L16.7507 186.819L11.9881 197.583C11.7923 197.997 11.5096 198.312 11.1399 198.529C10.792 198.747 10.4331 198.856 10.0634 198.856C9.71549 198.834 9.36754 198.725 9.01958 198.529C8.67163 198.312 8.43241 198.008 8.30193 197.616L1.87565 178.696C1.81041 178.457 1.77779 178.239 1.77779 178.044C1.77779 177.391 2.00614 176.88 2.46282 176.51C2.94126 176.119 3.43057 175.923 3.93076 175.923C4.34395 175.923 4.72453 176.032 5.07248 176.25C5.44218 176.467 5.69227 176.782 5.82276 177.196L11.0094 192.919L10.2918 192.886L14.9239 181.762C15.0979 181.371 15.348 181.067 15.6742 180.849C16.0004 180.61 16.3701 180.501 16.7833 180.523C17.1965 180.501 17.5662 180.61 17.8924 180.849C18.2186 181.067 18.4578 181.371 18.6101 181.762L22.8508 192.397L22.3288 192.723L27.4503 177.196C27.5808 176.782 27.8308 176.467 28.2005 176.25C28.5703 176.032 28.9617 175.923 29.3749 175.923ZM46.6932 181.143L39.6471 197.714C39.4949 198.127 39.2556 198.453 38.9294 198.693C38.625 198.91 38.2879 199.019 37.9182 199.019C37.331 199.019 36.8961 198.856 36.6134 198.529C36.3307 198.203 36.1893 197.801 36.1893 197.322C36.1893 197.127 36.2219 196.92 36.2872 196.703L44.4097 177.196C44.5837 176.761 44.8447 176.424 45.1926 176.184C45.5623 175.945 45.9538 175.847 46.367 175.891C46.7584 175.891 47.1172 176.01 47.4434 176.25C47.7914 176.467 48.0415 176.782 48.1937 177.196L56.2184 196.311C56.3271 196.594 56.3815 196.855 56.3815 197.094C56.3815 197.681 56.1858 198.149 55.7943 198.497C55.4246 198.845 55.0114 199.019 54.5548 199.019C54.1633 199.019 53.8045 198.899 53.4783 198.66C53.1738 198.421 52.9346 198.095 52.7606 197.681L45.7472 181.338L46.6932 181.143ZM40.6583 193.734L42.4525 189.983H51.2601L51.8799 193.734H40.6583ZM69.8169 198.856C69.208 198.856 68.7078 198.671 68.3164 198.301C67.9249 197.91 67.7292 197.431 67.7292 196.866V177.946H71.9699V196.866C71.9699 197.431 71.7633 197.91 71.3501 198.301C70.9586 198.671 70.4476 198.856 69.8169 198.856ZM62.6077 179.773C62.0423 179.773 61.5639 179.599 61.1724 179.251C60.8027 178.903 60.6179 178.446 60.6179 177.881C60.6179 177.315 60.8027 176.869 61.1724 176.543C61.5639 176.195 62.0423 176.021 62.6077 176.021H77.0913C77.6567 176.021 78.1243 176.195 78.494 176.543C78.8855 176.891 79.0812 177.348 79.0812 177.913C79.0812 178.479 78.8855 178.935 78.494 179.283C78.1243 179.609 77.6567 179.773 77.0913 179.773H62.6077ZM102.419 177.13C102.985 177.413 103.311 177.859 103.398 178.468C103.507 179.077 103.355 179.631 102.941 180.131C102.659 180.523 102.289 180.74 101.832 180.784C101.397 180.827 100.952 180.74 100.495 180.523C99.9729 180.284 99.4184 180.099 98.8312 179.968C98.2658 179.838 97.6678 179.773 97.0371 179.773C95.8627 179.773 94.808 179.957 93.8729 180.327C92.9595 180.697 92.1766 181.23 91.5242 181.926C90.8718 182.6 90.3716 183.404 90.0236 184.339C89.6974 185.275 89.5343 186.308 89.5343 187.438C89.5343 188.765 89.7192 189.918 90.0889 190.896C90.4803 191.875 91.0131 192.69 91.6873 193.343C92.3615 193.995 93.1552 194.484 94.0686 194.811C94.982 195.115 95.9715 195.267 97.0371 195.267C97.6243 195.267 98.2114 195.213 98.7986 195.104C99.3858 194.996 99.9512 194.8 100.495 194.517C100.952 194.3 101.397 194.224 101.832 194.289C102.289 194.354 102.67 194.582 102.974 194.974C103.409 195.517 103.561 196.083 103.431 196.67C103.322 197.236 102.996 197.649 102.452 197.91C101.887 198.192 101.3 198.432 100.691 198.627C100.103 198.801 99.5054 198.932 98.8965 199.019C98.2875 199.128 97.6678 199.182 97.0371 199.182C95.4713 199.182 93.9816 198.932 92.568 198.432C91.1762 197.931 89.9258 197.192 88.8167 196.213C87.7293 195.235 86.8703 194.017 86.2396 192.56C85.609 191.081 85.2936 189.374 85.2936 187.438C85.2936 185.764 85.5763 184.22 86.1418 182.806C86.7289 181.393 87.5445 180.175 88.5883 179.153C89.6539 178.109 90.9044 177.304 92.3397 176.739C93.775 176.152 95.3408 175.858 97.0371 175.858C97.994 175.858 98.9291 175.967 99.8425 176.184C100.756 176.402 101.615 176.717 102.419 177.13ZM113.542 176.021C114.064 176.021 114.52 176.217 114.912 176.608C115.325 176.978 115.531 177.446 115.531 178.011V196.866C115.531 197.431 115.325 197.91 114.912 198.301C114.498 198.671 114.02 198.856 113.476 198.856C112.867 198.856 112.378 198.671 112.008 198.301C111.639 197.91 111.454 197.431 111.454 196.866V178.011C111.454 177.446 111.65 176.978 112.041 176.608C112.433 176.217 112.933 176.021 113.542 176.021ZM127.993 176.021C128.602 176.021 129.091 176.217 129.461 176.608C129.83 176.978 130.015 177.446 130.015 178.011V196.866C130.015 197.431 129.819 197.91 129.428 198.301C129.058 198.671 128.558 198.856 127.927 198.856C127.405 198.856 126.938 198.671 126.525 198.301C126.133 197.91 125.937 197.431 125.937 196.866V178.011C125.937 177.446 126.144 176.978 126.557 176.608C126.97 176.217 127.449 176.021 127.993 176.021ZM113.444 185.514H127.993V189.265H113.444V185.514ZM160.908 198.856C160.299 198.856 159.799 198.671 159.407 198.301C159.016 197.91 158.82 197.431 158.82 196.866V177.946H163.061V196.866C163.061 197.431 162.854 197.91 162.441 198.301C162.049 198.671 161.538 198.856 160.908 198.856ZM153.698 179.773C153.133 179.773 152.655 179.599 152.263 179.251C151.893 178.903 151.709 178.446 151.709 177.881C151.709 177.315 151.893 176.869 152.263 176.543C152.655 176.195 153.133 176.021 153.698 176.021H168.182C168.747 176.021 169.215 176.195 169.585 176.543C169.976 176.891 170.172 177.348 170.172 177.913C170.172 178.479 169.976 178.935 169.585 179.283C169.215 179.609 168.747 179.773 168.182 179.773H153.698ZM180.251 176.021C180.773 176.021 181.23 176.217 181.621 176.608C182.034 176.978 182.241 177.446 182.241 178.011V196.866C182.241 197.431 182.034 197.91 181.621 198.301C181.208 198.671 180.729 198.856 180.186 198.856C179.577 198.856 179.087 198.671 178.718 198.301C178.348 197.91 178.163 197.431 178.163 196.866V178.011C178.163 177.446 178.359 176.978 178.75 176.608C179.142 176.217 179.642 176.021 180.251 176.021ZM194.702 176.021C195.311 176.021 195.8 176.217 196.17 176.608C196.54 176.978 196.724 177.446 196.724 178.011V196.866C196.724 197.431 196.529 197.91 196.137 198.301C195.768 198.671 195.267 198.856 194.637 198.856C194.115 198.856 193.647 198.671 193.234 198.301C192.843 197.91 192.647 197.431 192.647 196.866V178.011C192.647 177.446 192.853 176.978 193.267 176.608C193.68 176.217 194.158 176.021 194.702 176.021ZM180.153 185.514H194.702V189.265H180.153V185.514ZM210.254 196.866C210.254 197.431 210.047 197.91 209.634 198.301C209.221 198.671 208.742 198.856 208.199 198.856C207.59 198.856 207.1 198.671 206.731 198.301C206.361 197.91 206.176 197.431 206.176 196.866V178.011C206.176 177.446 206.372 176.978 206.763 176.608C207.155 176.217 207.655 176.021 208.264 176.021C208.786 176.021 209.243 176.217 209.634 176.608C210.047 176.978 210.254 177.446 210.254 178.011V196.866ZM227.066 199.182C225.544 199.182 224.174 198.997 222.956 198.627C221.738 198.236 220.575 197.562 219.466 196.605C219.183 196.366 218.965 196.094 218.813 195.789C218.661 195.485 218.585 195.18 218.585 194.876C218.585 194.376 218.759 193.941 219.107 193.571C219.476 193.18 219.933 192.984 220.477 192.984C220.89 192.984 221.26 193.114 221.586 193.375C222.412 194.05 223.228 194.561 224.032 194.909C224.859 195.257 225.87 195.43 227.066 195.43C227.871 195.43 228.61 195.311 229.284 195.072C229.959 194.811 230.502 194.474 230.915 194.06C231.329 193.625 231.535 193.136 231.535 192.592C231.535 191.94 231.34 191.386 230.948 190.929C230.557 190.472 229.959 190.092 229.154 189.787C228.349 189.461 227.327 189.211 226.088 189.037C224.913 188.863 223.88 188.602 222.989 188.254C222.097 187.884 221.347 187.428 220.738 186.884C220.151 186.318 219.705 185.666 219.4 184.927C219.096 184.165 218.944 183.317 218.944 182.382C218.944 180.969 219.302 179.762 220.02 178.761C220.76 177.761 221.749 177 222.989 176.478C224.228 175.956 225.598 175.695 227.099 175.695C228.512 175.695 229.817 175.912 231.013 176.347C232.231 176.761 233.221 177.293 233.982 177.946C234.612 178.446 234.928 179.022 234.928 179.675C234.928 180.153 234.743 180.588 234.373 180.98C234.004 181.371 233.569 181.567 233.068 181.567C232.742 181.567 232.449 181.469 232.188 181.273C231.84 180.969 231.372 180.686 230.785 180.425C230.198 180.142 229.578 179.914 228.926 179.74C228.273 179.544 227.664 179.446 227.099 179.446C226.164 179.446 225.37 179.566 224.718 179.805C224.087 180.044 223.608 180.371 223.282 180.784C222.956 181.197 222.793 181.675 222.793 182.219C222.793 182.872 222.978 183.415 223.347 183.85C223.739 184.263 224.293 184.6 225.011 184.861C225.729 185.101 226.588 185.318 227.588 185.514C228.893 185.753 230.035 186.036 231.013 186.362C232.014 186.688 232.84 187.112 233.492 187.634C234.145 188.134 234.634 188.776 234.96 189.559C235.287 190.32 235.45 191.255 235.45 192.364C235.45 193.778 235.058 194.996 234.275 196.018C233.492 197.04 232.459 197.823 231.176 198.366C229.915 198.91 228.545 199.182 227.066 199.182Z" fill="white"/>
<path d="M30.8102 176.51L30.2672 177.144L30.2761 177.152L30.2852 177.159L30.8102 176.51ZM31.3974 178.696L32.1875 178.964L32.1957 178.94L32.2024 178.916L31.3974 178.696ZM24.9711 197.616L24.181 197.348L24.1795 197.352L24.9711 197.616ZM24.2534 198.529L24.6828 199.245L24.6893 199.241L24.6957 199.237L24.2534 198.529ZM23.2096 198.856V199.69H23.2341L23.2586 199.689L23.2096 198.856ZM22.1005 198.529L21.6582 199.237L21.6677 199.243L21.6774 199.249L22.1005 198.529ZM21.285 197.583L20.5213 197.92L20.5259 197.93L20.5308 197.941L21.285 197.583ZM16.4571 186.623L16.92 185.929L14.5408 184.342L15.6934 186.959L16.4571 186.623ZM16.7507 186.819L17.5138 187.156L17.798 186.514L17.2136 186.124L16.7507 186.819ZM11.9881 197.583L12.7422 197.941L12.7468 197.931L12.7512 197.921L11.9881 197.583ZM11.1399 198.529L10.7168 197.81L10.7072 197.816L10.6977 197.822L11.1399 198.529ZM10.0634 198.856L10.0114 199.688L10.0374 199.69H10.0634V198.856ZM9.01958 198.529L8.57732 199.237L8.59368 199.247L8.61048 199.257L9.01958 198.529ZM8.30193 197.616L9.09357 197.352L9.09205 197.348L8.30193 197.616ZM1.87565 178.696L1.0706 178.916L1.07732 178.94L1.08553 178.964L1.87565 178.696ZM2.46282 176.51L2.98787 177.159L2.99123 177.156L2.46282 176.51ZM5.07248 176.25L4.63022 176.957L4.63973 176.963L4.6494 176.969L5.07248 176.25ZM5.82276 177.196L5.02697 177.447L5.03031 177.457L5.82276 177.196ZM11.0094 192.919L10.9716 193.752L12.1812 193.807L11.8019 192.657L11.0094 192.919ZM10.2918 192.886L9.52146 192.565L9.06329 193.666L10.2539 193.72L10.2918 192.886ZM14.9239 181.762L14.1614 181.424L14.1574 181.433L14.1536 181.442L14.9239 181.762ZM15.6742 180.849L16.1371 181.543L16.1526 181.533L16.1677 181.522L15.6742 180.849ZM16.7833 180.523L16.7395 181.356L16.7833 181.358L16.8272 181.356L16.7833 180.523ZM17.8924 180.849L17.3989 181.522L17.414 181.533L17.4295 181.543L17.8924 180.849ZM18.6101 181.762L17.8323 182.065L17.835 182.072L18.6101 181.762ZM22.8508 192.397L23.293 193.104L23.884 192.735L23.6259 192.088L22.8508 192.397ZM22.3288 192.723L21.5364 192.462L20.8131 194.654L22.7711 193.431L22.3288 192.723ZM27.4503 177.196L28.2428 177.457L28.246 177.447L27.4503 177.196ZM29.3749 176.758C29.6374 176.758 29.9297 176.855 30.2672 177.144L31.3533 175.877C30.7774 175.383 30.1128 175.089 29.3749 175.089V176.758ZM30.2852 177.159C30.5229 177.351 30.6608 177.612 30.6608 178.044H32.3297C32.3297 177.171 32.0109 176.409 31.3352 175.862L30.2852 177.159ZM30.6608 178.044C30.6608 178.149 30.643 178.291 30.5923 178.477L32.2024 178.916C32.2823 178.623 32.3297 178.33 32.3297 178.044H30.6608ZM30.6073 178.428L24.181 197.348L25.7612 197.884L32.1875 178.964L30.6073 178.428ZM24.1795 197.352C24.11 197.561 23.9936 197.708 23.8112 197.822L24.6957 199.237C25.2092 198.916 25.5713 198.454 25.7627 197.88L24.1795 197.352ZM23.8241 197.814C23.6101 197.942 23.3921 198.009 23.1606 198.023L23.2586 199.689C23.7664 199.659 24.2444 199.508 24.6828 199.245L23.8241 197.814ZM23.2096 198.021C23.0111 198.021 22.7858 197.964 22.5236 197.81L21.6774 199.249C22.1545 199.529 22.6687 199.69 23.2096 199.69V198.021ZM22.5427 197.822C22.3452 197.698 22.1746 197.512 22.0391 197.226L20.5308 197.941C20.7868 198.481 21.1598 198.926 21.6582 199.237L22.5427 197.822ZM22.0486 197.247L17.2208 186.287L15.6934 186.959L20.5213 197.92L22.0486 197.247ZM15.9942 187.317L16.2878 187.513L17.2136 186.124L16.92 185.929L15.9942 187.317ZM15.9876 186.481L11.225 197.246L12.7512 197.921L17.5138 187.156L15.9876 186.481ZM11.2339 197.226C11.1048 197.499 10.9327 197.683 10.7168 197.81L11.563 199.249C12.0865 198.941 12.4799 198.495 12.7422 197.941L11.2339 197.226ZM10.6977 197.822C10.4673 197.966 10.2599 198.021 10.0634 198.021V199.69C10.6064 199.69 11.1167 199.528 11.5822 199.237L10.6977 197.822ZM10.1155 198.023C9.91003 198.01 9.68301 197.945 9.42868 197.802L8.61048 199.257C9.05207 199.505 9.52096 199.658 10.0114 199.688L10.1155 198.023ZM9.46184 197.822C9.27939 197.708 9.16308 197.561 9.09356 197.352L7.5103 197.88C7.70175 198.454 8.06387 198.916 8.57732 199.237L9.46184 197.822ZM9.09205 197.348L2.66577 178.428L1.08553 178.964L7.51181 197.884L9.09205 197.348ZM2.6807 178.477C2.63005 178.291 2.61224 178.149 2.61224 178.044H0.943338C0.943338 178.33 0.990776 178.623 1.0706 178.916L2.6807 178.477ZM2.61224 178.044C2.61224 177.612 2.75015 177.351 2.98786 177.159L1.93779 175.862C1.26212 176.409 0.943338 177.171 0.943338 178.044H2.61224ZM2.99123 177.156C3.35681 176.857 3.66531 176.758 3.93076 176.758V175.089C3.19583 175.089 2.52572 175.381 1.93442 175.865L2.99123 177.156ZM3.93076 176.758C4.18872 176.758 4.41587 176.823 4.63022 176.957L5.51474 175.542C5.03318 175.241 4.49918 175.089 3.93076 175.089V176.758ZM4.6494 176.969C4.83932 177.08 4.95796 177.228 5.02704 177.447L6.61848 176.944C6.42659 176.337 6.04504 175.854 5.49556 175.53L4.6494 176.969ZM5.03031 177.457L10.217 193.18L11.8019 192.657L6.61521 176.934L5.03031 177.457ZM11.0473 192.085L10.3297 192.052L10.2539 193.72L10.9716 193.752L11.0473 192.085ZM11.0621 193.207L15.6943 182.083L14.1536 181.442L9.52146 192.565L11.0621 193.207ZM15.6865 182.101C15.8024 181.84 15.9545 181.665 16.1371 181.543L15.2113 180.155C14.7415 180.468 14.3934 180.902 14.1614 181.424L15.6865 182.101ZM16.1677 181.522C16.3348 181.399 16.5137 181.344 16.7395 181.356L16.8272 179.69C16.2265 179.658 15.666 179.82 15.1807 180.176L16.1677 181.522ZM16.8272 181.356C17.0529 181.344 17.2318 181.399 17.3989 181.522L18.3859 180.176C17.9006 179.82 17.3401 179.658 16.7395 179.69L16.8272 181.356ZM17.4295 181.543C17.6026 181.659 17.7376 181.821 17.8324 182.065L19.3878 181.46C19.1781 180.921 18.8346 180.474 18.3553 180.155L17.4295 181.543ZM17.835 182.072L22.0757 192.706L23.6259 192.088L19.3852 181.453L17.835 182.072ZM22.4085 191.689L21.8866 192.015L22.7711 193.431L23.293 193.104L22.4085 191.689ZM23.1213 192.984L28.2427 177.457L26.6578 176.934L21.5364 192.462L23.1213 192.984ZM28.246 177.447C28.3151 177.228 28.4337 177.08 28.6236 176.969L27.7775 175.53C27.228 175.854 26.8464 176.337 26.6546 176.944L28.246 177.447ZM28.6236 176.969C28.8702 176.824 29.1163 176.758 29.3749 176.758V175.089C28.8071 175.089 28.2703 175.24 27.7775 175.53L28.6236 176.969ZM46.6932 181.143L47.4611 181.469L48.0847 180.003L46.5241 180.325L46.6932 181.143ZM39.6471 197.714L38.8792 197.387L38.8712 197.406L38.8641 197.425L39.6471 197.714ZM38.9294 198.693L39.4145 199.372L39.4229 199.365L38.9294 198.693ZM36.6134 198.529L37.244 197.983L37.244 197.983L36.6134 198.529ZM36.2872 196.703L35.5168 196.382L35.5003 196.422L35.4879 196.463L36.2872 196.703ZM44.4097 177.196L45.1801 177.516L45.1845 177.505L44.4097 177.196ZM45.1926 176.184L44.7393 175.484L44.7295 175.49L44.7199 175.497L45.1926 176.184ZM46.367 175.891L46.2796 176.721L46.3232 176.725H46.367V175.891ZM47.4434 176.25L46.95 176.922L46.9749 176.941L47.0012 176.957L47.4434 176.25ZM48.1937 177.196L47.4107 177.484L47.4171 177.501L47.4243 177.519L48.1937 177.196ZM56.2184 196.311L56.9972 196.012L56.9927 196L56.9878 195.988L56.2184 196.311ZM55.7943 198.497L55.24 197.873L55.2311 197.881L55.2224 197.889L55.7943 198.497ZM53.4783 198.66L52.9627 199.316L52.9736 199.325L52.9848 199.333L53.4783 198.66ZM52.7606 197.681L53.5297 197.357L53.5274 197.352L52.7606 197.681ZM45.7472 181.338L45.5781 180.521L44.5773 180.728L44.9803 181.667L45.7472 181.338ZM40.6583 193.734L39.9056 193.374L39.3343 194.569H40.6583V193.734ZM42.4525 189.983V189.148H41.9266L41.6997 189.623L42.4525 189.983ZM51.2601 189.983L52.0834 189.847L51.968 189.148H51.2601V189.983ZM51.8799 193.734V194.569H52.8635L52.7031 193.598L51.8799 193.734ZM45.9252 180.816L38.8792 197.387L40.415 198.04L47.4611 181.469L45.9252 180.816ZM38.8641 197.425C38.7633 197.699 38.6183 197.886 38.436 198.02L39.4229 199.365C39.893 199.021 40.2264 198.555 40.4301 198.002L38.8641 197.425ZM38.4444 198.014C38.2797 198.131 38.1118 198.184 37.9182 198.184V199.853C38.4641 199.853 38.9703 199.689 39.4145 199.372L38.4444 198.014ZM37.9182 198.184C37.4815 198.184 37.3167 198.067 37.244 197.983L35.9828 199.076C36.4754 199.644 37.1805 199.853 37.9182 199.853V198.184ZM37.244 197.983C37.1073 197.825 37.0238 197.624 37.0238 197.322H35.3549C35.3549 197.978 35.5541 198.581 35.9828 199.076L37.244 197.983ZM37.0238 197.322C37.0238 197.22 37.0409 197.094 37.0864 196.942L35.4879 196.463C35.403 196.746 35.3549 197.034 35.3549 197.322H37.0238ZM37.0575 197.023L45.1801 177.516L43.6394 176.875L35.5168 196.382L37.0575 197.023ZM45.1845 177.505C45.3042 177.206 45.4678 177.008 45.6654 176.872L44.7199 175.497C44.2215 175.839 43.8632 176.315 43.6349 176.886L45.1845 177.505ZM45.6459 176.885C45.8658 176.743 46.068 176.698 46.2796 176.721L46.4543 175.061C45.8395 174.996 45.2588 175.148 44.7393 175.484L45.6459 176.885ZM46.367 176.725C46.5747 176.725 46.7618 176.784 46.95 176.922L47.9369 175.577C47.4727 175.236 46.9421 175.056 46.367 175.056V176.725ZM47.0012 176.957C47.1804 177.069 47.3175 177.231 47.4107 177.484L48.9767 176.907C48.7655 176.334 48.4024 175.865 47.8857 175.542L47.0012 176.957ZM47.4243 177.519L55.449 196.634L56.9878 195.988L48.9631 176.873L47.4243 177.519ZM55.4396 196.611C55.5209 196.822 55.5471 196.981 55.5471 197.094H57.216C57.216 196.729 57.1334 196.366 56.9972 196.012L55.4396 196.611ZM55.5471 197.094C55.5471 197.475 55.4306 197.704 55.24 197.873L56.3487 199.121C56.941 198.594 57.216 197.888 57.216 197.094H55.5471ZM55.2224 197.889C54.9888 198.109 54.7744 198.184 54.5548 198.184V199.853C55.2484 199.853 55.8605 199.58 56.3662 199.104L55.2224 197.889ZM54.5548 198.184C54.347 198.184 54.1599 198.125 53.9717 197.987L52.9848 199.333C53.449 199.673 53.9796 199.853 54.5548 199.853V198.184ZM53.9938 198.004C53.8172 197.865 53.6575 197.661 53.5297 197.358L51.9916 198.005C52.2117 198.528 52.5305 198.976 52.9627 199.316L53.9938 198.004ZM53.5274 197.352L46.514 181.009L44.9803 181.667L51.9938 198.01L53.5274 197.352ZM45.9162 182.156L46.8622 181.96L46.5241 180.325L45.5781 180.521L45.9162 182.156ZM41.4111 194.094L43.2053 190.343L41.6997 189.623L39.9056 193.374L41.4111 194.094ZM42.4525 190.817H51.2601V189.148H42.4525V190.817ZM50.4368 190.119L51.0566 193.87L52.7031 193.598L52.0834 189.847L50.4368 190.119ZM51.8799 192.9H40.6583V194.569H51.8799V192.9ZM68.3164 198.301L67.7263 198.891L67.7347 198.9L67.7434 198.908L68.3164 198.301ZM67.7292 177.946V177.111H66.8947V177.946H67.7292ZM71.9699 177.946H72.8043V177.111H71.9699V177.946ZM71.3501 198.301L71.923 198.908L71.924 198.907L71.3501 198.301ZM61.1724 179.251L60.6005 179.858L60.6092 179.866L60.618 179.874L61.1724 179.251ZM61.1724 176.543L61.7245 177.169L61.7268 177.167L61.1724 176.543ZM78.494 176.543L77.9221 177.151L77.9307 177.159L77.9396 177.167L78.494 176.543ZM78.494 179.283L79.0461 179.909L79.0484 179.907L78.494 179.283ZM69.8169 198.021C69.3909 198.021 69.1053 197.898 68.8893 197.694L67.7434 198.908C68.3103 199.443 69.0251 199.69 69.8169 199.69V198.021ZM68.9064 197.711C68.6752 197.48 68.5636 197.215 68.5636 196.866H66.8947C66.8947 197.647 67.1747 198.34 67.7263 198.891L68.9064 197.711ZM68.5636 196.866V177.946H66.8947V196.866H68.5636ZM67.7292 178.78H71.9699V177.111H67.7292V178.78ZM71.1354 177.946V196.866H72.8043V177.946H71.1354ZM71.1354 196.866C71.1354 197.2 71.0243 197.46 70.7762 197.695L71.924 198.907C72.5023 198.359 72.8043 197.662 72.8043 196.866H71.1354ZM70.7771 197.694C70.5668 197.893 70.2735 198.021 69.8169 198.021V199.69C70.6216 199.69 71.3505 199.449 71.923 198.908L70.7771 197.694ZM62.6077 178.938C62.229 178.938 61.9528 178.828 61.7268 178.627L60.618 179.874C61.1749 180.369 61.8556 180.607 62.6077 180.607V178.938ZM61.7443 178.643C61.5621 178.472 61.4523 178.245 61.4523 177.881H59.7834C59.7834 178.647 60.0433 179.334 60.6005 179.858L61.7443 178.643ZM61.4523 177.881C61.4523 177.516 61.5616 177.313 61.7245 177.169L60.6203 175.917C60.0438 176.426 59.7834 177.115 59.7834 177.881H61.4523ZM61.7268 177.167C61.9528 176.966 62.229 176.856 62.6077 176.856V175.187C61.8556 175.187 61.1749 175.424 60.618 175.919L61.7268 177.167ZM62.6077 176.856H77.0913V175.187H62.6077V176.856ZM77.0913 176.856C77.4704 176.856 77.7253 176.966 77.9221 177.151L79.0659 175.935C78.5233 175.425 77.8431 175.187 77.0913 175.187V176.856ZM77.9396 177.167C78.1376 177.343 78.2467 177.565 78.2467 177.913H79.9156C79.9156 177.131 79.6333 176.439 79.0484 175.919L77.9396 177.167ZM78.2467 177.913C78.2467 178.262 78.1376 178.484 77.9396 178.66L79.0484 179.907C79.6333 179.387 79.9156 178.696 79.9156 177.913H78.2467ZM77.9419 178.658C77.7469 178.83 77.4852 178.938 77.0913 178.938V180.607C77.8283 180.607 78.5017 180.389 79.0461 179.909L77.9419 178.658ZM77.0913 178.938H62.6077V180.607H77.0913V178.938ZM102.419 177.13L102.038 177.873L102.046 177.877L102.419 177.13ZM103.398 178.468L102.572 178.586L102.574 178.6L102.577 178.614L103.398 178.468ZM102.941 180.131L102.298 179.6L102.281 179.621L102.265 179.643L102.941 180.131ZM101.832 180.784L101.753 179.953L101.749 179.953L101.832 180.784ZM100.495 180.523L100.854 179.769L100.843 179.764L100.495 180.523ZM98.8312 179.968L98.6436 180.781L98.6502 180.783L98.8312 179.968ZM93.8729 180.327L93.5661 179.551L93.5598 179.554L93.8729 180.327ZM91.5242 181.926L92.1239 182.506L92.133 182.496L91.5242 181.926ZM90.0236 184.339L89.2416 184.048L89.2386 184.057L89.2357 184.065L90.0236 184.339ZM90.0889 190.896L89.3083 191.191L89.3111 191.199L89.3141 191.206L90.0889 190.896ZM91.6873 193.343L91.107 193.942L91.6873 193.343ZM94.0686 194.811L93.7879 195.597L93.7963 195.6L93.8047 195.602L94.0686 194.811ZM98.7986 195.104L98.9505 195.925L98.9505 195.925L98.7986 195.104ZM100.495 194.517L100.136 193.764L100.123 193.77L100.11 193.777L100.495 194.517ZM101.832 194.289L101.709 195.114L101.714 195.115L101.832 194.289ZM102.974 194.974L102.315 195.486L102.322 195.495L102.974 194.974ZM103.431 196.67L102.616 196.489L102.614 196.501L102.611 196.512L103.431 196.67ZM102.452 197.91L102.091 197.157L102.079 197.163L102.452 197.91ZM100.691 198.627L100.928 199.427L100.937 199.425L100.946 199.422L100.691 198.627ZM98.8965 199.019L98.7785 198.193L98.7641 198.195L98.7498 198.197L98.8965 199.019ZM92.568 198.432L92.2858 199.217L92.2897 199.218L92.568 198.432ZM88.8167 196.213L88.2584 196.834L88.2646 196.839L88.8167 196.213ZM86.2396 192.56L85.4721 192.887L85.4738 192.891L86.2396 192.56ZM86.1418 182.806L85.3711 182.486L85.367 182.496L86.1418 182.806ZM88.5883 179.153L89.1721 179.749L89.1723 179.749L88.5883 179.153ZM92.3397 176.739L92.6456 177.515L92.6557 177.511L92.3397 176.739ZM99.8425 176.184L100.036 175.373L100.036 175.373L99.8425 176.184ZM102.046 177.877C102.375 178.041 102.525 178.257 102.572 178.586L104.224 178.35C104.097 177.461 103.595 176.785 102.793 176.384L102.046 177.877ZM102.577 178.614C102.64 178.969 102.564 179.278 102.298 179.6L103.585 180.663C104.145 179.984 104.374 179.184 104.22 178.321L102.577 178.614ZM102.265 179.643C102.114 179.851 101.957 179.934 101.753 179.953L101.911 181.614C102.621 181.547 103.203 181.194 103.618 180.62L102.265 179.643ZM101.749 179.953C101.488 179.98 101.195 179.932 100.854 179.769L100.136 181.276C100.708 181.549 101.306 181.675 101.915 181.614L101.749 179.953ZM100.843 179.764C100.265 179.499 99.6541 179.296 99.0122 179.154L98.6502 180.783C99.1827 180.901 99.6812 181.068 100.147 181.281L100.843 179.764ZM99.0189 179.155C98.3868 179.009 97.7255 178.938 97.0371 178.938V180.607C97.61 180.607 98.1448 180.666 98.6436 180.781L99.0189 179.155ZM97.0371 178.938C95.7751 178.938 94.6138 179.137 93.5661 179.551L94.1797 181.103C95.0022 180.778 95.9504 180.607 97.0371 180.607V178.938ZM93.5598 179.554C92.5381 179.967 91.6533 180.568 90.9154 181.355L92.133 182.496C92.6999 181.891 93.3809 181.426 94.186 181.101L93.5598 179.554ZM90.9245 181.345C90.187 182.107 89.6271 183.012 89.2416 184.048L90.8057 184.63C91.1161 183.796 91.5566 183.092 92.1238 182.506L90.9245 181.345ZM89.2357 184.065C88.8747 185.1 88.6999 186.227 88.6999 187.438H90.3688C90.3688 186.388 90.5202 185.45 90.8115 184.614L89.2357 184.065ZM88.6999 187.438C88.6999 188.84 88.8949 190.097 89.3083 191.191L90.8695 190.601C90.5435 189.738 90.3688 188.69 90.3688 187.438H88.6999ZM89.3141 191.206C89.7438 192.28 90.3384 193.199 91.107 193.942L92.2676 192.743C91.6878 192.182 91.2168 191.469 90.8636 190.586L89.3141 191.206ZM91.107 193.942C91.8695 194.68 92.7664 195.232 93.7879 195.597L94.3493 194.025C93.544 193.737 92.8534 193.31 92.2676 192.743L91.107 193.942ZM93.8047 195.602C94.8118 195.938 95.8913 196.102 97.0371 196.102V194.433C96.0517 194.433 95.1522 194.292 94.3325 194.019L93.8047 195.602ZM97.0371 196.102C97.6761 196.102 98.3141 196.043 98.9505 195.925L98.6467 194.284C98.1087 194.383 97.5724 194.433 97.0371 194.433V196.102ZM98.9505 195.925C99.6211 195.801 100.265 195.577 100.88 195.257L100.11 193.777C99.6376 194.022 99.1505 194.19 98.6467 194.284L98.9505 195.925ZM100.854 195.271C101.183 195.113 101.462 195.077 101.709 195.114L101.956 193.464C101.333 193.37 100.72 193.486 100.136 193.764L100.854 195.271ZM101.714 195.115C101.94 195.147 102.133 195.251 102.315 195.486L103.633 194.462C103.206 193.913 102.638 193.561 101.95 193.463L101.714 195.115ZM102.322 195.495C102.627 195.876 102.683 196.189 102.616 196.489L104.245 196.851C104.44 195.977 104.191 195.159 103.626 194.453L102.322 195.495ZM102.611 196.512C102.555 196.804 102.41 197.004 102.091 197.157L102.813 198.662C103.582 198.293 104.089 197.667 104.25 196.828L102.611 196.512ZM102.079 197.163C101.552 197.427 101.004 197.65 100.435 197.833L100.946 199.422C101.595 199.213 102.221 198.958 102.825 198.656L102.079 197.163ZM100.454 197.827C99.9055 197.99 99.3473 198.111 98.7785 198.193L99.0145 199.845C99.6635 199.752 100.301 199.613 100.928 199.427L100.454 197.827ZM98.7498 198.197C98.1902 198.297 97.6195 198.347 97.0371 198.347V200.016C97.716 200.016 98.3849 199.958 99.0432 199.84L98.7498 198.197ZM97.0371 198.347C95.5619 198.347 94.1667 198.112 92.8464 197.645L92.2897 199.218C93.7966 199.751 95.3807 200.016 97.0371 200.016V198.347ZM92.8503 197.646C91.5577 197.182 90.3988 196.497 89.3688 195.588L88.2646 196.839C89.4527 197.887 90.7948 198.681 92.2858 199.217L92.8503 197.646ZM89.3749 195.593C88.3841 194.701 87.5926 193.585 87.0054 192.228L85.4738 192.891C86.148 194.449 87.0746 195.768 88.2585 196.834L89.3749 195.593ZM87.0072 192.233C86.4287 190.876 86.1281 189.284 86.1281 187.438H84.4592C84.4592 189.464 84.7892 191.286 85.4721 192.887L87.0072 192.233ZM86.1281 187.438C86.1281 185.859 86.3943 184.422 86.9165 183.116L85.367 182.496C84.7584 184.018 84.4592 185.668 84.4592 187.438H86.1281ZM86.9124 183.126C87.4586 181.811 88.2123 180.689 89.1721 179.749L88.0045 178.557C86.8766 179.661 85.9993 180.974 85.3712 182.486L86.9124 183.126ZM89.1723 179.749C90.1554 178.786 91.3104 178.041 92.6456 177.515L92.0339 175.962C90.4984 176.567 89.1524 177.432 88.0044 178.557L89.1723 179.749ZM92.6557 177.511C93.9816 176.969 95.4389 176.693 97.0371 176.693V175.024C95.2427 175.024 93.5684 175.335 92.0238 175.967L92.6557 177.511ZM97.0371 176.693C97.9301 176.693 98.8003 176.794 99.6492 176.996L100.036 175.373C99.0578 175.14 98.0578 175.024 97.0371 175.024V176.693ZM99.6492 176.996C100.5 177.199 101.296 177.491 102.038 177.873L102.801 176.388C101.934 175.943 101.012 175.605 100.036 175.373L99.6492 176.996ZM114.912 176.608L114.322 177.198L114.338 177.215L114.355 177.23L114.912 176.608ZM114.912 198.301L115.468 198.923L115.477 198.915L115.486 198.907L114.912 198.301ZM112.008 198.301L111.402 198.874L111.41 198.883L111.418 198.891L112.008 198.301ZM112.041 176.608L112.614 177.215L112.623 177.207L112.631 177.198L112.041 176.608ZM129.461 176.608L128.854 177.181L128.862 177.19L128.87 177.198L129.461 176.608ZM129.428 198.301L130.018 198.891L130.018 198.891L129.428 198.301ZM126.525 198.301L125.935 198.891L125.951 198.908L125.968 198.923L126.525 198.301ZM126.557 176.608L127.114 177.23L127.123 177.222L127.131 177.214L126.557 176.608ZM113.444 185.514V184.679H112.609V185.514H113.444ZM127.993 185.514H128.827V184.679H127.993V185.514ZM127.993 189.265V190.1H128.827V189.265H127.993ZM113.444 189.265H112.609V190.1H113.444V189.265ZM113.542 176.856C113.828 176.856 114.076 176.953 114.322 177.198L115.502 176.018C114.964 175.481 114.299 175.187 113.542 175.187V176.856ZM114.355 177.23C114.588 177.438 114.697 177.678 114.697 178.011H116.366C116.366 177.214 116.062 176.518 115.468 175.986L114.355 177.23ZM114.697 178.011V196.866H116.366V178.011H114.697ZM114.697 196.866C114.697 197.2 114.586 197.46 114.338 197.695L115.486 198.907C116.064 198.359 116.366 197.662 116.366 196.866H114.697ZM114.355 197.679C114.092 197.915 113.81 198.021 113.476 198.021V199.69C114.23 199.69 114.905 199.427 115.468 198.923L114.355 197.679ZM113.476 198.021C113.049 198.021 112.786 197.898 112.598 197.711L111.418 198.891C111.97 199.443 112.686 199.69 113.476 199.69V198.021ZM112.615 197.728C112.4 197.5 112.288 197.23 112.288 196.866H110.619C110.619 197.633 110.878 198.319 111.402 198.874L112.615 197.728ZM112.288 196.866V178.011H110.619V196.866H112.288ZM112.288 178.011C112.288 177.662 112.399 177.418 112.614 177.215L111.468 176.002C110.901 176.538 110.619 177.229 110.619 178.011H112.288ZM112.631 177.198C112.85 176.98 113.13 176.856 113.542 176.856V175.187C112.736 175.187 112.015 175.454 111.451 176.018L112.631 177.198ZM127.993 176.856C128.405 176.856 128.663 176.979 128.854 177.181L130.067 176.035C129.518 175.454 128.798 175.187 127.993 175.187V176.856ZM128.87 177.198C129.07 177.398 129.181 177.647 129.181 178.011H130.85C130.85 177.244 130.59 176.558 130.051 176.018L128.87 177.198ZM129.181 178.011V196.866H130.85V178.011H129.181ZM129.181 196.866C129.181 197.215 129.069 197.48 128.838 197.711L130.018 198.891C130.57 198.34 130.85 197.647 130.85 196.866H129.181ZM128.838 197.711C128.656 197.893 128.385 198.021 127.927 198.021V199.69C128.731 199.69 129.46 199.449 130.018 198.891L128.838 197.711ZM127.927 198.021C127.624 198.021 127.352 197.921 127.081 197.679L125.968 198.923C126.524 199.42 127.187 199.69 127.927 199.69V198.021ZM127.115 197.711C126.883 197.48 126.772 197.215 126.772 196.866H125.103C125.103 197.647 125.383 198.34 125.935 198.891L127.115 197.711ZM126.772 196.866V178.011H125.103V196.866H126.772ZM126.772 178.011C126.772 177.678 126.881 177.438 127.114 177.23L126.001 175.986C125.407 176.518 125.103 177.214 125.103 178.011H126.772ZM127.131 177.214C127.397 176.962 127.673 176.856 127.993 176.856V175.187C127.225 175.187 126.544 175.472 125.983 176.003L127.131 177.214ZM113.444 186.348H127.993V184.679H113.444V186.348ZM127.158 185.514V189.265H128.827V185.514H127.158ZM127.993 188.431H113.444V190.1H127.993V188.431ZM114.278 189.265V185.514H112.609V189.265H114.278ZM159.407 198.301L158.817 198.891L158.825 198.9L158.834 198.908L159.407 198.301ZM158.82 177.946V177.111H157.985V177.946H158.82ZM163.061 177.946H163.895V177.111H163.061V177.946ZM162.441 198.301L163.014 198.908L163.015 198.907L162.441 198.301ZM152.263 179.251L151.691 179.858L151.7 179.866L151.709 179.874L152.263 179.251ZM152.263 176.543L152.815 177.169L152.818 177.167L152.263 176.543ZM169.585 176.543L169.013 177.151L169.021 177.159L169.03 177.167L169.585 176.543ZM169.585 179.283L170.137 179.909L170.139 179.907L169.585 179.283ZM160.908 198.021C160.482 198.021 160.196 197.898 159.98 197.694L158.834 198.908C159.401 199.443 160.116 199.69 160.908 199.69V198.021ZM159.997 197.711C159.766 197.48 159.654 197.215 159.654 196.866H157.985C157.985 197.647 158.265 198.34 158.817 198.891L159.997 197.711ZM159.654 196.866V177.946H157.985V196.866H159.654ZM158.82 178.78H163.061V177.111H158.82V178.78ZM162.226 177.946V196.866H163.895V177.946H162.226ZM162.226 196.866C162.226 197.2 162.115 197.46 161.867 197.695L163.015 198.907C163.593 198.359 163.895 197.662 163.895 196.866H162.226ZM161.868 197.694C161.658 197.893 161.364 198.021 160.908 198.021V199.69C161.712 199.69 162.441 199.449 163.014 198.908L161.868 197.694ZM153.698 178.938C153.32 178.938 153.044 178.828 152.818 178.627L151.709 179.874C152.266 180.369 152.946 180.607 153.698 180.607V178.938ZM152.835 178.643C152.653 178.472 152.543 178.245 152.543 177.881H150.874C150.874 178.647 151.134 179.334 151.691 179.858L152.835 178.643ZM152.543 177.881C152.543 177.516 152.652 177.313 152.815 177.169L151.711 175.917C151.135 176.426 150.874 177.115 150.874 177.881H152.543ZM152.818 177.167C153.044 176.966 153.32 176.856 153.698 176.856V175.187C152.946 175.187 152.266 175.424 151.709 175.919L152.818 177.167ZM153.698 176.856H168.182V175.187H153.698V176.856ZM168.182 176.856C168.561 176.856 168.816 176.966 169.013 177.151L170.157 175.935C169.614 175.425 168.934 175.187 168.182 175.187V176.856ZM169.03 177.167C169.228 177.343 169.337 177.565 169.337 177.913H171.006C171.006 177.131 170.724 176.439 170.139 175.919L169.03 177.167ZM169.337 177.913C169.337 178.262 169.228 178.484 169.03 178.66L170.139 179.907C170.724 179.387 171.006 178.696 171.006 177.913H169.337ZM169.033 178.658C168.838 178.83 168.576 178.938 168.182 178.938V180.607C168.919 180.607 169.592 180.389 170.137 179.909L169.033 178.658ZM168.182 178.938H153.698V180.607H168.182V178.938ZM181.621 176.608L181.031 177.198L181.047 177.215L181.065 177.23L181.621 176.608ZM181.621 198.301L182.177 198.923L182.186 198.915L182.195 198.907L181.621 198.301ZM178.718 198.301L178.111 198.874L178.119 198.883L178.128 198.891L178.718 198.301ZM178.75 176.608L179.323 177.215L179.332 177.207L179.34 177.198L178.75 176.608ZM196.17 176.608L195.563 177.181L195.571 177.19L195.58 177.198L196.17 176.608ZM196.137 198.301L196.727 198.891L196.727 198.891L196.137 198.301ZM193.234 198.301L192.644 198.891L192.66 198.908L192.678 198.923L193.234 198.301ZM193.267 176.608L193.823 177.23L193.832 177.222L193.84 177.214L193.267 176.608ZM180.153 185.514V184.679H179.319V185.514H180.153ZM194.702 185.514H195.536V184.679H194.702V185.514ZM194.702 189.265V190.1H195.536V189.265H194.702ZM180.153 189.265H179.319V190.1H180.153V189.265ZM180.251 176.856C180.537 176.856 180.785 176.953 181.031 177.198L182.211 176.018C181.674 175.481 181.009 175.187 180.251 175.187V176.856ZM181.065 177.23C181.297 177.438 181.406 177.678 181.406 178.011H183.075C183.075 177.214 182.771 176.518 182.177 175.986L181.065 177.23ZM181.406 178.011V196.866H183.075V178.011H181.406ZM181.406 196.866C181.406 197.2 181.295 197.46 181.047 197.695L182.195 198.907C182.773 198.359 183.075 197.662 183.075 196.866H181.406ZM181.065 197.679C180.801 197.915 180.52 198.021 180.186 198.021V199.69C180.939 199.69 181.615 199.427 182.177 198.923L181.065 197.679ZM180.186 198.021C179.759 198.021 179.495 197.898 179.308 197.711L178.128 198.891C178.68 199.443 179.395 199.69 180.186 199.69V198.021ZM179.324 197.728C179.109 197.5 178.998 197.23 178.998 196.866H177.329C177.329 197.633 177.587 198.319 178.111 198.874L179.324 197.728ZM178.998 196.866V178.011H177.329V196.866H178.998ZM178.998 178.011C178.998 177.662 179.108 177.418 179.323 177.215L178.177 176.002C177.61 176.538 177.329 177.229 177.329 178.011H178.998ZM179.34 177.198C179.559 176.98 179.839 176.856 180.251 176.856V175.187C179.445 175.187 178.725 175.454 178.16 176.018L179.34 177.198ZM194.702 176.856C195.114 176.856 195.372 176.979 195.563 177.181L196.776 176.035C196.228 175.454 195.507 175.187 194.702 175.187V176.856ZM195.58 177.198C195.779 177.398 195.89 177.647 195.89 178.011H197.559C197.559 177.244 197.3 176.558 196.76 176.018L195.58 177.198ZM195.89 178.011V196.866H197.559V178.011H195.89ZM195.89 196.866C195.89 197.215 195.778 197.48 195.547 197.711L196.727 198.891C197.279 198.34 197.559 197.647 197.559 196.866H195.89ZM195.547 197.711C195.365 197.893 195.095 198.021 194.637 198.021V199.69C195.44 199.69 196.17 199.449 196.727 198.891L195.547 197.711ZM194.637 198.021C194.334 198.021 194.061 197.921 193.79 197.679L192.678 198.923C193.233 199.42 193.896 199.69 194.637 199.69V198.021ZM193.824 197.711C193.593 197.48 193.481 197.215 193.481 196.866H191.812C191.812 197.647 192.092 198.34 192.644 198.891L193.824 197.711ZM193.481 196.866V178.011H191.812V196.866H193.481ZM193.481 178.011C193.481 177.678 193.591 177.438 193.823 177.23L192.71 175.986C192.116 176.518 191.812 177.214 191.812 178.011H193.481ZM193.84 177.214C194.107 176.962 194.383 176.856 194.702 176.856V175.187C193.934 175.187 193.253 175.472 192.693 176.003L193.84 177.214ZM180.153 186.348H194.702V184.679H180.153V186.348ZM193.867 185.514V189.265H195.536V185.514H193.867ZM194.702 188.431H180.153V190.1H194.702V188.431ZM180.988 189.265V185.514H179.319V189.265H180.988ZM209.634 198.301L210.19 198.923L210.199 198.915L210.208 198.907L209.634 198.301ZM206.731 198.301L206.124 198.874L206.132 198.883L206.141 198.891L206.731 198.301ZM206.763 176.608L207.336 177.215L207.345 177.207L207.353 177.198L206.763 176.608ZM209.634 176.608L209.044 177.198L209.06 177.215L209.078 177.23L209.634 176.608ZM209.419 196.866C209.419 197.2 209.308 197.46 209.06 197.695L210.208 198.907C210.786 198.359 211.088 197.662 211.088 196.866H209.419ZM209.078 197.679C208.814 197.915 208.533 198.021 208.199 198.021V199.69C208.952 199.69 209.628 199.427 210.19 198.923L209.078 197.679ZM208.199 198.021C207.772 198.021 207.508 197.898 207.321 197.711L206.141 198.891C206.693 199.443 207.408 199.69 208.199 199.69V198.021ZM207.337 197.728C207.122 197.5 207.011 197.23 207.011 196.866H205.342C205.342 197.633 205.6 198.319 206.124 198.874L207.337 197.728ZM207.011 196.866V178.011H205.342V196.866H207.011ZM207.011 178.011C207.011 177.662 207.121 177.418 207.336 177.215L206.19 176.002C205.623 176.538 205.342 177.229 205.342 178.011H207.011ZM207.353 177.198C207.572 176.98 207.852 176.856 208.264 176.856V175.187C207.458 175.187 206.738 175.454 206.173 176.018L207.353 177.198ZM208.264 176.856C208.55 176.856 208.798 176.953 209.044 177.198L210.224 176.018C209.687 175.481 209.022 175.187 208.264 175.187V176.856ZM209.078 177.23C209.31 177.438 209.419 177.678 209.419 178.011H211.088C211.088 177.214 210.785 176.518 210.19 175.986L209.078 177.23ZM209.419 178.011V196.866H211.088V178.011H209.419ZM222.956 198.627L222.701 199.422L222.714 199.426L222.956 198.627ZM219.466 196.605L220.011 195.973L220.005 195.968L219.466 196.605ZM219.107 193.571L218.5 192.998L218.499 192.999L219.107 193.571ZM221.586 193.375L222.113 192.729L222.107 192.724L221.586 193.375ZM224.032 194.909L223.701 195.675L223.709 195.678L224.032 194.909ZM229.284 195.072L229.563 195.858L229.575 195.854L229.586 195.85L229.284 195.072ZM230.915 194.06L231.505 194.65L231.513 194.643L231.52 194.635L230.915 194.06ZM230.948 190.929L231.582 190.386L231.582 190.386L230.948 190.929ZM229.154 189.787L228.84 190.56L228.849 190.564L228.859 190.568L229.154 189.787ZM226.088 189.037L225.965 189.862L225.972 189.863L226.088 189.037ZM222.989 188.254L222.669 189.025L222.677 189.028L222.685 189.031L222.989 188.254ZM220.738 186.884L220.159 187.485L220.17 187.496L220.182 187.506L220.738 186.884ZM219.4 184.927L218.626 185.237L218.629 185.244L219.4 184.927ZM220.02 178.761L219.349 178.265L219.342 178.275L220.02 178.761ZM222.989 176.478L223.312 177.247L223.312 177.247L222.989 176.478ZM231.013 176.347L230.728 177.132L230.737 177.135L230.745 177.138L231.013 176.347ZM233.982 177.946L233.439 178.579L233.451 178.59L233.463 178.6L233.982 177.946ZM234.373 180.98L234.98 181.552L234.98 181.552L234.373 180.98ZM232.188 181.273L231.638 181.901L231.662 181.922L231.687 181.941L232.188 181.273ZM230.785 180.425L230.423 181.177L230.434 181.182L230.446 181.188L230.785 180.425ZM228.926 179.74L228.686 180.539L228.698 180.543L228.711 180.546L228.926 179.74ZM224.718 179.805L224.43 179.022L224.422 179.025L224.718 179.805ZM223.347 183.85L222.712 184.391L222.726 184.408L222.742 184.424L223.347 183.85ZM225.011 184.861L224.726 185.646L224.737 185.649L224.747 185.653L225.011 184.861ZM227.588 185.514L227.428 186.333L227.438 186.335L227.588 185.514ZM231.013 186.362L230.749 187.154L230.755 187.155L231.013 186.362ZM233.492 187.634L232.971 188.286L232.978 188.291L232.985 188.296L233.492 187.634ZM234.96 189.559L234.19 189.88L234.193 189.887L234.96 189.559ZM234.275 196.018L233.613 195.51L233.613 195.51L234.275 196.018ZM231.176 198.366L230.851 197.598L230.846 197.6L231.176 198.366ZM227.066 198.347C225.61 198.347 224.324 198.171 223.198 197.829L222.714 199.426C224.024 199.823 225.477 200.016 227.066 200.016V198.347ZM223.211 197.833C222.114 197.48 221.047 196.867 220.011 195.973L218.92 197.237C220.102 198.256 221.362 198.991 222.701 199.422L223.211 197.833ZM220.005 195.968C219.8 195.795 219.657 195.611 219.56 195.416L218.067 196.163C218.274 196.577 218.565 196.936 218.927 197.242L220.005 195.968ZM219.56 195.416C219.458 195.214 219.419 195.036 219.419 194.876H217.75C217.75 195.325 217.864 195.756 218.067 196.163L219.56 195.416ZM219.419 194.876C219.419 194.592 219.51 194.361 219.714 194.143L218.499 192.999C218.008 193.521 217.75 194.16 217.75 194.876H219.419ZM219.713 194.144C219.924 193.921 220.16 193.818 220.477 193.818V192.149C219.706 192.149 219.029 192.438 218.5 192.998L219.713 194.144ZM220.477 193.818C220.698 193.818 220.885 193.883 221.065 194.027L222.107 192.724C221.635 192.346 221.082 192.149 220.477 192.149V193.818ZM221.058 194.022C221.932 194.735 222.813 195.29 223.701 195.674L224.364 194.143C223.643 193.831 222.893 193.364 222.113 192.729L221.058 194.022ZM223.709 195.678C224.666 196.081 225.794 196.265 227.066 196.265V194.596C225.946 194.596 225.052 194.432 224.356 194.14L223.709 195.678ZM227.066 196.265C227.954 196.265 228.789 196.133 229.563 195.858L229.005 194.285C228.431 194.489 227.788 194.596 227.066 194.596V196.265ZM229.586 195.85C230.343 195.557 230.993 195.163 231.505 194.65L230.325 193.47C230.011 193.784 229.574 194.065 228.983 194.293L229.586 195.85ZM231.52 194.635C232.064 194.063 232.37 193.373 232.37 192.592H230.701C230.701 192.899 230.593 193.188 230.31 193.486L231.52 194.635ZM232.37 192.592C232.37 191.759 232.114 191.007 231.582 190.386L230.315 191.472C230.565 191.764 230.701 192.121 230.701 192.592H232.37ZM231.582 190.386C231.068 189.787 230.332 189.341 229.449 189.007L228.859 190.568C229.585 190.843 230.045 191.157 230.315 191.472L231.582 190.386ZM229.467 189.014C228.578 188.653 227.484 188.39 226.204 188.21L225.972 189.863C227.17 190.031 228.12 190.268 228.84 190.56L229.467 189.014ZM226.21 188.211C225.083 188.045 224.113 187.797 223.292 187.477L222.685 189.031C223.647 189.407 224.743 189.681 225.965 189.862L226.21 188.211ZM223.308 187.483C222.488 187.143 221.821 186.733 221.294 186.261L220.182 187.506C220.872 188.123 221.706 188.626 222.669 189.025L223.308 187.483ZM221.317 186.283C220.811 185.796 220.432 185.239 220.172 184.609L218.629 185.244C218.978 186.093 219.49 186.841 220.159 187.485L221.317 186.283ZM220.175 184.617C219.915 183.967 219.778 183.226 219.778 182.382H218.109C218.109 183.409 218.277 184.364 218.626 185.237L220.175 184.617ZM219.778 182.382C219.778 181.116 220.097 180.086 220.698 179.248L219.342 178.275C218.508 179.437 218.109 180.821 218.109 182.382H219.778ZM220.691 179.257C221.334 178.387 222.199 177.716 223.312 177.247L222.665 175.709C221.299 176.284 220.185 177.135 219.349 178.265L220.691 179.257ZM223.312 177.247C224.438 176.773 225.697 176.529 227.099 176.529V174.861C225.5 174.861 224.018 175.139 222.665 175.709L223.312 177.247ZM227.099 176.529C228.426 176.529 229.633 176.733 230.728 177.132L231.298 175.563C230.001 175.092 228.599 174.861 227.099 174.861V176.529ZM230.745 177.138C231.889 177.526 232.778 178.013 233.439 178.579L234.525 177.312C233.664 176.574 232.573 175.995 231.281 175.557L230.745 177.138ZM233.463 178.6C233.946 178.982 234.093 179.336 234.093 179.675H235.762C235.762 178.708 235.279 177.91 234.5 177.292L233.463 178.6ZM234.093 179.675C234.093 179.913 234.01 180.149 233.767 180.407L234.98 181.552C235.476 181.027 235.762 180.393 235.762 179.675H234.093ZM233.767 180.407C233.541 180.645 233.32 180.732 233.068 180.732V182.401C233.817 182.401 234.466 182.097 234.98 181.552L233.767 180.407ZM233.068 180.732C232.923 180.732 232.805 180.693 232.688 180.606L231.687 181.941C232.092 182.245 232.562 182.401 233.068 182.401V180.732ZM232.737 180.645C232.307 180.269 231.76 179.945 231.124 179.662L230.446 181.188C230.984 181.427 231.372 181.669 231.638 181.901L232.737 180.645ZM231.147 179.673C230.511 179.367 229.842 179.121 229.141 178.934L228.711 180.546C229.314 180.707 229.885 180.918 230.423 181.177L231.147 179.673ZM229.165 178.941C228.451 178.726 227.76 178.612 227.099 178.612V180.281C227.568 180.281 228.096 180.362 228.686 180.539L229.165 178.941ZM227.099 178.612C226.097 178.612 225.2 178.739 224.43 179.022L225.005 180.589C225.539 180.393 226.23 180.281 227.099 180.281V178.612ZM224.422 179.025C223.689 179.303 223.07 179.706 222.627 180.267L223.937 181.301C224.147 181.035 224.485 180.786 225.013 180.585L224.422 179.025ZM222.627 180.267C222.181 180.832 221.958 181.494 221.958 182.219H223.627C223.627 181.856 223.731 181.562 223.937 181.301L222.627 180.267ZM221.958 182.219C221.958 183.04 222.196 183.783 222.712 184.391L223.983 183.31C223.76 183.047 223.627 182.704 223.627 182.219H221.958ZM222.742 184.424C223.247 184.958 223.926 185.355 224.726 185.646L225.296 184.077C224.661 183.846 224.23 183.569 223.953 183.276L222.742 184.424ZM224.747 185.653C225.508 185.907 226.404 186.132 227.428 186.333L227.748 184.695C226.772 184.504 225.949 184.295 225.275 184.07L224.747 185.653ZM227.438 186.335C228.714 186.569 229.817 186.843 230.749 187.154L231.277 185.57C230.253 185.229 229.072 184.937 227.739 184.693L227.438 186.335ZM230.755 187.155C231.683 187.458 232.414 187.84 232.971 188.286L234.014 186.983C233.266 186.384 232.344 185.918 231.272 185.569L230.755 187.155ZM232.985 188.296C233.518 188.705 233.918 189.227 234.19 189.88L235.731 189.238C235.35 188.325 234.772 187.564 234 186.972L232.985 188.296ZM234.193 189.887C234.463 190.516 234.615 191.332 234.615 192.364H236.284C236.284 191.178 236.11 190.124 235.727 189.23L234.193 189.887ZM234.615 192.364C234.615 193.613 234.273 194.648 233.613 195.51L234.938 196.525C235.843 195.343 236.284 193.942 236.284 192.364H234.615ZM233.613 195.51C232.925 196.408 232.012 197.106 230.851 197.598L231.502 199.135C232.907 198.539 234.06 197.671 234.938 196.525L233.613 195.51ZM230.846 197.6C229.697 198.095 228.44 198.347 227.066 198.347V200.016C228.65 200.016 230.133 199.725 231.507 199.133L230.846 197.6Z" fill="white"/>
</g>
</g>
</g>
</g>
<defs>
<radialGradient id="paint0_angular_37_2" cx="0" cy="0" r="1" gradientUnits="userSpaceOnUse" gradientTransform="translate(121.749 67.3557) rotate(90) scale(206.191)">
<stop stop-color="#FF0000"/>
<stop offset="0.15625" stop-color="#FAFF00"/>
<stop offset="0.317708" stop-color="#05FF00"/>
<stop offset="0.489583" stop-color="#00FFFF"/>
<stop offset="0.651042" stop-color="#000AFF"/>
<stop offset="0.828125" stop-color="#CD00FF"/>
<stop offset="1" stop-color="#FF0000"/>
</radialGradient>
<radialGradient id="paint1_angular_37_2" cx="0" cy="0" r="1" gradientUnits="userSpaceOnUse" gradientTransform="translate(123.124 75.6033) rotate(90) scale(101.741)">
<stop stop-color="#FF0000"/>
<stop offset="0.15625" stop-color="#FAFF00"/>
<stop offset="0.317708" stop-color="#05FF00"/>
<stop offset="0.489583" stop-color="#00FFFF"/>
<stop offset="0.651042" stop-color="#000AFF"/>
<stop offset="0.828125" stop-color="#CD00FF"/>
<stop offset="1" stop-color="#FF0000"/>
</radialGradient>
<radialGradient id="paint2_angular_37_2" cx="0" cy="0" r="1" gradientUnits="userSpaceOnUse" gradientTransform="translate(120.796 75.6033) rotate(90) scale(71.3227)">
<stop stop-color="#FF0000"/>
<stop offset="0.15625" stop-color="#FAFF00"/>
<stop offset="0.317708" stop-color="#05FF00"/>
<stop offset="0.489583" stop-color="#00FFFF"/>
<stop offset="0.651042" stop-color="#000AFF"/>
<stop offset="0.828125" stop-color="#CD00FF"/>
<stop offset="1" stop-color="#FF0000"/>
</radialGradient>
<radialGradient id="paint3_angular_37_2" cx="0" cy="0" r="1" gradientUnits="userSpaceOnUse" gradientTransform="translate(120.796 75.6033) rotate(90) scale(71.3227)">
<stop stop-color="#FF0000"/>
<stop offset="0.15625" stop-color="#FAFF00"/>
<stop offset="0.317708" stop-color="#05FF00"/>
<stop offset="0.489583" stop-color="#00FFFF"/>
<stop offset="0.651042" stop-color="#000AFF"/>
<stop offset="0.828125" stop-color="#CD00FF"/>
<stop offset="1" stop-color="#FF0000"/>
</radialGradient>
<radialGradient id="paint4_angular_37_2" cx="0" cy="0" r="1" gradientUnits="userSpaceOnUse" gradientTransform="translate(121.181 180.756) rotate(90) scale(164.71)">
<stop stop-color="#FF0000"/>
<stop offset="0.15625" stop-color="#FAFF00"/>
<stop offset="0.317708" stop-color="#05FF00"/>
<stop offset="0.489583" stop-color="#00FFFF"/>
<stop offset="0.651042" stop-color="#000AFF"/>
<stop offset="0.828125" stop-color="#CD00FF"/>
<stop offset="1" stop-color="#FF0000"/>
</radialGradient>
</defs>
</svg>
